<svg width="75" height="75" viewBox="0 0 75 75" fill="none" xmlns="http://www.w3.org/2000/svg">
<g clip-path="url(#clip0_321_546)">
<path d="M39.0168 9.7264L25.0078 50.3218L64.8447 36.6432V28.2134V21.9613L67.206 13.3969L61.1742 5.72559L57.6873 9.7264L48.8292 11.0967L39.0168 9.7264Z" fill="#993D8A"/>
<path d="M55.8895 0C55.4245 0 54.9596 0.183524 54.6293 0.550571C53.8952 1.28467 53.8952 2.44698 54.6293 3.1199L58.4833 6.9739C56.8316 7.64682 54.3234 8.50326 51.387 8.74796C47.2883 9.11501 41.905 8.19739 39.8862 7.83034C38.8462 7.64682 38.1733 7.52447 37.5004 8.19739C37.3169 8.38091 37.1333 8.62561 37.0722 8.87031L28.0183 35.1754C27.7125 36.1542 28.2019 37.1941 29.1807 37.5C29.3642 37.5612 29.6089 37.6223 29.7924 37.6223C30.5265 37.6223 31.2606 37.133 31.5053 36.3989L40.0697 11.562C42.5779 11.9902 47.6554 12.7855 51.7541 12.4184C54.9351 12.1126 58.1774 11.1949 61.2973 9.72675L65.3348 13.7643C63.9278 16.456 63.0714 19.3312 62.8267 22.3899C62.3984 26.7945 63.1937 32.4225 63.6219 35.053L31.4441 46.248L49.1236 28.5685C49.8577 27.8344 49.8577 26.6721 49.1236 25.9992C48.3895 25.2651 47.2271 25.2651 46.5542 25.9992L23.1856 49.3067C22.6962 49.7961 22.5126 50.5302 22.7573 51.2031C23.002 51.9372 23.7361 52.4266 24.4702 52.4266C24.6537 52.4266 24.8984 52.3654 25.082 52.3042L66.1913 38.0506C66.436 37.9894 66.6807 37.8059 66.8642 37.6223C67.5371 36.9494 67.4759 36.3377 67.2312 35.1142C66.8642 32.9119 66.0077 27.1003 66.3748 22.7569C66.5583 20.5546 67.1089 18.4747 67.9653 16.5171L71.8805 20.4323C72.2475 20.7993 72.7369 20.9829 73.1652 20.9829C73.5934 20.9829 74.0828 20.7993 74.4498 20.4323C75.1839 19.6982 75.1839 18.5359 74.4498 17.863L57.1986 0.550571C56.8316 0.183524 56.3544 0 55.8895 0Z" fill="#33142E"/>
<path d="M56.8923 58.6662C53.1607 58.6662 49.9796 61.2967 49.1843 64.7837H44.6574C25.4486 64.7837 9.78793 49.123 9.78793 29.9142V25.3872C13.2749 24.5308 15.9054 21.4109 15.9054 17.6793C15.9054 13.2747 12.3573 9.72656 7.95269 9.72656C3.54812 9.72656 0 13.2747 0 17.6793C0 21.4109 2.63051 24.592 6.11746 25.3872V29.9142C6.11746 51.1417 23.4299 68.4541 44.6574 68.4541H49.1843C50.0408 71.9411 53.1607 74.5716 56.8923 74.5716C61.2969 74.5716 64.845 71.0235 64.845 66.6189C64.845 62.2143 61.2969 58.6662 56.8923 58.6662ZM3.67047 17.6793C3.67047 15.2934 5.56688 13.397 7.95269 13.397C10.3385 13.397 12.2349 15.2934 12.2349 17.6793C12.2349 20.0651 10.3385 21.9615 7.95269 21.9615C5.56688 21.9615 3.67047 20.0651 3.67047 17.6793ZM56.8923 70.9011C54.5065 70.9011 52.6101 69.0047 52.6101 66.6189C52.6101 64.2331 54.5065 62.3367 56.8923 62.3367C59.2781 62.3367 61.1746 64.2331 61.1746 66.6189C61.1746 69.0047 59.2781 70.9011 56.8923 70.9011Z" fill="#33142E"/>
<path d="M55.8276 17.4346C55.3627 17.4346 54.8978 17.6181 54.5674 17.9851L52.7322 19.8204C51.9981 20.5545 51.9981 21.7168 52.7322 22.3897C53.0993 22.7568 53.5887 22.9403 54.0169 22.9403C54.4451 22.9403 54.9345 22.7568 55.3015 22.3897L57.1368 20.5545C57.8709 19.8204 57.8709 18.6581 57.1368 17.9851C56.7697 17.6181 56.2926 17.4346 55.8276 17.4346V17.4346Z" fill="#33142E"/>
<path d="M28.3357 34.258L22.6709 50.3224L29.082 43.8746L33.4499 30.7588L28.3357 34.258Z" fill="#33142E"/>
</g>
<defs>
<clipPath id="clip0_321_546">
<rect width="75" height="74.5718" fill="white"/>
</clipPath>
</defs>
</svg>
