<svg width="75" height="75" viewBox="0 0 75 75" fill="none" xmlns="http://www.w3.org/2000/svg">
<g clip-path="url(#clip0_52_147)">
<path d="M39.017 9.72665L25.0081 50.3221L64.8449 36.6435V28.2136V21.9616L67.2063 13.3971L61.1745 5.72583L57.6875 9.72665L48.8294 11.097L39.017 9.72665Z" fill="#4677DE"/>
<path d="M55.889 0C55.4241 0 54.9591 0.183524 54.6288 0.550571C53.8947 1.28467 53.8947 2.44698 54.6288 3.1199L58.4828 6.9739C56.8311 7.64682 54.3229 8.50326 51.3865 8.74796C47.2878 9.11501 41.9045 8.19739 39.8857 7.83034C38.8457 7.64682 38.1728 7.52447 37.4999 8.19739C37.3164 8.38091 37.1329 8.62561 37.0717 8.87031L28.0179 35.1754C27.712 36.1542 28.2014 37.1941 29.1802 37.5C29.3637 37.5612 29.6084 37.6223 29.7919 37.6223C30.526 37.6223 31.2601 37.133 31.5048 36.3989L40.0692 11.562C42.5774 11.9902 47.6549 12.7855 51.7536 12.4184C54.9347 12.1126 58.1769 11.1949 61.2968 9.72675L65.3343 13.7643C63.9273 16.456 63.0709 19.3312 62.8262 22.3899C62.3979 26.7945 63.1932 32.4225 63.6214 35.053L31.4436 46.248L49.1231 28.5685C49.8572 27.8344 49.8572 26.6721 49.1231 25.9992C48.389 25.2651 47.2267 25.2651 46.5537 25.9992L23.1851 49.3067C22.6957 49.7961 22.5121 50.5302 22.7568 51.2031C23.0015 51.9372 23.7356 52.4266 24.4697 52.4266C24.6533 52.4266 24.8979 52.3654 25.0815 52.3042L66.1908 38.0506C66.4355 37.9894 66.6802 37.8059 66.8637 37.6223C67.5366 36.9494 67.4754 36.3377 67.2307 35.1142C66.8637 32.9119 66.0072 27.1003 66.3743 22.7569C66.5578 20.5546 67.1084 18.4747 67.9648 16.5171L71.88 20.4323C72.2471 20.7993 72.7364 20.9829 73.1647 20.9829C73.5929 20.9829 74.0823 20.7993 74.4493 20.4323C75.1834 19.6982 75.1834 18.5359 74.4493 17.863L57.1981 0.550571C56.8311 0.183524 56.3539 0 55.889 0Z" fill="#133989"/>
<path d="M56.8923 58.6664C53.1607 58.6664 49.9796 61.297 49.1843 64.7839H44.6574C25.4486 64.7839 9.78793 49.1232 9.78793 29.9144V25.3875C13.2749 24.531 15.9054 21.4111 15.9054 17.6795C15.9054 13.2749 12.3573 9.72681 7.95269 9.72681C3.54812 9.72681 0 13.2749 0 17.6795C0 21.4111 2.63051 24.5922 6.11746 25.3875V29.9144C6.11746 51.142 23.4299 68.4544 44.6574 68.4544H49.1843C50.0408 71.9413 53.1607 74.5718 56.8923 74.5718C61.2969 74.5718 64.845 71.0237 64.845 66.6191C64.845 62.2146 61.2969 58.6664 56.8923 58.6664ZM3.67047 17.6795C3.67047 15.2937 5.56688 13.3973 7.95269 13.3973C10.3385 13.3973 12.2349 15.2937 12.2349 17.6795C12.2349 20.0653 10.3385 21.9617 7.95269 21.9617C5.56688 21.9617 3.67047 20.0653 3.67047 17.6795ZM56.8923 70.9014C54.5065 70.9014 52.6101 69.0049 52.6101 66.6191C52.6101 64.2333 54.5065 62.3369 56.8923 62.3369C59.2781 62.3369 61.1746 64.2333 61.1746 66.6191C61.1746 69.0049 59.2781 70.9014 56.8923 70.9014Z" fill="#133989"/>
<path d="M55.8279 17.4348C55.363 17.4348 54.898 17.6183 54.5677 17.9854L52.7325 19.8206C51.9984 20.5547 51.9984 21.717 52.7325 22.39C53.0995 22.757 53.5889 22.9405 54.0171 22.9405C54.4453 22.9405 54.9347 22.757 55.3018 22.39L57.137 20.5547C57.8711 19.8206 57.8711 18.6583 57.137 17.9854C56.77 17.6183 56.2928 17.4348 55.8279 17.4348V17.4348Z" fill="#133989"/>
<path d="M28.3361 34.2577L22.6714 50.3222L29.0825 43.8744L33.4503 30.7585L28.3361 34.2577Z" fill="#133989"/>
</g>
<defs>
<clipPath id="clip0_52_147">
<rect width="75" height="74.5718" fill="white"/>
</clipPath>
</defs>
</svg>
