<svg width="75" height="75" viewBox="0 0 75 75" fill="none" xmlns="http://www.w3.org/2000/svg">
<g clip-path="url(#clip0_1_107)">
<path d="M39.0171 9.72677L25.0082 50.3222L64.845 36.6436V28.2137V21.9617L67.2064 13.3972L61.1746 5.72595L57.6876 9.72677L48.8295 11.0971L39.0171 9.72677Z" fill="#16C6DB"/>
<path d="M55.8891 0C55.4242 0 54.9592 0.183524 54.6289 0.550571C53.8948 1.28467 53.8948 2.44698 54.6289 3.1199L58.4829 6.9739C56.8312 7.64682 54.323 8.50326 51.3867 8.74796C47.288 9.11501 41.9046 8.19739 39.8858 7.83034C38.8459 7.64682 38.1729 7.52447 37.5 8.19739C37.3165 8.38091 37.133 8.62561 37.0718 8.87031L28.018 35.1754C27.7121 36.1542 28.2015 37.1941 29.1803 37.5C29.3638 37.5612 29.6085 37.6223 29.792 37.6223C30.5261 37.6223 31.2602 37.1329 31.5049 36.3989L40.0694 11.562C42.5775 11.9902 47.655 12.7855 51.7537 12.4184C54.9348 12.1126 58.177 11.1949 61.2969 9.72675L65.3345 13.7643C63.9274 16.456 63.071 19.3312 62.8263 22.3899C62.3981 26.7945 63.1933 32.4225 63.6216 35.053L31.4437 46.248L49.1232 28.5685C49.8573 27.8344 49.8573 26.6721 49.1232 25.9992C48.3891 25.2651 47.2268 25.2651 46.5539 25.9992L23.1852 49.3067C22.6958 49.7961 22.5123 50.5302 22.757 51.2031C23.0017 51.9372 23.7358 52.4266 24.4698 52.4266C24.6534 52.4266 24.8981 52.3654 25.0816 52.3042L66.1909 38.0506C66.4356 37.9894 66.6803 37.8059 66.8638 37.6223C67.5367 36.9494 67.4756 36.3377 67.2309 35.1142C66.8638 32.9119 66.0074 27.1003 66.3744 22.7569C66.5579 20.5546 67.1085 18.4747 67.965 16.5171L71.8801 20.4323C72.2472 20.7993 72.7366 20.9829 73.1648 20.9829C73.593 20.9829 74.0824 20.7993 74.4495 20.4323C75.1836 19.6982 75.1836 18.5359 74.4495 17.863L57.1982 0.550571C56.8312 0.183524 56.354 0 55.8891 0Z" fill="#097582"/>
<path d="M56.8923 58.6664C53.1607 58.6664 49.9796 61.2969 49.1843 64.7838H44.6574C25.4486 64.7838 9.78793 49.1232 9.78793 29.9143V25.3874C13.2749 24.531 15.9054 21.4111 15.9054 17.6794C15.9054 13.2749 12.3573 9.72675 7.95269 9.72675C3.54812 9.72675 0 13.2749 0 17.6794C0 21.4111 2.63051 24.5922 6.11746 25.3874V29.9143C6.11746 51.1419 23.4299 68.4543 44.6574 68.4543H49.1843C50.0408 71.9413 53.1607 74.5718 56.8923 74.5718C61.2969 74.5718 64.845 71.0236 64.845 66.6191C64.845 62.2145 61.2969 58.6664 56.8923 58.6664ZM3.67047 17.6794C3.67047 15.2936 5.56688 13.3972 7.95269 13.3972C10.3385 13.3972 12.2349 15.2936 12.2349 17.6794C12.2349 20.0652 10.3385 21.9617 7.95269 21.9617C5.56688 21.9617 3.67047 20.0652 3.67047 17.6794ZM56.8923 70.9013C54.5065 70.9013 52.6101 69.0049 52.6101 66.6191C52.6101 64.2333 54.5065 62.3369 56.8923 62.3369C59.2781 62.3369 61.1746 64.2333 61.1746 66.6191C61.1746 69.0049 59.2781 70.9013 56.8923 70.9013Z" fill="#097582"/>
<path d="M55.8279 17.4348C55.363 17.4348 54.898 17.6183 54.5677 17.9853L52.7325 19.8206C51.9984 20.5547 51.9984 21.717 52.7325 22.3899C53.0995 22.7569 53.5889 22.9405 54.0171 22.9405C54.4453 22.9405 54.9347 22.7569 55.3018 22.3899L57.137 20.5547C57.8711 19.8206 57.8711 18.6582 57.137 17.9853C56.77 17.6183 56.2928 17.4348 55.8279 17.4348Z" fill="#097582"/>
<path d="M28.336 34.2578L22.6713 50.3222L29.0824 43.8744L33.4502 30.7586L28.336 34.2578Z" fill="#097582"/>
</g>
<defs>
<clipPath id="clip0_1_107">
<rect width="75" height="74.5718" fill="white"/>
</clipPath>
</defs>
</svg>
