<?xml version="1.0" encoding="UTF-8"?><svg id="Layer_1" xmlns="http://www.w3.org/2000/svg" viewBox="0 0 61.3 60.95"><defs><style>.cls-1{fill:#ff00a9;}.cls-2{fill:#ff70cd;}</style></defs><polygon class="cls-2" points="31.89 7.95 20.44 41.13 53 29.95 53 23.06 53 17.95 54.93 10.95 50 4.68 47.15 7.95 39.91 9.07 31.89 7.95"/><path class="cls-1" d="M45.68,0c-.38,0-.76,.15-1.03,.45-.6,.6-.6,1.55,0,2.1l3.15,3.15c-1.35,.55-3.4,1.25-5.8,1.45-3.35,.3-7.75-.45-9.4-.75-.85-.15-1.4-.25-1.95,.3-.15,.15-.3,.35-.35,.55l-7.4,21.5c-.25,.8,.15,1.65,.95,1.9,.15,.05,.35,.1,.5,.1,.6,0,1.2-.4,1.4-1l7-20.3c2.05,.35,6.2,1,9.55,.7,2.6-.25,5.25-1,7.8-2.2l3.3,3.3c-1.15,2.2-1.85,4.55-2.05,7.05-.35,3.6,.3,8.2,.65,10.35l-26.3,9.15,14.45-14.45c.6-.6,.6-1.55,0-2.1-.6-.6-1.55-.6-2.1,0l-19.1,19.05c-.4,.4-.55,1-.35,1.55,.2,.6,.8,1,1.4,1,.15,0,.35-.05,.5-.1l33.6-11.65c.2-.05,.4-.2,.55-.35,.55-.55,.5-1.05,.3-2.05-.3-1.8-1-6.55-.7-10.1,.15-1.8,.6-3.5,1.3-5.1l3.2,3.2c.3,.3,.7,.45,1.05,.45s.75-.15,1.05-.45c.6-.6,.6-1.55,0-2.1L46.75,.45c-.3-.3-.69-.45-1.07-.45Z"/><path class="cls-1" d="M46.5,47.95c-3.05,0-5.65,2.15-6.3,5h-3.7c-15.7,0-28.5-12.8-28.5-28.5v-3.7c2.85-.7,5-3.25,5-6.3,0-3.6-2.9-6.5-6.5-6.5S0,10.85,0,14.45c0,3.05,2.15,5.65,5,6.3v3.7c0,17.35,14.15,31.5,31.5,31.5h3.7c.7,2.85,3.25,5,6.3,5,3.6,0,6.5-2.9,6.5-6.5s-2.9-6.5-6.5-6.5ZM3,14.45c0-1.95,1.55-3.5,3.5-3.5s3.5,1.55,3.5,3.5-1.55,3.5-3.5,3.5-3.5-1.55-3.5-3.5ZM46.5,57.95c-1.95,0-3.5-1.55-3.5-3.5s1.55-3.5,3.5-3.5,3.5,1.55,3.5,3.5-1.55,3.5-3.5,3.5Z"/><path class="cls-1" d="M45.63,14.25c-.38,0-.76,.15-1.03,.45l-1.5,1.5c-.6,.6-.6,1.55,0,2.1,.3,.3,.7,.45,1.05,.45s.75-.15,1.05-.45l1.5-1.5c.6-.6,.6-1.55,0-2.1-.3-.3-.69-.45-1.07-.45Z"/><polygon class="cls-1" points="23.16 28 18.53 41.13 23.77 35.86 27.34 25.14 23.16 28"/></svg>