<svg width="75" height="74" viewBox="0 0 75 74" fill="none" xmlns="http://www.w3.org/2000/svg">
<g clip-path="url(#clip0_321_536)">
<path d="M37.5199 42.1416L37.4617 61.95L19.5176 72.3785L19.5758 52.5701L37.5199 42.1416Z" fill="#67295D" stroke="#33142E" stroke-width="3" stroke-linecap="round" stroke-linejoin="round"/>
<path d="M19.5749 52.5701L19.5166 72.3785L1.45605 61.95L1.51431 42.1416L19.5749 52.5701Z" fill="#993D8A" stroke="#33142E" stroke-width="3" stroke-linecap="round" stroke-linejoin="round"/>
<path d="M37.5193 42.1414L19.5752 52.57L1.51465 42.1414L19.4587 31.7129L37.5193 42.1414Z" fill="#993D8A" stroke="#33142E" stroke-width="3" stroke-linecap="round" stroke-linejoin="round"/>
<path d="M73.5433 42.1416L73.4851 61.95L55.541 72.3785L55.5799 52.5701L73.5433 42.1416Z" fill="#67295D" stroke="#33142E" stroke-width="3" stroke-linecap="round" stroke-linejoin="round"/>
<path d="M55.5798 52.5701L55.5409 72.3785L37.4609 61.95L37.5192 42.1416L55.5798 52.5701Z" fill="#993D8A" stroke="#33142E" stroke-width="3" stroke-linecap="round" stroke-linejoin="round"/>
<path d="M73.5436 42.1414L55.5801 52.57L37.5195 42.1414L55.4636 31.7129L73.5436 42.1414Z" fill="#993D8A" stroke="#33142E" stroke-width="3" stroke-linecap="round" stroke-linejoin="round"/>
<path d="M55.5609 11.8848L55.5027 31.7126L37.5586 42.1411L37.6169 22.3133L55.5609 11.8848Z" fill="#67295D" stroke="#33142E" stroke-width="3" stroke-linecap="round" stroke-linejoin="round"/>
<path d="M37.6169 22.3133L37.5586 42.1411L19.498 31.7126L19.5563 11.8848L37.6169 22.3133Z" fill="#993D8A" stroke="#33142E" stroke-width="3" stroke-linecap="round" stroke-linejoin="round"/>
<path d="M55.5603 11.8846L37.6163 22.3131L19.5557 11.8846L37.4997 1.45605L55.5603 11.8846Z" fill="#993D8A" stroke="#33142E" stroke-width="3" stroke-linecap="round" stroke-linejoin="round"/>
</g>
<defs>
<clipPath id="clip0_321_536">
<rect width="75" height="73.8348" fill="white"/>
</clipPath>
</defs>
</svg>
