<?xml version="1.0" encoding="UTF-8"?><svg id="Layer_1" xmlns="http://www.w3.org/2000/svg" viewBox="0 0 38.62 38.02"><defs><style>.cls-1{fill:#ff9fde;}.cls-1,.cls-2,.cls-3{stroke:#c30084;stroke-linecap:round;stroke-linejoin:round;stroke-width:1.5px;}.cls-2{fill:#ff70cd;}.cls-3{fill:#ff40c9;}</style></defs><polygon class="cls-3" points="19.32 21.7 19.29 31.9 10.05 37.27 10.08 27.07 19.32 21.7"/><polygon class="cls-2" points="10.08 27.07 10.05 37.27 .75 31.9 .78 21.7 10.08 27.07"/><polygon class="cls-1" points="19.32 21.7 10.08 27.07 .78 21.7 10.02 16.33 19.32 21.7"/><polygon class="cls-3" points="37.87 21.7 37.84 31.9 28.6 37.27 28.62 27.07 37.87 21.7"/><polygon class="cls-2" points="28.62 27.07 28.6 37.27 19.29 31.9 19.32 21.7 28.62 27.07"/><polygon class="cls-1" points="37.87 21.7 28.62 27.07 19.32 21.7 28.56 16.33 37.87 21.7"/><polygon class="cls-3" points="28.61 6.12 28.58 16.33 19.34 21.7 19.37 11.49 28.61 6.12"/><polygon class="cls-2" points="19.37 11.49 19.34 21.7 10.04 16.33 10.07 6.12 19.37 11.49"/><polygon class="cls-1" points="28.61 6.12 19.37 11.49 10.07 6.12 19.31 .75 28.61 6.12"/></svg>