<svg width="75" height="74" viewBox="0 0 75 74" fill="none" xmlns="http://www.w3.org/2000/svg">
<g clip-path="url(#clip0_441_19)">
<path d="M37.5194 42.1414L37.4612 61.9497L19.5171 72.3783L19.5753 52.5699L37.5194 42.1414Z" fill="#4B8CB8" stroke="#2F5B79" stroke-width="3" stroke-linecap="round" stroke-linejoin="round"/>
<path d="M19.5753 52.5699L19.5171 72.3783L1.45648 61.9497L1.51474 42.1414L19.5753 52.5699Z" fill="#7BB8DD" stroke="#2F5B79" stroke-width="3" stroke-linecap="round" stroke-linejoin="round"/>
<path d="M37.5194 42.1414L19.5754 52.57L1.51477 42.1414L19.4588 31.7129L37.5194 42.1414Z" fill="#7BB8DD" stroke="#2F5B79" stroke-width="3" stroke-linecap="round" stroke-linejoin="round"/>
<path d="M73.5435 42.1414L73.4852 61.9497L55.5411 72.3783L55.58 52.5699L73.5435 42.1414Z" fill="#4B8CB8" stroke="#2F5B79" stroke-width="3" stroke-linecap="round" stroke-linejoin="round"/>
<path d="M55.58 52.5699L55.5412 72.3783L37.4612 61.9497L37.5194 42.1414L55.58 52.5699Z" fill="#7BB8DD" stroke="#2F5B79" stroke-width="3" stroke-linecap="round" stroke-linejoin="round"/>
<path d="M73.5435 42.1414L55.58 52.57L37.5194 42.1414L55.4635 31.7129L73.5435 42.1414Z" fill="#7BB8DD" stroke="#2F5B79" stroke-width="3" stroke-linecap="round" stroke-linejoin="round"/>
<path d="M55.5606 11.885L55.5024 31.7128L37.5583 42.1414L37.6165 22.3135L55.5606 11.885Z" fill="#4B8CB8" stroke="#2F5B79" stroke-width="3" stroke-linecap="round" stroke-linejoin="round"/>
<path d="M37.6165 22.3135L37.5583 42.1414L19.4977 31.7128L19.5559 11.885L37.6165 22.3135Z" fill="#7BB8DD" stroke="#2F5B79" stroke-width="3" stroke-linecap="round" stroke-linejoin="round"/>
<path d="M55.5606 11.8851L37.6165 22.3136L19.5559 11.8851L37.5 1.45654L55.5606 11.8851Z" fill="#7BB8DD" stroke="#2F5B79" stroke-width="3" stroke-linecap="round" stroke-linejoin="round"/>
</g>
<defs>
<clipPath id="clip0_441_19">
<rect width="75" height="73.8348" fill="white"/>
</clipPath>
</defs>
</svg>
