<svg width="75" height="76" viewBox="0 0 75 76" fill="none" xmlns="http://www.w3.org/2000/svg">
<path d="M64.3341 49.9435H20.4853C14.8984 49.9435 10.4966 54.3454 10.4966 59.9323V63.9955C10.4966 69.5824 14.8984 73.9842 20.4853 73.9842H64.3341C65.5192 73.9842 66.3657 73.1377 66.3657 71.9526V67.8894L64.3341 61.7946L66.3657 55.8691V51.8058C66.3657 50.79 65.5192 49.9435 64.3341 49.9435Z" fill="#1F974F"/>
<path d="M20.4853 55.8691C19.3002 55.8691 18.4537 56.7156 18.4537 57.9007V65.8578C18.4537 67.0429 19.3002 67.8894 20.4853 67.8894H66.3657V55.8691H20.4853Z" fill="#87F2B2"/>
<path d="M50.4515 25.903H6.60271C5.41761 25.903 4.57111 26.7495 4.57111 27.9346V47.912C4.57111 49.0971 5.41761 49.9436 6.60271 49.9436H50.4515C56.0384 49.9436 60.4402 45.5418 60.4402 39.9549V35.8917C60.4402 30.4741 56.0384 25.903 50.4515 25.903Z" fill="#097D37"/>
<path d="M50.4515 31.9977H4.57111V44.0181H50.4515C51.6366 44.0181 52.4831 43.1716 52.4831 41.9865V33.86C52.4831 32.8442 51.6366 31.9977 50.4515 31.9977Z" fill="#87F2B2"/>
<path d="M68.3973 2.03162H24.5485C18.9616 2.03162 14.5598 6.43342 14.5598 12.0203V16.0835C14.5598 21.6704 18.9616 26.0722 24.5485 26.0722H68.3973C69.5824 26.0722 70.4289 25.2257 70.4289 24.0406V19.9774L64.3341 13.8826L70.2596 7.95712V3.89392C70.4289 2.87812 69.5824 2.03162 68.3973 2.03162Z" fill="#005B25"/>
<path d="M70.4289 7.95709H24.5485C23.3634 7.95709 22.5169 8.80359 22.5169 9.9887V17.9458C22.5169 19.1309 23.3634 19.9774 24.5485 19.9774H70.4289" fill="#87F2B2"/>
<path d="M50.4515 31.9977H4.57111V36.0609H52.4831V33.86C52.4831 32.8442 51.6366 31.9977 50.4515 31.9977Z" fill="#33BB6A"/>
<path d="M18.4537 57.9007V59.9323H66.3657V55.8691H20.4853C19.4695 55.8691 18.4537 56.7156 18.4537 57.9007Z" fill="#33BB6A"/>
<path d="M22.5169 9.9887V12.0203H70.4289V7.95709H24.5485C23.3634 7.95709 22.5169 8.80359 22.5169 9.9887Z" fill="#33BB6A"/>
</svg>
