<svg width="75" height="76" viewBox="0 0 75 76" fill="none" xmlns="http://www.w3.org/2000/svg">
<path d="M64.3341 49.9436H20.4854C14.8985 49.9436 10.4966 54.3454 10.4966 59.9323V63.9955C10.4966 69.5824 14.8985 73.9842 20.4854 73.9842H64.3341C65.5192 73.9842 66.3657 73.1377 66.3657 71.9526V67.8894L64.3341 61.7946L66.3657 55.8691V51.8059C66.3657 50.7901 65.5192 49.9436 64.3341 49.9436Z" fill="#15ABBD"/>
<path d="M20.4853 55.8691C19.3002 55.8691 18.4537 56.7156 18.4537 57.9007V65.8578C18.4537 67.0429 19.3002 67.8894 20.4853 67.8894H66.3657V55.8691H20.4853Z" fill="#80E8F4"/>
<path d="M50.4515 25.9029H6.60271C5.41761 25.9029 4.57111 26.7494 4.57111 27.9345V47.912C4.57111 49.0971 5.41761 49.9436 6.60271 49.9436H50.4515C56.0384 49.9436 60.4402 45.5418 60.4402 39.9548V35.8916C60.4402 30.474 56.0384 25.9029 50.4515 25.9029Z" fill="#0E8F9E"/>
<path d="M50.4515 31.9977H4.57111V44.0181H50.4515C51.6366 44.0181 52.4831 43.1716 52.4831 41.9865V33.86C52.4831 32.8442 51.6366 31.9977 50.4515 31.9977Z" fill="#80E8F4"/>
<path d="M68.3973 2.03162H24.5485C18.9616 2.03162 14.5598 6.43342 14.5598 12.0203V16.0835C14.5598 21.6704 18.9616 26.0722 24.5485 26.0722H68.3973C69.5824 26.0722 70.4289 25.2257 70.4289 24.0406V19.9774L64.3341 13.8826L70.2596 7.95712V3.89392C70.4289 2.87812 69.5824 2.03162 68.3973 2.03162Z" fill="#097582"/>
<path d="M70.4289 7.95712H24.5485C23.3634 7.95712 22.5169 8.80362 22.5169 9.98873V17.9458C22.5169 19.1309 23.3634 19.9774 24.5485 19.9774H70.4289" fill="#80E8F4"/>
<path d="M50.4515 31.9977H4.57111V36.0609H52.4831V33.86C52.4831 32.8442 51.6366 31.9977 50.4515 31.9977Z" fill="#16C6DB"/>
<path d="M18.4537 57.9007V59.9323H66.3657V55.8691H20.4853C19.4695 55.8691 18.4537 56.7156 18.4537 57.9007Z" fill="#16C6DB"/>
<path d="M22.5169 9.98873V12.0203H70.4289V7.95712H24.5485C23.3634 7.95712 22.5169 8.80362 22.5169 9.98873Z" fill="#16C6DB"/>
</svg>
