<?xml version="1.0" encoding="utf-8"?>
<!-- Generator: Adobe Illustrator 26.3.1, SVG Export Plug-In . SVG Version: 6.00 Build 0)  -->
<svg version="1.1" id="Layer_1" xmlns="http://www.w3.org/2000/svg" xmlns:xlink="http://www.w3.org/1999/xlink" x="0px" y="0px"
	 viewBox="0 0 44.3 44.8" style="enable-background:new 0 0 44.3 44.8;" xml:space="preserve">
<style type="text/css">
	.st0{fill:#FF40C9;}
	.st1{fill:#FFBDEC;}
	.st2{fill:#FF00A9;}
	.st3{fill:#C30084;}
	.st4{fill:#FF9FDE;}
</style>
<path class="st0" d="M38,29.5H12.1c-3.3,0-5.9,2.6-5.9,5.9v2.4c0,3.3,2.6,5.9,5.9,5.9H38c0.7,0,1.2-0.5,1.2-1.2v-2.4L38,36.5
	l1.2-3.5v-2.4C39.2,30,38.7,29.5,38,29.5z"/>
<path class="st1" d="M12.1,33c-0.7,0-1.2,0.5-1.2,1.2v4.7c0,0.7,0.5,1.2,1.2,1.2h27.1V33H12.1z"/>
<path class="st2" d="M29.8,15.3H3.9c-0.7,0-1.2,0.5-1.2,1.2v11.8c0,0.7,0.5,1.2,1.2,1.2h25.9c3.3,0,5.9-2.6,5.9-5.9v-2.4
	C35.7,18,33.1,15.3,29.8,15.3z"/>
<path class="st1" d="M29.8,18.9H2.7v7.1h27.1c0.7,0,1.2-0.5,1.2-1.2V20C31,19.4,30.5,18.9,29.8,18.9z"/>
<path class="st3" d="M40.4,1.2H14.5c-3.3,0-5.9,2.6-5.9,5.9v2.4c0,3.3,2.6,5.9,5.9,5.9h25.9c0.7,0,1.2-0.5,1.2-1.2v-2.4L38,8.2
	l3.5-3.5V2.3C41.6,1.7,41.1,1.2,40.4,1.2L40.4,1.2z"/>
<path class="st1" d="M41.6,4.7H14.5c-0.7,0-1.2,0.5-1.2,1.2v4.7c0,0.7,0.5,1.2,1.2,1.2h27.1"/>
<path class="st4" d="M29.8,18.9H2.7v2.4H31V20C31,19.4,30.5,18.9,29.8,18.9z"/>
<path class="st4" d="M10.9,34.2v1.2h28.3V33H12.1C11.5,33,10.9,33.5,10.9,34.2z"/>
<path class="st4" d="M13.3,5.9v1.2h28.3V4.7H14.5C13.8,4.7,13.3,5.2,13.3,5.9z"/>
</svg>
