<svg width="75" height="76" viewBox="0 0 75 76" fill="none" xmlns="http://www.w3.org/2000/svg">
<path d="M64.3341 49.9436H20.4853C14.8984 49.9436 10.4966 54.3454 10.4966 59.9323V63.9955C10.4966 69.5824 14.8984 73.9842 20.4853 73.9842H64.3341C65.5192 73.9842 66.3657 73.1377 66.3657 71.9526V67.8894L64.3341 61.7946L66.3657 55.8691V51.8059C66.3657 50.7901 65.5192 49.9436 64.3341 49.9436Z" fill="#2F5EBF"/>
<path d="M20.4852 55.8691C19.3001 55.8691 18.4536 56.7156 18.4536 57.9007V65.8579C18.4536 67.043 19.3001 67.8895 20.4852 67.8895H66.3656V55.8691H20.4852Z" fill="#4677DE"/>
<path d="M50.4514 25.9028H6.60265C5.41755 25.9028 4.57104 26.7493 4.57104 27.9344V47.9119C4.57104 49.097 5.41755 49.9435 6.60265 49.9435H50.4514C56.0383 49.9435 60.4401 45.5417 60.4401 39.9548V35.8915C60.4401 30.4739 56.0383 25.9028 50.4514 25.9028Z" fill="#133989"/>
<path d="M50.4514 31.9978H4.57104V44.0181H50.4514C51.6365 44.0181 52.483 43.1716 52.483 41.9865V33.8601C52.483 32.8443 51.6365 31.9978 50.4514 31.9978Z" fill="#4677DE"/>
<path d="M68.3973 2.03149H24.5485C18.9616 2.03149 14.5598 6.4333 14.5598 12.0202V16.0834C14.5598 21.6703 18.9616 26.0721 24.5485 26.0721H68.3973C69.5824 26.0721 70.4289 25.2256 70.4289 24.0405V19.9773L64.3341 13.8825L70.2596 7.957V3.8938C70.4289 2.878 69.5824 2.03149 68.3973 2.03149Z" fill="#2F5EBF"/>
<path d="M70.4288 7.95703H24.5484C23.3633 7.95703 22.5168 8.80353 22.5168 9.98863V17.9457C22.5168 19.1308 23.3633 19.9773 24.5484 19.9773H70.4288" fill="#4677DE"/>
<path d="M50.4514 31.9978H4.57104V36.061H52.483V33.8601C52.483 32.8443 51.6365 31.9978 50.4514 31.9978Z" fill="#4677DE"/>
<path d="M18.4536 57.9007V59.9323H66.3656V55.8691H20.4852C19.4694 55.8691 18.4536 56.7156 18.4536 57.9007Z" fill="#4677DE"/>
<path d="M22.5168 9.98863V12.0202H70.4288V7.95703H24.5484C23.3633 7.95703 22.5168 8.80353 22.5168 9.98863Z" fill="#4677DE"/>
</svg>
