<svg width="75" height="76" viewBox="0 0 75 76" fill="none" xmlns="http://www.w3.org/2000/svg">
<path d="M64.3345 49.9434H20.4858C14.8989 49.9434 10.4971 54.3452 10.4971 59.9321V63.9953C10.4971 69.5822 14.8989 73.984 20.4858 73.984H64.3345C65.5196 73.984 66.3662 73.1375 66.3662 71.9524V67.8892L64.3345 61.7944L66.3662 55.8689V51.8057C66.3662 50.7899 65.5196 49.9434 64.3345 49.9434Z" fill="#67295D"/>
<path d="M20.4857 55.8691C19.3006 55.8691 18.4541 56.7156 18.4541 57.9007V65.8579C18.4541 67.043 19.3006 67.8895 20.4857 67.8895H66.3661V55.8691H20.4857Z" fill="#993D8A"/>
<path d="M50.4517 25.9033H6.60289C5.41779 25.9033 4.57129 26.7498 4.57129 27.9349V47.9123C4.57129 49.0975 5.41779 49.944 6.60289 49.944H50.4517C56.0386 49.944 60.4404 45.5421 60.4404 39.9552V35.892C60.4404 30.4744 56.0386 25.9033 50.4517 25.9033Z" fill="#33142E"/>
<path d="M50.4516 31.998H4.57129V44.0184H50.4516C51.6368 44.0184 52.4833 43.1719 52.4833 41.9868V33.8604C52.4833 32.8445 51.6368 31.998 50.4516 31.998Z" fill="#993D8A"/>
<path d="M68.3971 2.03125H24.5483C18.9614 2.03125 14.5596 6.43306 14.5596 12.02V16.0832C14.5596 21.6701 18.9614 26.0719 24.5483 26.0719H68.3971C69.5822 26.0719 70.4287 25.2254 70.4287 24.0403V19.9771L64.3338 13.8823L70.2594 7.95676V3.89355C70.4287 2.87775 69.5822 2.03125 68.3971 2.03125Z" fill="#67295D"/>
<path d="M70.4286 7.95703H24.5482C23.3631 7.95703 22.5166 8.80353 22.5166 9.98863V17.9457C22.5166 19.1308 23.3631 19.9773 24.5482 19.9773H70.4286" fill="#993D8A"/>
<path d="M50.4516 31.998H4.57129V36.0613H52.4833V33.8603C52.4833 32.8445 51.6368 31.998 50.4516 31.998Z" fill="#993D8A"/>
<path d="M18.4541 57.9007V59.9323H66.3661V55.8691H20.4857C19.4699 55.8691 18.4541 56.7156 18.4541 57.9007Z" fill="#993D8A"/>
<path d="M22.5166 9.98863V12.0202H70.4286V7.95703H24.5482C23.3631 7.95703 22.5166 8.80353 22.5166 9.98863Z" fill="#993D8A"/>
</svg>
