<?xml version="1.0" encoding="UTF-8"?><svg id="Layer_1" xmlns="http://www.w3.org/2000/svg" viewBox="0 0 327.27 327.27"><defs><style>.cls-1{fill:#0080ea;}.cls-2{fill:#fff985;}.cls-3{fill:#f4ff8d;}.cls-4{fill:#ff087e;}.cls-5{fill:#ff983b;}.cls-6{fill:#e0e0e0;}.cls-7{fill:#a373ff;}.cls-8{fill:#39ff89;}</style></defs><rect width="327.27" height="327.27"/><path class="cls-3" d="M236.7,234.91c-27.52,27.87-68.71,37.27-105.59,24.08-3.62-1.35-5.47-5.38-4.12-9,.11-.3,.24-.59,.39-.87l11.2-21.07c1.61-2.97,5.1-4.38,8.32-3.37,33.5,9.97,68.74-9.1,78.72-42.6,3.49-11.72,3.51-24.21,.05-35.94-1-3.19,.39-6.64,3.32-8.24l21-11.47c3.39-1.86,7.64-.62,9.5,2.77,.16,.29,.3,.6,.42,.91,13.05,36.49,4.03,77.23-23.21,104.8Z"/><path class="cls-5" d="M293.44,205.84c-2.22,7-9.69,10.88-16.69,8.67-.83-.25-1.63-.59-2.39-1l-22.22-12.34c-5.29-2.96-7.89-9.15-6.29-15,12.48-45.04-13.92-91.66-58.96-104.14-14.75-4.09-30.34-4.09-45.1-.02-5.82,1.63-12-.91-15-6.16l-12.63-22c-3.59-6.39-1.34-14.48,5.04-18.09,.79-.45,1.62-.81,2.49-1.09,71.25-23.53,148.08,15.15,171.62,86.39,9.09,27.53,9.14,57.26,.13,84.82v-.04Z"/><path class="cls-1" d="M119.96,119.51c-16.43,16.62-22.34,40.94-15.38,63.25,1.04,3.22-.34,6.72-3.29,8.37l-20.95,11.45c-3.38,1.87-7.64,.64-9.51-2.74-.16-.28-.29-.57-.41-.87-19.28-52.27,7.46-110.28,59.73-129.56,21.77-8.03,45.65-8.31,67.61-.79,3.64,1.3,5.54,5.3,4.24,8.94h0c-.12,.32-.26,.64-.42,.94l-11.24,21.17c-1.59,2.93-5.01,4.35-8.21,3.42-22.17-6.27-45.99,.03-62.17,16.42Z"/><path class="cls-4" d="M215.44,273.04c3.61,6.38,1.38,14.47-5,18.09h0c-.78,.44-1.59,.8-2.44,1.08-71.05,24.14-148.21-13.89-172.34-84.94-9.33-27.45-9.63-57.16-.86-84.79,2.18-7,9.63-10.91,16.63-8.72h0c.85,.26,1.68,.59,2.47,1l22.2,12.38c5.28,2.92,7.89,9.06,6.33,14.89-11.89,45.2,15.11,91.49,60.31,103.38,14.77,3.89,30.32,3.7,44.99-.53,5.85-1.68,12.1,.85,15.12,6.14l12.58,22.02Z"/><path class="cls-7" d="M293.44,205.84c-2.22,7-9.69,10.88-16.69,8.67-.83-.25-1.63-.59-2.39-1l-22.22-12.34c-5.29-2.96-7.89-9.15-6.29-15,12.48-45.04-13.92-91.66-58.96-104.14-14.75-4.09-30.34-4.09-45.1-.02-5.82,1.63-12-.91-15-6.16l-12.63-22c-3.59-6.39-1.34-14.48,5.04-18.09,.79-.45,1.62-.81,2.49-1.09,71.25-23.53,148.08,15.15,171.62,86.39,9.09,27.53,9.14,57.26,.13,84.82v-.04Z"/><path class="cls-4" d="M215.44,273.04c3.61,6.38,1.38,14.47-5,18.09h0c-.78,.44-1.59,.8-2.44,1.08-71.05,24.14-148.21-13.89-172.34-84.94-9.33-27.45-9.63-57.16-.86-84.79,2.18-7,9.63-10.91,16.63-8.72h0c.85,.26,1.68,.59,2.47,1l22.2,12.38c5.28,2.92,7.89,9.06,6.33,14.89-11.89,45.2,15.11,91.49,60.31,103.38,14.77,3.89,30.32,3.7,44.99-.53,5.85-1.68,12.1,.85,15.12,6.14l12.58,22.02Z"/><path class="cls-1" d="M119.96,119.51c-16.43,16.62-22.34,40.94-15.38,63.25,1.04,3.22-.34,6.72-3.29,8.37l-20.95,11.45c-3.38,1.87-7.64,.64-9.51-2.74-.16-.28-.29-.57-.41-.87-19.28-52.27,7.46-110.28,59.73-129.56,21.77-8.03,45.65-8.31,67.61-.79,3.64,1.3,5.54,5.3,4.24,8.94h0c-.12,.32-.26,.64-.42,.94l-11.24,21.17c-1.59,2.93-5.01,4.35-8.21,3.42-22.17-6.27-45.99,.03-62.17,16.42Z"/><path class="cls-2" d="M236.7,234.91c-27.52,27.87-68.71,37.27-105.59,24.08-3.62-1.35-5.47-5.38-4.12-9,.11-.3,.24-.59,.39-.87l11.2-21.07c1.61-2.97,5.1-4.38,8.32-3.37,33.5,9.97,68.74-9.1,78.72-42.6,3.49-11.72,3.51-24.21,.05-35.94-1-3.19,.39-6.64,3.32-8.24l21-11.47c3.39-1.86,7.64-.62,9.5,2.77,.16,.29,.3,.6,.42,.91,13.05,36.49,4.03,77.23-23.21,104.8Z"/><circle class="cls-8" cx="106.93" cy="222.14" r="15.89"/><circle class="cls-8" cx="222.15" cy="105.58" r="15.89"/><circle class="cls-6" cx="122.82" cy="125.56" r="22.21"/></svg>