<?xml version="1.0" encoding="UTF-8"?><svg id="Layer_1" xmlns="http://www.w3.org/2000/svg" viewBox="0 0 526.28 266.26"><defs><style>.cls-1{fill:none;stroke:#d22691;stroke-miterlimit:10;stroke-width:3px;}.cls-2{fill:#ffafe0;}.cls-3{fill:#ff5fce;}</style></defs><path class="cls-2" d="M157.08,26.72s-7.04,29.89-65.16,41.1c-58.12,11.2-68.13,67.01-1.05,94.51,67.07,27.51,147.15,154.16,170.39,60.84,23.25-93.32,105.68-121.59,84.88-149.38-20.8-27.8-123.9-88.16-189.06-47.07Z"/><path class="cls-3" d="M435.7,242.77c.52-.08,1.04-.17,1.56-.26,7.6-1.34,15.55-3.48,23.35-8.8,7.81-5.32,15.52-14.34,19.1-24.62,5.78-16.61-.76-29.71-8.28-38.28-12.36-14.09-27.63-23.86-41.34-35.97-11.65-10.3-22.44-22.63-28.52-39.89-6.5-18.46-10.94-38.71-20.38-54.28-7.86-12.96-19.07-22.57-33.67-23.4-14.2-.8-30.54,6.7-46.13,16.78-26.07,16.86-51.35,41.32-72.79,70.42-4.21,5.72-8.43,11.92-10.54,18.65-3.68,11.76,.14,21.31,4.63,28.42,8.38,13.24,19.19,23.37,30.54,32.48,36.3,29.12,78.68,48.41,125.2,56.98,18.17,3.35,37.11,5.07,57.25,1.78Z"/><path class="cls-1" d="M311.74,228.73s126.43,60,145.2-18.42c18.78-78.42-44.18-89.47-44.18-89.47,0,0-57.04-151.49-111.36-86.79s-52.11,3.95-52.11,3.95c0,0-88.36-58.54-97.2,1.1s-48.6,23.2-48.6,23.2c0,0-67.38-4.42-49.7,56.33s66.27,55.23,66.27,55.23c0,0,90.21,141.7,141.2,49.31s50.48,5.56,50.48,5.56Z"/></svg>