<?xml version="1.0" encoding="UTF-8"?><svg id="Layer_1" xmlns="http://www.w3.org/2000/svg" viewBox="0 0 84 77.44"><defs><style>.cls-1{fill:#ff70cd;stroke:#c30084;stroke-miterlimit:10;stroke-width:4px;}</style></defs><path class="cls-1" d="M30,2C14.54,2,2,12.74,2,26c0,4.51,1.48,8.71,4,12.31v14.55c0,2.12,2.42,3.33,4.11,2.05l9.05-6.79c3.33,1.2,7,1.87,10.84,1.87,15.46,0,28-10.74,28-24S45.46,2,30,2Z"/><path class="cls-1" d="M65.91,24.3c.03,.57,.09,1.13,.09,1.7,0,17.64-16.15,32-36,32-.08,0-.16-.02-.23-.02,4.84,7.17,13.87,12.02,24.23,12.02,3.84,0,7.51-.67,10.84-1.87l9.05,6.79c1.69,1.27,4.1,.06,4.1-2.05v-14.55c2.52-3.6,4-7.8,4-12.31,0-9.6-6.59-17.86-16.09-21.7Z"/></svg>