<svg width="75" height="70" viewBox="0 0 75 70" fill="none" xmlns="http://www.w3.org/2000/svg">
<g clip-path="url(#clip0_6_101)">
<path d="M26.7857 1.78571C12.9821 1.78571 1.78571 11.375 1.78571 23.2143C1.78571 27.2411 3.10713 30.9911 5.35713 34.2053V47.1964C5.35713 49.0893 7.51785 50.1696 9.02678 49.0268L17.1071 42.9643C20.0803 44.0357 23.3571 44.6339 26.7857 44.6339C40.5893 44.6339 51.7857 35.0446 51.7857 23.2053C51.7857 11.3661 40.5893 1.78571 26.7857 1.78571Z" fill="#33BB6A" stroke="#005B25" stroke-width="4" stroke-miterlimit="10"/>
<path d="M48.2143 60.5C41.1199 60.5 34.8539 57.7739 30.6693 53.5879C46.9017 51.9256 59.9698 39.9751 60.8782 24.8939C67.1911 28.423 71.2054 34.4262 71.2054 41.0803C71.2054 44.6555 70.035 48.0109 67.9955 50.9245L67.634 51.441V52.0714V65.0625C67.634 65.1419 67.6142 65.1866 67.5946 65.2169C67.5706 65.2539 67.5303 65.2928 67.4739 65.321C67.4176 65.3492 67.3631 65.3579 67.3203 65.3549C67.2858 65.3526 67.2387 65.3421 67.1748 65.294L67.1735 65.293L59.0932 59.2305L58.23 58.5829L57.2148 58.9488C54.4582 59.9422 51.4108 60.5 48.2143 60.5Z" fill="#33BB6A" stroke="#005B25" stroke-width="4" stroke-miterlimit="10"/>
</g>
<defs>
<clipPath id="clip0_6_101">
<rect width="75" height="69.1429" fill="white"/>
</clipPath>
</defs>
</svg>
