<svg width="75" height="70" viewBox="0 0 75 70" fill="none" xmlns="http://www.w3.org/2000/svg">
<g clip-path="url(#clip0_321_597)">
<path d="M26.7861 1.78613C12.9826 1.78613 1.78613 11.3754 1.78613 23.2147C1.78613 27.2415 3.10756 30.9915 5.35756 34.2058V47.1968C5.35756 49.0897 7.51828 50.1701 9.0272 49.0272L17.1076 42.9647C20.0808 44.0361 23.3576 44.6343 26.7861 44.6343C40.5897 44.6343 51.7861 35.0451 51.7861 23.2058C51.7861 11.3665 40.5897 1.78613 26.7861 1.78613Z" fill="#993D8A" stroke="#33142E" stroke-width="4" stroke-miterlimit="10"/>
<path d="M48.214 60.4999C41.1196 60.4999 34.8536 57.7738 30.669 53.5878C46.9014 51.9255 59.9695 39.975 60.8779 24.8938C67.1908 28.4229 71.2051 34.4261 71.2051 41.0802C71.2051 44.6554 70.0347 48.0108 67.9952 50.9244L67.6336 51.4408V52.0713V65.0624C67.6336 65.1418 67.6139 65.1864 67.5943 65.2167C67.5703 65.2538 67.53 65.2927 67.4736 65.3209C67.4173 65.3491 67.3627 65.3578 67.32 65.3548C67.2855 65.3524 67.2384 65.3419 67.1744 65.2938L67.1732 65.2929L59.0929 59.2304L58.2297 58.5828L57.2145 58.9487C54.4579 59.942 51.4104 60.4999 48.214 60.4999Z" fill="#993D8A" stroke="#33142E" stroke-width="4" stroke-miterlimit="10"/>
</g>
<defs>
<clipPath id="clip0_321_597">
<rect width="75" height="69.1429" fill="white"/>
</clipPath>
</defs>
</svg>
