<svg width="75" height="70" viewBox="0 0 75 70" fill="none" xmlns="http://www.w3.org/2000/svg">
<g clip-path="url(#clip0_52_198)">
<path d="M26.7856 1.78564C12.9821 1.78564 1.78564 11.3749 1.78564 23.2142C1.78564 27.241 3.10707 30.991 5.35707 34.2053V47.1964C5.35707 49.0892 7.51779 50.1696 9.02672 49.0267L17.1071 42.9642C20.0803 44.0356 23.3571 44.6339 26.7856 44.6339C40.5892 44.6339 51.7856 35.0446 51.7856 23.2053C51.7856 11.366 40.5892 1.78564 26.7856 1.78564Z" fill="#4677DE" stroke="#133989" stroke-width="4" stroke-miterlimit="10"/>
<path d="M48.2143 60.5001C41.1199 60.5001 34.8539 57.774 30.6693 53.588C46.9016 51.9257 59.9697 39.9752 60.8781 24.894C67.1911 28.4231 71.2053 34.4264 71.2053 41.0805C71.2053 44.6557 70.0349 48.011 67.9954 50.9246L67.6339 51.4411V52.0715V65.0626C67.6339 65.142 67.6141 65.1867 67.5945 65.217C67.5706 65.254 67.5302 65.293 67.4739 65.3212C67.4176 65.3494 67.363 65.358 67.3203 65.3551C67.2857 65.3527 67.2387 65.3422 67.1747 65.2941L67.1735 65.2932L59.0931 59.2307L58.23 58.5831L57.2148 58.9489C54.4581 59.9423 51.4107 60.5001 48.2143 60.5001Z" fill="#4677DE" stroke="#133989" stroke-width="4" stroke-miterlimit="10"/>
</g>
<defs>
<clipPath id="clip0_52_198">
<rect width="75" height="69.1429" fill="white"/>
</clipPath>
</defs>
</svg>
