<svg width="75" height="70" viewBox="0 0 75 70" fill="none" xmlns="http://www.w3.org/2000/svg">
<g clip-path="url(#clip0_441_80)">
<path d="M26.7857 1.78577C12.9821 1.78577 1.78571 11.3751 1.78571 23.2143C1.78571 27.2411 3.10714 30.9911 5.35714 34.2054V47.1965C5.35714 49.0893 7.51786 50.1697 9.02678 49.0268L17.1071 42.9643C20.0804 44.0358 23.3571 44.634 26.7857 44.634C40.5893 44.634 51.7857 35.0447 51.7857 23.2054C51.7857 11.3661 40.5893 1.78577 26.7857 1.78577Z" fill="#7BB8DD" stroke="#2F5B79" stroke-width="4" stroke-miterlimit="10"/>
<path d="M48.2143 60.5C41.1199 60.5 34.8539 57.7739 30.6693 53.5879C46.9017 51.9256 59.9697 39.9751 60.8781 24.8939C67.1911 28.423 71.2054 34.4262 71.2054 41.0803C71.2054 44.6555 70.035 48.0109 67.9955 50.9245L67.6339 51.441V52.0714V65.0625C67.6339 65.1419 67.6142 65.1866 67.5946 65.2169C67.5706 65.2539 67.5302 65.2928 67.4739 65.321C67.4176 65.3492 67.363 65.3579 67.3203 65.3549C67.2858 65.3526 67.2387 65.3421 67.1747 65.294L67.1735 65.293L59.0931 59.2305L58.23 58.5829L57.2148 58.9488C54.4582 59.9422 51.4107 60.5 48.2143 60.5Z" fill="#7BB8DD" stroke="#2F5B79" stroke-width="4" stroke-miterlimit="10"/>
</g>
<defs>
<clipPath id="clip0_441_80">
<rect width="75" height="69.1429" fill="white"/>
</clipPath>
</defs>
</svg>
