<svg width="75" height="78" viewBox="0 0 75 78" fill="none" xmlns="http://www.w3.org/2000/svg">
<g clip-path="url(#clip0_52_191)">
<path d="M65.9199 1.01782C63.8519 1.01782 61.7838 1.80951 60.2004 3.37672L52.7844 10.7927L64.2073 22.2156C67.3094 19.1135 71.5264 14.8965 71.6233 14.7996C74.7739 11.649 74.7739 6.5273 71.6233 3.37672C70.0561 1.79335 67.9718 1.01782 65.9038 1.01782H65.9199Z" fill="#2F5EBF" stroke="#133989" stroke-width="2" stroke-miterlimit="10"/>
<path d="M48.2119 11.9077C47.2425 11.843 46.2408 12.1823 45.4976 12.9255L42.5732 15.8499C41.1999 17.2233 41.1999 19.4691 42.5732 20.8424L54.19 32.4268C54.8847 33.1216 55.7895 33.4609 56.6943 33.4609C57.5991 33.4609 58.5038 33.1216 59.1986 32.4268L62.123 29.5024C62.7854 28.84 63.157 27.9514 63.157 27.0143C63.157 26.3519 62.9631 25.7217 62.6238 25.1724L49.8923 12.4408C49.3752 12.1177 48.8097 11.94 48.2281 11.9077H48.2119Z" fill="#2F5EBF" stroke="#133989" stroke-width="2" stroke-miterlimit="10"/>
<path d="M42.7671 21.2786L30.7141 33.3154C26.481 37.5485 25.8347 39.5197 25.3662 41.8624C25.0592 43.4135 24.7684 44.8837 20.9069 48.7452C20.2768 49.3753 20.2768 50.3932 20.9069 51.0233L23.9767 54.0931C24.2837 54.4001 24.6876 54.5617 25.1238 54.5617C25.5601 54.5617 25.964 54.4001 26.271 54.0931C30.1325 50.2316 31.6027 49.9408 33.1699 49.6177C35.4965 49.1491 37.4838 48.4867 41.7169 44.2698L53.7699 32.2168L51.4918 29.9387L46.564 34.8665H33.7839L45.1098 23.5406L42.8317 21.2625L42.7671 21.2786Z" fill="#4677DE" stroke="#133989" stroke-width="2" stroke-miterlimit="10"/>
<path d="M2.61739 34.8826C1.72877 34.8826 1.00171 35.6096 1.00171 36.4983V75.2746C1.00171 76.1633 1.72877 76.8903 2.61739 76.8903H43.0095C43.8981 76.8903 44.6251 76.1633 44.6251 75.2746V45.6592L43.9627 46.3216C39.5357 50.7647 37.0476 51.8957 33.7678 52.5581C32.6529 52.7843 31.6997 52.9782 28.5329 56.145C27.612 57.0659 26.4002 57.5668 25.1077 57.5668C23.8152 57.5668 22.5872 57.0659 21.6825 56.145L18.6127 53.0752C16.7223 51.1848 16.7223 48.115 18.6127 46.2247C21.7794 43.0579 21.9733 42.0885 22.1995 40.9899C22.6195 38.8733 23.2658 37.0799 24.8653 34.8826H2.61739V34.8826Z" fill="#2F5EBF" stroke="#133989" stroke-width="2" stroke-miterlimit="10"/>
</g>
<defs>
<clipPath id="clip0_52_191">
<rect width="75" height="77.9082" fill="white"/>
</clipPath>
</defs>
</svg>
