<?xml version="1.0" encoding="UTF-8"?><svg id="Layer_1" xmlns="http://www.w3.org/2000/svg" viewBox="0 0 46.42 48.22"><defs><style>.cls-1{fill:#ff9fde;}.cls-1,.cls-2{stroke:#c30084;stroke-miterlimit:10;stroke-width:1.25px;}.cls-2{fill:#ff40c9;}</style></defs><path class="cls-2" d="M40.8,.63c-1.28,0-2.56,.49-3.54,1.46l-4.59,4.59,7.07,7.07c1.92-1.92,4.53-4.53,4.59-4.59,1.95-1.95,1.95-5.12,0-7.07-.97-.98-2.26-1.46-3.54-1.46Z"/><path class="cls-2" d="M29.84,7.37c-.6-.04-1.22,.17-1.68,.63l-1.81,1.81c-.85,.85-.85,2.24,0,3.09l7.19,7.17c.43,.43,.99,.64,1.55,.64s1.12-.21,1.55-.64l1.81-1.81c.41-.41,.64-.96,.64-1.54,0-.41-.12-.8-.33-1.14l-7.88-7.88c-.32-.2-.67-.31-1.03-.33Z"/><path class="cls-1" d="M26.47,13.17l-7.46,7.45c-2.62,2.62-3.02,3.84-3.31,5.29-.19,.96-.37,1.87-2.76,4.26-.39,.39-.39,1.02,0,1.41l1.9,1.9c.19,.19,.44,.29,.71,.29s.52-.1,.71-.29c2.39-2.39,3.3-2.57,4.27-2.77,1.44-.29,2.67-.7,5.29-3.31l7.46-7.46-1.41-1.41-3.05,3.05h-7.91l7.01-7.01-1.41-1.41Z"/><path class="cls-2" d="M1.62,21.59c-.55,0-1,.45-1,1v24c0,.55,.45,1,1,1H26.62c.55,0,1-.45,1-1V28.26l-.41,.41c-2.74,2.75-4.28,3.45-6.31,3.86-.69,.14-1.28,.26-3.24,2.22-.57,.57-1.32,.88-2.12,.88s-1.56-.31-2.12-.88l-1.9-1.9c-1.17-1.17-1.17-3.07,0-4.24,1.96-1.96,2.08-2.56,2.22-3.24,.26-1.31,.66-2.42,1.65-3.78H1.62Z"/></svg>