<svg width="75" height="78" viewBox="0 0 75 78" fill="none" xmlns="http://www.w3.org/2000/svg">
<g clip-path="url(#clip0_441_73)">
<path d="M65.9199 1.01782C63.8518 1.01782 61.7837 1.80951 60.2003 3.37672L52.7844 10.7927L64.2072 22.2156C67.3094 19.1135 71.5263 14.8965 71.6232 14.7996C74.7738 11.649 74.7738 6.5273 71.6232 3.37672C70.056 1.79335 67.9718 1.01782 65.9037 1.01782H65.9199Z" fill="#4B8CB8" stroke="#2F5B79" stroke-width="2" stroke-miterlimit="10"/>
<path d="M48.212 11.9075C47.2426 11.8429 46.2408 12.1822 45.4976 12.9254L42.5732 15.8498C41.1999 17.2231 41.1999 19.4689 42.5732 20.8423L54.19 32.4267C54.8847 33.1215 55.7895 33.4607 56.6943 33.4607C57.5991 33.4607 58.5039 33.1215 59.1986 32.4267L62.123 29.5023C62.7854 28.8399 63.157 27.9513 63.157 27.0142C63.157 26.3517 62.9632 25.7216 62.6239 25.1723L49.8923 12.4407C49.3753 12.1176 48.8098 11.9398 48.2281 11.9075H48.212Z" fill="#4B8CB8" stroke="#2F5B79" stroke-width="2" stroke-miterlimit="10"/>
<path d="M42.7671 21.2785L30.7141 33.3153C26.481 37.5484 25.8348 39.5195 25.3662 41.8623C25.0592 43.4133 24.7684 44.8836 20.9069 48.7451C20.2768 49.3752 20.2768 50.3931 20.9069 51.0232L23.9767 54.093C24.2837 54.4 24.6876 54.5616 25.1239 54.5616C25.5601 54.5616 25.964 54.4 26.271 54.093C30.1325 50.2315 31.6028 49.9407 33.17 49.6176C35.4966 49.149 37.4838 48.4866 41.7169 44.2697L53.7699 32.2167L51.4918 29.9385L46.564 34.8664H33.7839L45.1099 23.5404L42.8318 21.2623L42.7671 21.2785Z" fill="#7BB8DD" stroke="#2F5B79" stroke-width="2" stroke-miterlimit="10"/>
<path d="M2.61741 34.8826C1.72878 34.8826 1.00172 35.6096 1.00172 36.4983V75.2746C1.00172 76.1633 1.72878 76.8903 2.61741 76.8903H43.0095C43.8981 76.8903 44.6252 76.1633 44.6252 75.2746V45.6592L43.9627 46.3216C39.5358 50.7647 37.0476 51.8957 33.7678 52.5581C32.653 52.7843 31.6997 52.9782 28.533 56.145C27.612 57.0659 26.4003 57.5668 25.1077 57.5668C23.8152 57.5668 22.5872 57.0659 21.6825 56.145L18.6127 53.0752C16.7223 51.1848 16.7223 48.115 18.6127 46.2247C21.7794 43.0579 21.9733 42.0885 22.1995 40.9899C22.6196 38.8733 23.2658 37.0799 24.8654 34.8826H2.61741V34.8826Z" fill="#4B8CB8" stroke="#2F5B79" stroke-width="2" stroke-miterlimit="10"/>
</g>
<defs>
<clipPath id="clip0_441_73">
<rect width="75" height="77.9082" fill="white"/>
</clipPath>
</defs>
</svg>
