<svg width="75" height="78" viewBox="0 0 75 78" fill="none" xmlns="http://www.w3.org/2000/svg">
<g clip-path="url(#clip0_1_150)">
<path d="M65.9199 1.01788C63.8518 1.01788 61.7837 1.80957 60.2003 3.37678L52.7844 10.7928L64.2072 22.2156C67.3094 19.1135 71.5263 14.8966 71.6232 14.7997C74.7738 11.6491 74.7738 6.52736 71.6232 3.37678C70.056 1.79341 67.9718 1.01788 65.9037 1.01788H65.9199Z" fill="#15ABBD" stroke="#097582" stroke-width="2" stroke-miterlimit="10"/>
<path d="M48.212 11.9076C47.2426 11.843 46.2408 12.1823 45.4976 12.9255L42.5732 15.8499C41.1999 17.2232 41.1999 19.469 42.5732 20.8423L54.19 32.4268C54.8847 33.1215 55.7895 33.4608 56.6943 33.4608C57.5991 33.4608 58.5039 33.1215 59.1986 32.4268L62.123 29.5024C62.7854 28.84 63.157 27.9513 63.157 27.0142C63.157 26.3518 62.9632 25.7217 62.6239 25.1724L49.8923 12.4408C49.3753 12.1176 48.8098 11.9399 48.2281 11.9076H48.212Z" fill="#15ABBD" stroke="#097582" stroke-width="2" stroke-miterlimit="10"/>
<path d="M42.7671 21.2785L30.7141 33.3154C26.4811 37.5485 25.8348 39.5196 25.3662 41.8623C25.0592 43.4134 24.7684 44.8837 20.9069 48.7452C20.2768 49.3753 20.2768 50.3932 20.9069 51.0233L23.9767 54.0931C24.2837 54.4001 24.6876 54.5616 25.1239 54.5616C25.5601 54.5616 25.964 54.4001 26.271 54.0931C30.1325 50.2316 31.6028 49.9408 33.17 49.6176C35.4966 49.1491 37.4839 48.4866 41.7169 44.2697L53.7699 32.2167L51.4918 29.9386L46.564 34.8664H33.7839L45.1099 23.5405L42.8318 21.2624L42.7671 21.2785Z" fill="#80E8F4" stroke="#097582" stroke-width="2" stroke-miterlimit="10"/>
<path d="M2.61739 34.8826C1.72877 34.8826 1.00171 35.6097 1.00171 36.4983V75.2747C1.00171 76.1633 1.72877 76.8904 2.61739 76.8904H43.0095C43.8981 76.8904 44.6251 76.1633 44.6251 75.2747V45.6592L43.9627 46.3216C39.5357 50.7648 37.0476 51.8957 33.7678 52.5582C32.6529 52.7844 31.6997 52.9782 28.5329 56.145C27.612 57.0659 26.4002 57.5668 25.1077 57.5668C23.8152 57.5668 22.5872 57.0659 21.6825 56.145L18.6127 53.0752C16.7223 51.1848 16.7223 48.115 18.6127 46.2247C21.7794 43.058 21.9733 42.0885 22.1995 40.9899C22.6195 38.8733 23.2658 37.0799 24.8653 34.8826H2.61739Z" fill="#15ABBD" stroke="#097582" stroke-width="2" stroke-miterlimit="10"/>
</g>
<defs>
<clipPath id="clip0_1_150">
<rect width="75" height="77.9082" fill="white"/>
</clipPath>
</defs>
</svg>
