<svg width="75" height="78" viewBox="0 0 75 78" fill="none" xmlns="http://www.w3.org/2000/svg">
<g clip-path="url(#clip0_321_590)">
<path d="M65.9197 1.01758C63.8516 1.01758 61.7835 1.80926 60.2002 3.37648L52.7842 10.7925L64.2071 22.2153C67.3092 19.1132 71.5261 14.8963 71.623 14.7994C74.7736 11.6488 74.7736 6.52706 71.623 3.37648C70.0558 1.79311 67.9716 1.01758 65.9035 1.01758H65.9197Z" fill="#67295D" stroke="#33142E" stroke-width="2" stroke-miterlimit="10"/>
<path d="M48.2117 11.9072C47.2423 11.8425 46.2406 12.1818 45.4974 12.925L42.573 15.8494C41.1996 17.2228 41.1996 19.4686 42.573 20.8419L54.1897 32.4263C54.8845 33.1211 55.7893 33.4604 56.694 33.4604C57.5988 33.4604 58.5036 33.1211 59.1983 32.4263L62.1227 29.502C62.7852 28.8395 63.1568 27.9509 63.1568 27.0138C63.1568 26.3514 62.9629 25.7213 62.6236 25.1719L49.892 12.4403C49.375 12.1172 48.8095 11.9395 48.2279 11.9072H48.2117Z" fill="#67295D" stroke="#33142E" stroke-width="2" stroke-miterlimit="10"/>
<path d="M42.7673 21.2789L30.7144 33.3157C26.4813 37.5488 25.835 39.5199 25.3664 41.8627C25.0595 43.4137 24.7686 44.884 20.9072 48.7455C20.277 49.3756 20.277 50.3935 20.9072 51.0236L23.977 54.0934C24.2839 54.4004 24.6879 54.5619 25.1241 54.5619C25.5603 54.5619 25.9642 54.4004 26.2712 54.0934C30.1327 50.2319 31.603 49.9411 33.1702 49.6179C35.4968 49.1494 37.4841 48.487 41.7172 44.27L53.7701 32.217L51.492 29.9389L46.5642 34.8667H33.7842L45.1101 23.5408L42.832 21.2627L42.7673 21.2789Z" fill="#993D8A" stroke="#33142E" stroke-width="2" stroke-miterlimit="10"/>
<path d="M2.61764 34.8828C1.72901 34.8828 1.00195 35.6099 1.00195 36.4985V75.2749C1.00195 76.1635 1.72901 76.8906 2.61764 76.8906H43.0097C43.8983 76.8906 44.6254 76.1635 44.6254 75.2749V45.6594L43.963 46.3218C39.536 50.765 37.0478 51.896 33.768 52.5584C32.6532 52.7846 31.6999 52.9785 28.5332 56.1452C27.6122 57.0661 26.4005 57.567 25.1079 57.567C23.8154 57.567 22.5875 57.0661 21.6827 56.1452L18.6129 53.0754C16.7225 51.185 16.7225 48.1153 18.6129 46.2249C21.7796 43.0582 21.9735 42.0888 22.1997 40.9901C22.6198 38.8736 23.2661 37.0801 24.8656 34.8828H2.61764V34.8828Z" fill="#67295D" stroke="#33142E" stroke-width="2" stroke-miterlimit="10"/>
</g>
<defs>
<clipPath id="clip0_321_590">
<rect width="75" height="77.9082" fill="white"/>
</clipPath>
</defs>
</svg>
