<svg width="75" height="75" viewBox="0 0 75 75" fill="none" xmlns="http://www.w3.org/2000/svg">
<g clip-path="url(#clip0_52_196)">
<path d="M70.3457 29.6162H64.0957C63.5448 27.7735 62.8229 25.9878 61.8731 24.2781L66.2994 19.8518C67.3822 18.769 67.3822 17.0212 66.2994 15.9384L59.0615 8.70057C57.9787 7.61774 56.231 7.61774 55.1481 8.70057L50.7218 13.1269C49.0121 12.196 47.2074 11.4551 45.3647 10.9042V4.65422C45.3647 3.13446 44.1299 1.89966 42.6101 1.89966H32.3898C30.87 1.89966 29.6162 3.13446 29.6162 4.65422V10.9042C27.7735 11.4551 25.9878 12.177 24.2781 13.1269L19.8518 8.70057C18.769 7.61774 17.0212 7.61774 15.9384 8.70057L8.70057 15.9384C7.61774 17.0212 7.61774 18.769 8.70057 19.8518L13.1269 24.2781C12.12 26.1398 11.3411 28.0965 10.7712 30.1101H4.65422C3.13446 30.1101 1.89966 31.3449 1.89966 32.8647V43.1041C1.89966 44.6238 3.13446 45.8586 4.65422 45.8586H11.0562C11.5691 47.5304 12.272 49.1641 13.1269 50.7218L8.70057 55.1481C7.61774 56.231 7.61774 57.9787 8.70057 59.0615L15.9384 66.2994C17.0212 67.3822 18.769 67.3822 19.8518 66.2994L24.2781 61.8731C25.9878 62.8039 27.7735 63.5448 29.6162 64.0957V70.3457C29.6162 71.8655 30.851 73.1193 32.3898 73.1193H42.6101C44.1299 73.1193 45.3647 71.8845 45.3647 70.3457V64.0957C47.2074 63.5448 48.9931 62.8229 50.7218 61.8731L55.1481 66.2994C56.231 67.3822 57.9787 67.3822 59.0615 66.2994L66.2994 59.0615C67.3822 57.9787 67.3822 56.231 66.2994 55.1481L61.8731 50.7218C62.8039 49.0121 63.5448 47.2074 64.0957 45.3647H70.3457C71.8655 45.3647 73.1193 44.1299 73.1193 42.6101V32.3898C73.1193 30.87 71.8845 29.6162 70.3457 29.6162V29.6162ZM37.519 53.4194C28.7234 53.4194 21.5995 46.2956 21.5995 37.5C21.5995 28.7044 28.7234 21.5805 37.519 21.5805C46.3146 21.5805 53.4384 28.7044 53.4384 37.5C53.4384 46.2956 46.3146 53.4194 37.519 53.4194Z" fill="#2F5EBF" stroke="#133989" stroke-width="3" stroke-miterlimit="10"/>
</g>
<defs>
<clipPath id="clip0_52_196">
<rect width="75" height="75" fill="white"/>
</clipPath>
</defs>
</svg>
