<svg width="75" height="76" viewBox="0 0 75 76" fill="none" xmlns="http://www.w3.org/2000/svg">
<g clip-path="url(#clip0_441_4)">
<path fill-rule="evenodd" clip-rule="evenodd" d="M72.8532 54.7294C71.6688 53.9151 71.0766 53.2612 70.8916 52.5209C71.0643 50.8554 71.052 49.1651 70.8299 47.4749C70.9656 46.6976 71.5578 46.0314 72.7545 45.1801C74.235 44.1437 73.4084 43.0951 73.4084 43.0951L73.137 42.4535L71.5701 38.7769L71.2987 38.1354C71.2987 38.1354 71.126 36.7906 69.337 37.1484C67.7948 37.4321 66.9065 37.3828 66.2156 36.8523C65.2286 35.6432 64.1183 34.5451 62.9092 33.6198C62.3416 32.9289 62.2429 32.0406 62.5144 30.4491C62.8228 28.6725 61.4904 28.4997 61.4904 28.4997L60.8365 28.2283L57.1352 26.7231L56.4813 26.4517C56.4813 26.4517 55.4203 25.6498 54.3963 27.1426C53.4339 28.5614 52.706 29.1289 51.7313 29.1536C50.3866 29.0302 49.0171 29.0549 47.6476 29.1906C46.6606 29.2153 45.9204 28.6601 44.9087 27.229C43.8723 25.7485 42.8236 26.5751 42.8236 26.5751L42.1821 26.8465L38.5055 28.4134L37.8639 28.6848C37.8639 28.6848 36.5191 28.8575 36.8769 30.6465C37.1854 32.3367 37.0867 33.2744 36.3834 33.9776C35.2977 34.8782 34.3477 35.8652 33.4841 36.9386C32.7809 37.6172 31.8679 37.7406 30.1776 37.4568C28.401 37.1484 28.2283 38.4931 28.2283 38.4931L27.9569 39.1347L26.4517 42.8483L26.1803 43.4899C26.1803 43.4899 25.3783 44.5509 26.8712 45.5749C28.2036 46.5002 28.7958 47.1788 28.8822 48.0671C28.7218 49.5969 28.7465 51.1391 28.9192 52.6937C28.8205 53.545 28.2283 54.2235 26.9575 55.1242C25.477 56.1605 26.3036 57.2092 26.3036 57.2092L26.5751 57.8631L28.1419 61.5274L28.4134 62.1689C28.4134 62.1689 28.5861 63.5137 30.375 63.1559C31.8185 62.8845 32.7068 62.9215 33.3731 63.3533C34.4341 64.6981 35.6308 65.8578 36.951 66.8819C37.3828 67.5358 37.4321 68.4241 37.1854 69.8429C36.8769 71.6195 38.2217 71.7922 38.2217 71.7922L38.8633 72.0636L42.5769 73.5565L43.2184 73.8279C43.2184 73.8279 44.2795 74.6422 45.3035 73.1493C46.0807 72.002 46.71 71.3974 47.4379 71.2C49.1651 71.4097 50.9294 71.3974 52.6937 71.163C53.4216 71.3604 54.0508 71.9526 54.8404 73.0753C55.8891 74.5435 56.9255 73.7169 56.9255 73.7169L57.5793 73.4454L61.2436 71.8909L61.8975 71.6071C61.8975 71.6071 63.2299 71.4344 62.8845 69.6455C62.6254 68.2883 62.6501 67.4371 63.0079 66.7832C64.3897 65.6604 65.6234 64.402 66.6721 63.0202C67.326 62.6501 68.1896 62.6131 69.5468 62.8475C71.3234 63.1559 71.4961 61.8235 71.4961 61.8235L71.7675 61.1696L73.2727 57.4683L73.5441 56.8144C73.5441 56.8144 74.3461 55.7534 72.8532 54.7294V54.7294ZM53.2859 58.1592C48.906 60.0098 43.8476 57.9741 41.96 53.5943C40.097 49.2145 42.1327 44.1561 46.5126 42.2684C50.9047 40.4055 55.9508 42.4412 57.8508 46.821C59.7014 51.2132 57.6657 56.2592 53.2859 58.1592V58.1592Z" fill="#7BB8DD" stroke="#2F5B79" stroke-width="3" stroke-miterlimit="10"/>
<path fill-rule="evenodd" clip-rule="evenodd" d="M32.6205 29.0549C32.09 28.1543 31.9049 27.5498 32.0159 27.0069C32.6452 25.9706 33.151 24.8602 33.5335 23.6881C33.8666 23.2193 34.4588 22.9725 35.4951 22.7751C36.7782 22.553 36.5685 21.6154 36.5685 21.6154L36.5932 21.1096L36.6919 18.2226L36.7166 17.7167C36.7166 17.7167 37.0127 16.7914 35.7419 16.4706C34.6438 16.1869 34.0763 15.8784 33.7926 15.3232C33.5211 14.2252 33.1263 13.1642 32.6205 12.1895C32.4601 11.5603 32.6698 10.9434 33.3361 9.99342C34.0763 8.92005 33.262 8.40187 33.262 8.40187L32.9166 8.03175L30.9549 5.90969L30.6095 5.53956C30.6095 5.53956 30.1653 4.68827 29.0303 5.3545C27.9569 5.98371 27.3153 6.1441 26.6614 5.848C25.8225 5.3545 24.9219 4.94736 23.9719 4.61424C23.318 4.33048 23.0095 3.73828 22.7875 2.49218C22.5654 1.20908 21.6277 1.41882 21.6277 1.41882L21.1219 1.39414L18.2349 1.29544L17.7291 1.27077C17.7291 1.27077 16.8037 0.974664 16.483 2.24543C16.1745 3.44218 15.8167 4.03438 15.1382 4.28113C14.1512 4.54022 13.2258 4.88567 12.3252 5.32982C11.659 5.5519 11.0174 5.3545 10.0057 4.65126C8.93238 3.911 8.4142 4.73762 8.4142 4.73762L8.04407 5.07073L5.92202 7.04474L5.55189 7.37786C5.55189 7.37786 4.7006 7.82201 5.36683 8.95706C5.95903 9.96874 6.13175 10.598 5.92202 11.2025C5.34215 12.1525 4.88566 13.1765 4.52787 14.2375C4.19476 14.7557 3.61489 15.0271 2.50451 15.2245C1.22141 15.4466 1.43114 16.3843 1.43114 16.3843L1.40647 16.8901L1.30777 19.7771L1.28309 20.2829C1.28309 20.2829 0.986993 21.2083 2.25776 21.529C3.28178 21.8005 3.84931 22.0966 4.15774 22.5777C4.44151 23.7745 4.86099 24.9095 5.41618 25.9829C5.50254 26.5381 5.25579 27.1303 4.66358 27.9939C3.92333 29.0673 4.74995 29.5855 4.74995 29.5855L5.08306 29.9556L7.05707 32.0776L7.39018 32.4478C7.39018 32.4478 7.83434 33.3114 8.95705 32.6452C9.82068 32.127 10.4129 31.9296 10.9557 32.0283C12.0168 32.6945 13.1765 33.2374 14.4103 33.6198C14.8174 33.9653 15.0518 34.5575 15.2245 35.5322C15.4589 36.8153 16.3966 36.5932 16.3966 36.5932L16.9024 36.6179L19.7894 36.7289H20.3076C20.3076 36.7289 21.2329 37.0373 21.5537 35.7666C21.8004 34.8042 22.0842 34.2491 22.516 33.9283C23.7621 33.6198 24.9589 33.1757 26.0692 32.5958C26.6121 32.5465 27.1796 32.7932 28.0062 33.3607C29.0796 34.101 29.5978 33.2867 29.5978 33.2867L29.9679 32.9413L32.09 30.9796L32.4601 30.6341C32.4601 30.6341 33.3114 30.19 32.6452 29.0549H32.6205ZM18.7654 25.2796C15.3356 25.1439 12.646 22.2569 12.757 18.8148C12.8804 15.3726 15.7674 12.6953 19.2219 12.8064C22.6641 12.9421 25.3413 15.8167 25.2426 19.2713C25.1069 22.7134 22.2199 25.3907 18.7654 25.2796Z" fill="#7BB8DD" stroke="#2F5B79" stroke-width="3" stroke-miterlimit="10"/>
</g>
<defs>
<clipPath id="clip0_441_4">
<rect width="75" height="75.2714" fill="white"/>
</clipPath>
</defs>
</svg>
