<svg width="75" height="75" viewBox="0 0 75 75" fill="none" xmlns="http://www.w3.org/2000/svg">
<g clip-path="url(#clip0_321_595)">
<path d="M70.3455 29.616H64.0955C63.5446 27.7733 62.8227 25.9876 61.8728 24.2778L66.2991 19.8515C67.3819 18.7687 67.3819 17.021 66.2991 15.9382L59.0613 8.70033C57.9784 7.6175 56.2307 7.6175 55.1479 8.70033L50.7216 13.1266C49.0119 12.1958 47.2072 11.4549 45.3645 10.904V4.65397C45.3645 3.13422 44.1297 1.89941 42.6099 1.89941H32.3895C30.8698 1.89941 29.616 3.13422 29.616 4.65397V10.904C27.7733 11.4549 25.9876 12.1768 24.2778 13.1266L19.8515 8.70033C18.7687 7.6175 17.021 7.6175 15.9382 8.70033L8.70033 15.9382C7.6175 17.021 7.6175 18.7687 8.70033 19.8515L13.1266 24.2778C12.1198 26.1395 11.3409 28.0962 10.771 30.1099H4.65397C3.13422 30.1099 1.89941 31.3447 1.89941 32.8645V43.1038C1.89941 44.6236 3.13422 45.8584 4.65397 45.8584H11.0559C11.5689 47.5301 12.2718 49.1639 13.1266 50.7216L8.70033 55.1479C7.6175 56.2307 7.6175 57.9784 8.70033 59.0613L15.9382 66.2991C17.021 67.3819 18.7687 67.3819 19.8515 66.2991L24.2778 61.8728C25.9876 62.8037 27.7733 63.5446 29.616 64.0955V70.3455C29.616 71.8652 30.8508 73.119 32.3895 73.119H42.6099C44.1297 73.119 45.3645 71.8842 45.3645 70.3455V64.0955C47.2072 63.5446 48.9929 62.8227 50.7216 61.8728L55.1479 66.2991C56.2307 67.3819 57.9784 67.3819 59.0613 66.2991L66.2991 59.0613C67.3819 57.9784 67.3819 56.2307 66.2991 55.1479L61.8728 50.7216C62.8037 49.0119 63.5446 47.2072 64.0955 45.3645H70.3455C71.8652 45.3645 73.119 44.1297 73.119 42.6099V32.3895C73.119 30.8698 71.8842 29.616 70.3455 29.616V29.616ZM37.5187 53.4192C28.7231 53.4192 21.5993 46.2953 21.5993 37.4997C21.5993 28.7041 28.7231 21.5803 37.5187 21.5803C46.3143 21.5803 53.4382 28.7041 53.4382 37.4997C53.4382 46.2953 46.3143 53.4192 37.5187 53.4192Z" fill="#67295D" stroke="#33142E" stroke-width="3" stroke-miterlimit="10"/>
</g>
<defs>
<clipPath id="clip0_321_595">
<rect width="75" height="75" fill="white"/>
</clipPath>
</defs>
</svg>
