<?xml version="1.0" encoding="UTF-8"?><svg id="Layer_1" xmlns="http://www.w3.org/2000/svg" viewBox="0 0 39.48 39.48"><defs><style>.cls-1{fill:#ff40c9;stroke:#c30084;stroke-miterlimit:10;stroke-width:2px;}</style></defs><path class="cls-1" d="M37.03,15.59h-3.29c-.29-.97-.67-1.91-1.17-2.81l2.33-2.33c.57-.57,.57-1.49,0-2.06l-3.81-3.81c-.57-.57-1.49-.57-2.06,0l-2.33,2.33c-.9-.49-1.85-.88-2.82-1.17V2.45c0-.8-.65-1.45-1.45-1.45h-5.38c-.8,0-1.46,.65-1.46,1.45v3.29c-.97,.29-1.91,.67-2.81,1.17l-2.33-2.33c-.57-.57-1.49-.57-2.06,0l-3.81,3.81c-.57,.57-.57,1.49,0,2.06l2.33,2.33c-.53,.98-.94,2.01-1.24,3.07H2.45c-.8,0-1.45,.65-1.45,1.45v5.39c0,.8,.65,1.45,1.45,1.45h3.37c.27,.88,.64,1.74,1.09,2.56l-2.33,2.33c-.57,.57-.57,1.49,0,2.06l3.81,3.81c.57,.57,1.49,.57,2.06,0l2.33-2.33c.9,.49,1.84,.88,2.81,1.17v3.29c0,.8,.65,1.46,1.46,1.46h5.38c.8,0,1.45-.65,1.45-1.46v-3.29c.97-.29,1.91-.67,2.82-1.17l2.33,2.33c.57,.57,1.49,.57,2.06,0l3.81-3.81c.57-.57,.57-1.49,0-2.06l-2.33-2.33c.49-.9,.88-1.85,1.17-2.82h3.29c.8,0,1.46-.65,1.46-1.45v-5.38c0-.8-.65-1.46-1.46-1.46Zm-17.28,12.53c-4.63,0-8.38-3.75-8.38-8.38s3.75-8.38,8.38-8.38,8.38,3.75,8.38,8.38-3.75,8.38-8.38,8.38Z"/></svg>