<svg width="75" height="75" viewBox="0 0 75 75" fill="none" xmlns="http://www.w3.org/2000/svg">
<g clip-path="url(#clip0_441_78)">
<path d="M70.3457 29.6162H64.0958C63.5448 27.7735 62.823 25.9878 61.8731 24.2781L66.2994 19.8518C67.3822 18.769 67.3822 17.0212 66.2994 15.9384L59.0616 8.70057C57.9787 7.61774 56.231 7.61774 55.1482 8.70057L50.7219 13.1269C49.0122 12.196 47.2074 11.4551 45.3647 10.9042V4.65422C45.3647 3.13446 44.1299 1.89966 42.6102 1.89966H32.3898C30.8701 1.89966 29.6163 3.13446 29.6163 4.65422V10.9042C27.7736 11.4551 25.9878 12.177 24.2781 13.1269L19.8518 8.70057C18.769 7.61774 17.0213 7.61774 15.9385 8.70057L8.70061 15.9384C7.61778 17.0212 7.61778 18.769 8.70061 19.8518L13.1269 24.2781C12.1201 26.1398 11.3412 28.0965 10.7713 30.1101H4.65426C3.1345 30.1101 1.8997 31.3449 1.8997 32.8647V43.1041C1.8997 44.6238 3.1345 45.8586 4.65426 45.8586H11.0562C11.5691 47.5304 12.272 49.1641 13.1269 50.7218L8.70061 55.1481C7.61778 56.231 7.61778 57.9787 8.70061 59.0615L15.9385 66.2994C17.0213 67.3822 18.769 67.3822 19.8518 66.2994L24.2781 61.8731C25.9878 62.8039 27.7736 63.5448 29.6163 64.0957V70.3457C29.6163 71.8655 30.8511 73.1193 32.3898 73.1193H42.6102C44.1299 73.1193 45.3647 71.8845 45.3647 70.3457V64.0957C47.2074 63.5448 48.9932 62.8229 50.7219 61.8731L55.1482 66.2994C56.231 67.3822 57.9787 67.3822 59.0616 66.2994L66.2994 59.0615C67.3822 57.9787 67.3822 56.231 66.2994 55.1481L61.8731 50.7218C62.804 49.0121 63.5448 47.2074 64.0958 45.3647H70.3457C71.8655 45.3647 73.1193 44.1299 73.1193 42.6101V32.3898C73.1193 30.87 71.8845 29.6162 70.3457 29.6162V29.6162ZM37.519 53.4194C28.7234 53.4194 21.5995 46.2956 21.5995 37.5C21.5995 28.7044 28.7234 21.5805 37.519 21.5805C46.3146 21.5805 53.4385 28.7044 53.4385 37.5C53.4385 46.2956 46.3146 53.4194 37.519 53.4194Z" fill="#4B8CB8" stroke="#2F5B79" stroke-width="3" stroke-miterlimit="10"/>
</g>
<defs>
<clipPath id="clip0_441_78">
<rect width="75" height="75" fill="white"/>
</clipPath>
</defs>
</svg>
