<svg width="75" height="76" viewBox="0 0 75 76" fill="none" xmlns="http://www.w3.org/2000/svg">
<g clip-path="url(#clip0_52_122)">
<path fill-rule="evenodd" clip-rule="evenodd" d="M72.8532 54.7296C71.6688 53.9153 71.0766 53.2614 70.8915 52.5212C71.0642 50.8556 71.0519 49.1654 70.8298 47.4751C70.9655 46.6979 71.5577 46.0316 72.7545 45.1803C74.235 44.144 73.4084 43.0953 73.4084 43.0953L73.1369 42.4537L71.5701 38.7772L71.2986 38.1356C71.2986 38.1356 71.1259 36.7908 69.337 37.1486C67.7948 37.4324 66.9065 37.383 66.2156 36.8525C65.2286 35.6434 64.1182 34.5454 62.9091 33.6201C62.3416 32.9292 62.2429 32.0408 62.5143 30.4493C62.8227 28.6727 61.4903 28.5 61.4903 28.5L60.8364 28.2285L57.1351 26.7234L56.4812 26.4519C56.4812 26.4519 55.4202 25.65 54.3962 27.1428C53.4339 28.5617 52.706 29.1292 51.7313 29.1539C50.3865 29.0305 49.017 29.0552 47.6476 29.1909C46.6605 29.2155 45.9203 28.6604 44.9086 27.2292C43.8723 25.7487 42.8236 26.5753 42.8236 26.5753L42.182 26.8467L38.5054 28.4136L37.8639 28.685C37.8639 28.685 36.5191 28.8578 36.8769 30.6467C37.1853 32.337 37.0866 33.2746 36.3834 33.9778C35.2977 34.8785 34.3477 35.8655 33.484 36.9389C32.7808 37.6174 31.8678 37.7408 30.1776 37.457C28.401 37.1486 28.2282 38.4934 28.2282 38.4934L27.9568 39.1349L26.4516 42.8485L26.1802 43.4901C26.1802 43.4901 25.3783 44.5511 26.8711 45.5751C28.2036 46.5005 28.7958 47.179 28.8821 48.0673C28.7217 49.5972 28.7464 51.1394 28.9191 52.6939C28.8204 53.5452 28.2282 54.2238 26.9575 55.1244C25.477 56.1608 26.3036 57.2095 26.3036 57.2095L26.575 57.8634L28.1419 61.5276L28.4133 62.1692C28.4133 62.1692 28.586 63.514 30.375 63.1562C31.8185 62.8847 32.7068 62.9217 33.373 63.3536C34.434 64.6984 35.6308 65.8581 36.9509 66.8821C37.3827 67.536 37.4321 68.4243 37.1853 69.8431C36.8769 71.6197 38.2217 71.7925 38.2217 71.7925L38.8632 72.0639L42.5768 73.5567L43.2184 73.8282C43.2184 73.8282 44.2794 74.6424 45.3034 73.1496C46.0807 72.0022 46.7099 71.3977 47.4378 71.2003C49.1651 71.41 50.9293 71.3977 52.6936 71.1632C53.4215 71.3606 54.0507 71.9528 54.8403 73.0756C55.889 74.5437 56.9254 73.7171 56.9254 73.7171L57.5793 73.4457L61.2435 71.8912L61.8974 71.6074C61.8974 71.6074 63.2299 71.4347 62.8844 69.6457C62.6253 68.2886 62.65 67.4373 63.0078 66.7834C64.3896 65.6607 65.6234 64.4023 66.6721 63.0205C67.326 62.6503 68.1896 62.6133 69.5467 62.8477C71.3233 63.1562 71.496 61.8237 71.496 61.8237L71.7675 61.1698L73.2727 57.4686L73.5441 56.8147C73.5441 56.8147 74.346 55.7536 72.8532 54.7296V54.7296ZM53.2858 58.1595C48.906 60.0101 43.8476 57.9744 41.9599 53.5946C40.097 49.2147 42.1327 44.1563 46.5125 42.2687C50.9047 40.4057 55.9507 42.4414 57.8507 46.8212C59.7013 51.2134 57.6656 56.2595 53.2858 58.1595V58.1595Z" fill="#4677DE" stroke="#133989" stroke-width="3" stroke-miterlimit="10"/>
<path fill-rule="evenodd" clip-rule="evenodd" d="M32.6205 29.0551C32.09 28.1544 31.9049 27.5499 32.0159 27.007C32.6452 25.9707 33.151 24.8603 33.5335 23.6882C33.8666 23.2194 34.4588 22.9726 35.4951 22.7752C36.7782 22.5532 36.5685 21.6155 36.5685 21.6155L36.5932 21.1097L36.6919 18.2227L36.7166 17.7168C36.7166 17.7168 37.0127 16.7915 35.7419 16.4708C34.6438 16.187 34.0763 15.8786 33.7926 15.3234C33.5211 14.2253 33.1263 13.1643 32.6205 12.1896C32.4601 11.5604 32.6698 10.9435 33.3361 9.99354C34.0763 8.92017 33.262 8.40199 33.262 8.40199L32.9166 8.03187L30.9549 5.90981L30.6095 5.53968C30.6095 5.53968 30.1653 4.68839 29.0303 5.35462C27.9569 5.98383 27.3153 6.14422 26.6614 5.84812C25.8225 5.35462 24.9219 4.94748 23.9719 4.61436C23.318 4.3306 23.0095 3.7384 22.7875 2.49231C22.5654 1.2092 21.6277 1.41894 21.6277 1.41894L21.1219 1.39426L18.2349 1.29556L17.7291 1.27089C17.7291 1.27089 16.8037 0.974786 16.483 2.24555C16.1745 3.4423 15.8167 4.0345 15.1382 4.28125C14.1512 4.54034 13.2258 4.88579 12.3252 5.32994C11.659 5.55202 11.0174 5.35462 10.0057 4.65138C8.93238 3.91112 8.4142 4.73774 8.4142 4.73774L8.04407 5.07085L5.92202 7.04486L5.55189 7.37798C5.55189 7.37798 4.7006 7.82213 5.36683 8.95719C5.95903 9.96886 6.13175 10.5981 5.92202 11.2026C5.34215 12.1526 4.88566 13.1766 4.52787 14.2377C4.19476 14.7558 3.61489 15.0273 2.50451 15.2247C1.22141 15.4467 1.43114 16.3844 1.43114 16.3844L1.40647 16.8902L1.30777 19.7772L1.28309 20.2831C1.28309 20.2831 0.986993 21.2084 2.25776 21.5292C3.28178 21.8006 3.84931 22.0967 4.15774 22.5778C4.44151 23.7746 4.86099 24.9096 5.41618 25.983C5.50254 26.5382 5.25579 27.1304 4.66358 27.994C3.92333 29.0674 4.74995 29.5856 4.74995 29.5856L5.08306 29.9557L7.05707 32.0778L7.39018 32.4479C7.39018 32.4479 7.83434 33.3115 8.95705 32.6453C9.82068 32.1271 10.4129 31.9297 10.9557 32.0284C12.0168 32.6946 13.1765 33.2375 14.4103 33.62C14.8174 33.9654 15.0518 34.5576 15.2245 35.5323C15.4589 36.8154 16.3966 36.5933 16.3966 36.5933L16.9024 36.618L19.7894 36.729H20.3076C20.3076 36.729 21.2329 37.0375 21.5537 35.7667C21.8004 34.8044 22.0842 34.2492 22.516 33.9284C23.7621 33.62 24.9589 33.1758 26.0692 32.5959C26.6121 32.5466 27.1796 32.7933 28.0062 33.3609C29.0796 34.1011 29.5978 33.2868 29.5978 33.2868L29.9679 32.9414L32.09 30.9797L32.4601 30.6343C32.4601 30.6343 33.3114 30.1901 32.6452 29.0551H32.6205ZM18.7654 25.2798C15.3356 25.1441 12.646 22.2571 12.757 18.8149C12.8804 15.3727 15.7674 12.6955 19.2219 12.8065C22.6641 12.9422 25.3413 15.8169 25.2426 19.2714C25.1069 22.7136 22.2199 25.3908 18.7654 25.2798Z" fill="#4677DE" stroke="#133989" stroke-width="3" stroke-miterlimit="10"/>
</g>
<defs>
<clipPath id="clip0_52_122">
<rect width="75" height="75.2714" fill="white"/>
</clipPath>
</defs>
</svg>
