<?xml version="1.0" encoding="UTF-8"?><svg xmlns="http://www.w3.org/2000/svg" viewBox="0 0 60.79 61.01"><defs><style>.cls-1{fill:#ff70cd;fill-rule:evenodd;stroke:#c30084;stroke-miterlimit:10;stroke-width:2px;}</style></defs><g id="Layer_1" image-rendering="optimizeQuality" shape-rendering="geometricPrecision" text-rendering="geometricPrecision"><path class="cls-1" d="M59.05,44.36c-.96-.66-1.44-1.19-1.59-1.79,.14-1.35,.13-2.72-.05-4.09,.11-.63,.59-1.17,1.56-1.86,1.2-.84,.53-1.69,.53-1.69l-.22-.52-1.27-2.98-.22-.52s-.14-1.09-1.59-.8c-1.25,.23-1.97,.19-2.53-.24-.8-.98-1.7-1.87-2.68-2.62-.46-.56-.54-1.28-.32-2.57,.25-1.44-.83-1.58-.83-1.58l-.53-.22-3-1.22-.53-.22s-.86-.65-1.69,.56c-.78,1.15-1.37,1.61-2.16,1.63-1.09-.1-2.2-.08-3.31,.03-.8,.02-1.4-.43-2.22-1.59-.84-1.2-1.69-.53-1.69-.53l-.52,.22-2.98,1.27-.52,.22s-1.09,.14-.8,1.59c.25,1.37,.17,2.13-.4,2.7-.88,.73-1.65,1.53-2.35,2.4-.57,.55-1.31,.65-2.68,.42-1.44-.25-1.58,.84-1.58,.84l-.22,.52-1.22,3.01-.22,.52s-.65,.86,.56,1.69c1.08,.75,1.56,1.3,1.63,2.02-.13,1.24-.11,2.49,.03,3.75-.08,.69-.56,1.24-1.59,1.97-1.2,.84-.53,1.69-.53,1.69l.22,.53,1.27,2.97,.22,.52s.14,1.09,1.59,.8c1.17-.22,1.89-.19,2.43,.16,.86,1.09,1.83,2.03,2.9,2.86,.35,.53,.39,1.25,.19,2.4-.25,1.44,.84,1.58,.84,1.58l.52,.22,3.01,1.21,.52,.22s.86,.66,1.69-.55c.63-.93,1.14-1.42,1.73-1.58,1.4,.17,2.83,.16,4.26-.03,.59,.16,1.1,.64,1.74,1.55,.85,1.19,1.69,.52,1.69,.52l.53-.22,2.97-1.26,.53-.23s1.08-.14,.8-1.59c-.21-1.1-.19-1.79,.1-2.32,1.12-.91,2.12-1.93,2.97-3.05,.53-.3,1.23-.33,2.33-.14,1.44,.25,1.58-.83,1.58-.83l.22-.53,1.22-3,.22-.53s.65-.86-.56-1.69Zm-15.86,2.78c-3.55,1.5-7.65-.15-9.18-3.7-1.51-3.55,.14-7.65,3.69-9.18,3.56-1.51,7.65,.14,9.19,3.69,1.5,3.56-.15,7.65-3.7,9.19Z"/><path class="cls-1" d="M26.44,23.55c-.43-.73-.58-1.22-.49-1.66,.51-.84,.92-1.74,1.23-2.69,.27-.38,.75-.58,1.59-.74,1.04-.18,.87-.94,.87-.94l.02-.41,.08-2.34,.02-.41s.24-.75-.79-1.01c-.89-.23-1.35-.48-1.58-.93-.22-.89-.54-1.75-.95-2.54-.13-.51,.04-1.01,.58-1.78,.6-.87-.06-1.29-.06-1.29l-.28-.3-1.59-1.72-.28-.3s-.36-.69-1.28-.15c-.87,.51-1.39,.64-1.92,.4-.68-.4-1.41-.73-2.18-1-.53-.23-.78-.71-.96-1.72-.18-1.04-.94-.87-.94-.87l-.41-.02-2.34-.08-.41-.02s-.75-.24-1.01,.79c-.25,.97-.54,1.45-1.09,1.65-.8,.21-1.55,.49-2.28,.85-.54,.18-1.06,.02-1.88-.55-.87-.6-1.29,.07-1.29,.07l-.3,.27-1.72,1.6-.3,.27s-.69,.36-.15,1.28c.48,.82,.62,1.33,.45,1.82-.47,.77-.84,1.6-1.13,2.46-.27,.42-.74,.64-1.64,.8-1.04,.18-.87,.94-.87,.94l-.02,.41-.08,2.34-.02,.41s-.24,.75,.79,1.01c.83,.22,1.29,.46,1.54,.85,.23,.97,.57,1.89,1.02,2.76,.07,.45-.13,.93-.61,1.63-.6,.87,.07,1.29,.07,1.29l.27,.3,1.6,1.72,.27,.3s.36,.7,1.27,.16c.7-.42,1.18-.58,1.62-.5,.86,.54,1.8,.98,2.8,1.29,.33,.28,.52,.76,.66,1.55,.19,1.04,.95,.86,.95,.86l.41,.02,2.34,.09h.42s.75,.25,1.01-.78c.2-.78,.43-1.23,.78-1.49,1.01-.25,1.98-.61,2.88-1.08,.44-.04,.9,.16,1.57,.62,.87,.6,1.29-.06,1.29-.06l.3-.28,1.72-1.59,.3-.28s.69-.36,.15-1.28Zm-11.23-3.06c-2.78-.11-4.96-2.45-4.87-5.24,.1-2.79,2.44-4.96,5.24-4.87,2.79,.11,4.96,2.44,4.88,5.24-.11,2.79-2.45,4.96-5.25,4.87Z"/></g></svg>