<svg width="75" height="76" viewBox="0 0 75 76" fill="none" xmlns="http://www.w3.org/2000/svg">
<g clip-path="url(#clip0_321_521)">
<path fill-rule="evenodd" clip-rule="evenodd" d="M72.8529 54.7301C71.6685 53.9158 71.0763 53.2619 70.8913 52.5217C71.064 50.8561 71.0516 49.1659 70.8296 47.4756C70.9653 46.6984 71.5575 46.0321 72.7542 45.1808C74.2347 44.1445 73.4081 43.0958 73.4081 43.0958L73.1367 42.4542L71.5698 38.7776L71.2984 38.1361C71.2984 38.1361 71.1257 36.7913 69.3367 37.1491C67.7945 37.4328 66.9062 37.3835 66.2153 36.853C65.2283 35.6439 64.1179 34.5459 62.9089 33.6205C62.3413 32.9296 62.2426 32.0413 62.5141 30.4498C62.8225 28.6732 61.49 28.5005 61.49 28.5005L60.8362 28.229L57.1349 26.7239L56.481 26.4524C56.481 26.4524 55.42 25.6505 54.396 27.1433C53.4336 28.5621 52.7057 29.1297 51.731 29.1543C50.3862 29.031 49.0168 29.0556 47.6473 29.1914C46.6603 29.216 45.9201 28.6608 44.9084 27.2297C43.872 25.7492 42.8233 26.5758 42.8233 26.5758L42.1818 26.8472L38.5052 28.4141L37.8636 28.6855C37.8636 28.6855 36.5188 28.8582 36.8766 30.6472C37.1851 32.3374 37.0864 33.2751 36.3831 33.9783C35.2974 34.879 34.3474 35.866 33.4838 36.9393C32.7806 37.6179 31.8676 37.7413 30.1773 37.4575C28.4007 37.1491 28.228 38.4939 28.228 38.4939L27.9566 39.1354L26.4514 42.849L26.18 43.4906C26.18 43.4906 25.378 44.5516 26.8709 45.5756C28.2033 46.501 28.7955 47.1795 28.8819 48.0678C28.7215 49.5977 28.7462 51.1399 28.9189 52.6944C28.8202 53.5457 28.228 54.2243 26.9572 55.1249C25.4767 56.1613 26.3033 57.2099 26.3033 57.2099L26.5748 57.8638L28.1416 61.5281L28.4131 62.1696C28.4131 62.1696 28.5858 63.5144 30.3747 63.1567C31.8182 62.8852 32.7065 62.9222 33.3728 63.3541C34.4338 64.6988 35.6305 65.8586 36.9506 66.8826C37.3825 67.5365 37.4318 68.4248 37.1851 69.8436C36.8766 71.6202 38.2214 71.7929 38.2214 71.7929L38.863 72.0644L42.5766 73.5572L43.2181 73.8286C43.2181 73.8286 44.2792 74.6429 45.3032 73.1501C46.0804 72.0027 46.7097 71.3981 47.4376 71.2007C49.1648 71.4105 50.9291 71.3981 52.6934 71.1637C53.4213 71.3611 54.0505 71.9533 54.8401 73.076C55.8888 74.5442 56.9252 73.7176 56.9252 73.7176L57.579 73.4462L61.2433 71.8916L61.8972 71.6079C61.8972 71.6079 63.2296 71.4352 62.8842 69.6462C62.6251 68.2891 62.6498 67.4378 63.0076 66.7839C64.3894 65.6612 65.6231 64.4027 66.6718 63.0209C67.3257 62.6508 68.1893 62.6138 69.5465 62.8482C71.3231 63.1567 71.4958 61.8242 71.4958 61.8242L71.7672 61.1703L73.2724 57.469L73.5438 56.8151C73.5438 56.8151 74.3458 55.7541 72.8529 54.7301V54.7301ZM53.2856 58.1599C48.9057 60.0106 43.8473 57.9749 41.9597 53.595C40.0967 49.2152 42.1324 44.1568 46.5123 42.2692C50.9044 40.4062 55.9505 42.4419 57.8505 46.8217C59.7011 51.2139 57.6654 56.26 53.2856 58.1599V58.1599Z" fill="#993D8A" stroke="#33142E" stroke-width="3" stroke-miterlimit="10"/>
<path fill-rule="evenodd" clip-rule="evenodd" d="M32.6202 29.0553C32.0897 28.1547 31.9047 27.5501 32.0157 27.0073C32.6449 25.9709 33.1508 24.8605 33.5332 23.6885C33.8663 23.2196 34.4585 22.9729 35.4949 22.7755C36.778 22.5534 36.5683 21.6158 36.5683 21.6158L36.5929 21.1099L36.6916 18.2229L36.7163 17.7171C36.7163 17.7171 37.0124 16.7918 35.7416 16.471C34.6436 16.1872 34.0761 15.8788 33.7923 15.3236C33.5209 14.2256 33.1261 13.1645 32.6202 12.1899C32.4599 11.5607 32.6696 10.9438 33.3358 9.99378C34.0761 8.92042 33.2618 8.40224 33.2618 8.40224L32.9163 8.03211L30.9547 5.91005L30.6092 5.53993C30.6092 5.53993 30.1651 4.68863 29.03 5.35486C27.9566 5.98408 27.3151 6.14447 26.6612 5.84836C25.8222 5.35486 24.9216 4.94772 23.9716 4.61461C23.3177 4.33085 23.0093 3.73864 22.7872 2.49255C22.5651 1.20944 21.6275 1.41918 21.6275 1.41918L21.1216 1.39451L18.2347 1.29581L17.7288 1.27113C17.7288 1.27113 16.8035 0.97503 16.4827 2.2458C16.1743 3.44254 15.8165 4.03474 15.1379 4.2815C14.1509 4.54058 13.2256 4.88604 12.325 5.33019C11.6587 5.55226 11.0172 5.35486 10.0055 4.65162C8.93213 3.91137 8.41396 4.73798 8.41396 4.73798L8.04383 5.0711L5.92177 7.04511L5.55164 7.37822C5.55164 7.37822 4.70035 7.82237 5.36658 8.95743C5.95878 9.96911 6.13151 10.5983 5.92177 11.2029C5.34191 12.1529 4.88542 13.1769 4.52763 14.2379C4.19451 14.7561 3.61465 15.0275 2.50427 15.2249C1.22116 15.447 1.4309 16.3846 1.4309 16.3846L1.40623 16.8905L1.30753 19.7775L1.28285 20.2833C1.28285 20.2833 0.986749 21.2086 2.25752 21.5294C3.28153 21.8008 3.84906 22.0969 4.1575 22.5781C4.44126 23.7748 4.86074 24.9099 5.41593 25.9833C5.50229 26.5384 5.25554 27.1306 4.66334 27.9943C3.92309 29.0676 4.7497 29.5858 4.7497 29.5858L5.08282 29.9559L7.05683 32.078L7.38994 32.4481C7.38994 32.4481 7.83409 33.3118 8.95681 32.6455C9.82044 32.1274 10.4126 31.93 10.9555 32.0287C12.0165 32.6949 13.1763 33.2377 14.41 33.6202C14.8171 33.9657 15.0516 34.5579 15.2243 35.5325C15.4587 36.8156 16.3964 36.5936 16.3964 36.5936L16.9022 36.6182L19.7892 36.7293H20.3074C20.3074 36.7293 21.2327 37.0377 21.5535 35.7669C21.8002 34.8046 22.084 34.2494 22.5158 33.9286C23.7619 33.6202 24.9586 33.1761 26.069 32.5962C26.6119 32.5468 27.1794 32.7936 28.006 33.3611C29.0794 34.1014 29.5975 33.2871 29.5975 33.2871L29.9677 32.9416L32.0897 30.98L32.4599 30.6345C32.4599 30.6345 33.3111 30.1904 32.6449 29.0553H32.6202ZM18.7652 25.28C15.3353 25.1443 12.6457 22.2573 12.7568 18.8151C12.8802 15.373 15.7671 12.6957 19.2217 12.8067C22.6638 12.9425 25.3411 15.8171 25.2424 19.2716C25.1067 22.7138 22.2197 25.3911 18.7652 25.28Z" fill="#993D8A" stroke="#33142E" stroke-width="3" stroke-miterlimit="10"/>
</g>
<defs>
<clipPath id="clip0_321_521">
<rect width="75" height="75.2714" fill="white"/>
</clipPath>
</defs>
</svg>
