<svg xmlns="http://www.w3.org/2000/svg" xmlns:xlink="http://www.w3.org/1999/xlink" width="1024" height="3191" viewBox="0 0 1024 3191">
  <defs>
    <clipPath id="clip-Artboard_3">
      <rect width="1024" height="3191"/>
    </clipPath>
  </defs>
  <g id="Artboard_3" data-name="Artboard – 3" clip-path="url(#clip-Artboard_3)">
    <rect width="1024" height="3191" fill="rgba(255,255,255,0)"/>
    <path id="Path_526" data-name="Path 526" d="M79.215,761.531a74.026,74.026,0,0,1,4.24-10.627c6.839-13.833,18.164-24.9,29.9-34.909,64.933-55.383,149.263-85.348,234.409-85.9,59.874-.387,209.052,17.354,218.88,94.878,9.089,71.689-98.368,125.888-127.189,183.673a175.791,175.791,0,0,0-15.7,108.05c14.4,81.867,86.132,150.162,81.29,233.145-3.159,54.136-39.145,100.889-79.513,137.1-97.208,87.193-224.451,132.722-350.819,165.636q-.312-370.329-.626-740.658c-.014-16.925.1-34.417,5.119-50.388" transform="translate(-183.81 -134.138)" fill="#005b25" opacity="0.211"/>
    <path id="Path_527" data-name="Path 527" d="M586.885,2307.71q-2.445.693-4.9,1.35c-42.243,11.3-86.975,14.768-126.637,33.184a181.264,181.264,0,0,0-92.454,230.493c10.3,26.317,28.55,51.479,55.213,60.851,20.79,7.308,43.836,4.072,65-2.065,36.409-10.558,70.287-29.357,107.426-36.958,51.442-10.529,107.19,2.214,148.949,34.047,36.534,27.85,65.315,70.644,110.37,79.609,36,7.164,73.851-10.975,97.211-39.288s33.992-65.224,37.822-101.729c11.012-104.954-33.009-214.151-113.733-282.123-34.468-29.023-86.467-56.878-133.328-44.915-24.453,6.242-48.571,25.182-71.435,36.265-25.656,12.437-52.045,23.5-79.5,31.279" transform="translate(-70.029 -61.234)" fill="#005b25" opacity="0.211"/>
    <path id="Path_528" data-name="Path 528" d="M1042.9,2497.933c-15.046-1.823-29.972-4.218-44.709-7.394a767.82,767.82,0,0,0-85.492-13.617c-64.326-6.421-138.392-6.741-195.733,27.432-33.473,19.948-54.9,53.3-63.051,91.022-7.621,35.294-9.79,88.136,17.542,115.964,28.771,29.295,77.984,18.962,113.165,9.339,37.455-10.244,73.584-25.158,109.279-40.285,75.394-31.952,150.59-70.339,231-88.139,59.44-13.158,124.811-8.353,147.285,57.571,6.007,17.621,8.509,36.359,9.449,54.886,18.014,354.928,275.209-195.468,275.209-195.468l-147.051-2.206c-69.774,0-139.555-.327-209.311-2.056-51.984-1.288-105.5-.739-157.586-7.049" transform="translate(-118.343 -0.208)" fill="#005b25" opacity="0.211"/>
    <path id="Path_529" data-name="Path 529" d="M66.871,2954.935s383.22-180.036,370.36,0S0,3083.532,0,3083.532Z" transform="translate(-138 -0.208)" fill="#005b25" opacity="0.211"/>
    <path id="Path_530" data-name="Path 530" d="M664.664,1661.542c-75.4-5.014-151.375,14.384-142.585,102.057,4.353,43.422,33.088,80.577,65.125,110.21,42.821,39.609,96.278,79.388,155.374,90.042,71.065,12.811,120.132-39.77,160.271-91.35,6.585-8.461,12.959-17.084,19.253-25.763,9.682-13.356,28.872-33.909,29.563-51.309.621-15.675-15.3-23.314-26.688-30.215-24.891-15.086-49.261-31.049-74.8-45.043-12.349-6.767-24.868-13.228-37.608-19.229-10.077-4.747-27.681-16.517-38.861-16.517-26.941-10.145-67.909-20.147-109.046-22.883" transform="translate(-138 -90.208)" fill="#005b25" opacity="0.211"/>
    <path id="Path_531" data-name="Path 531" d="M1083.606,0S908.714,122.479,785.26,114.763,466.339,0,466.339,0Z" transform="translate(-134.551 -31.208)" fill="#005b25" opacity="0.211"/>
    <path id="Path_532" data-name="Path 532" d="M1162.238,1480.8S814.325,1361.419,762.7,1677.629s399.539,413.009,399.539,413.009Z" transform="translate(-107.882 -78.672)" fill="#005b25" opacity="0.211"/>
    <path id="Path_533" data-name="Path 533" d="M1162.238,731.581S953.9,705.905,951.683,782.933s76.956,59.911,79.095,158.336,131.46,150.065,131.46,150.065Z" transform="translate(-107.882 23.792)" fill="#005b25" opacity="0.211"/>
    <rect id="Rectangle_70" data-name="Rectangle 70" width="1556.844" height="3190.92" transform="translate(-138 -90.208)" fill="none"/>
  </g>
</svg>
