<?xml version="1.0" encoding="UTF-8"?><svg id="Layer_1" xmlns="http://www.w3.org/2000/svg" viewBox="0 0 200 200"><defs><style>.cls-1{fill:#fff;}</style></defs><ellipse class="cls-1" cx="98.33" cy="100" rx="11.68" ry="13.35"/><path class="cls-1" d="M100,2.97C46.41,2.97,2.97,46.41,2.97,100s43.44,97.03,97.03,97.03,97.03-43.44,97.03-97.03S153.59,2.97,100,2.97Zm46.74,102.04c0,10.15-8.25,18.36-18.37,18.36-5.87,0-11.11-2.77-14.48-7.11-3.94,4.37-9.45,7.11-15.56,7.11-11.95,0-21.7-10.48-21.7-23.37s9.75-23.37,21.7-23.37c4.37,0,8.45,1.44,11.85,3.84,.54-2.2,2.47-3.84,4.84-3.84,2.77,0,5.01,2.27,5.01,5.01v23.37c0,4.6,3.74,8.34,8.34,8.34s8.35-3.74,8.35-8.34v-5.01c0-20.23-16.49-36.72-36.72-36.72s-36.72,16.49-36.72,36.72,16.46,36.72,36.72,36.72c4.44,0,8.78-.77,12.92-2.3,2.57-1,5.47,.33,6.44,2.93,.97,2.58-.37,5.45-2.94,6.45-5.24,1.93-10.78,2.94-16.42,2.94-25.77,0-46.74-20.97-46.74-46.74s20.97-46.74,46.74-46.74,46.74,20.97,46.74,46.74v5.01Z"/></svg>