<?xml version="1.0" encoding="UTF-8"?><svg id="Layer_1" xmlns="http://www.w3.org/2000/svg" viewBox="0 0 200 200"><defs><style>.cls-1{fill:#fff;}</style></defs><path class="cls-1" d="M100,2.97C46.41,2.97,2.97,46.41,2.97,100s43.44,97.03,97.03,97.03,97.03-43.44,97.03-97.03S153.59,2.97,100,2.97Zm-30.1,134.16h-16.04v-60.18h16.04v60.18Zm-8.02-72.22c-4.43,0-8.02-3.59-8.02-8.02s3.59-8.02,8.02-8.02,8.02,3.59,8.02,8.02-3.59,8.02-8.02,8.02Zm84.26,72.22h-16.06v-30.08c0-7.74-6.32-14.04-14.04-14.04s-14.04,6.3-14.04,14.04v30.08h-16.06v-60.18h16.06v7.29c4.68-4.5,11.04-7.29,18.06-7.29,14.4,0,26.08,11.68,26.08,26.08v34.1Z"/></svg>