<?xml version="1.0" encoding="UTF-8"?><svg id="Layer_1" xmlns="http://www.w3.org/2000/svg" viewBox="0 0 200 200"><defs><style>.cls-1{fill:#fff;}</style></defs><path class="cls-1" d="M88.77,77.25c-3.77-3.69-3.68-8.91-.46-12.13,1.41-1.42,3.19-2.11,5.02-2.08,2.36,.04,4.81,1.28,6.67,3.74,3.31-4.37,8.47-4.9,11.69-1.66,3.22,3.22,3.31,8.44-.46,12.13-3.46,3.4-11.23,10.41-11.23,10.41,0,0-7.77-7.01-11.23-10.41Z"/><path class="cls-1" d="M115.85,105.28h-31.7c-.96,0-1.76-.79-1.76-1.76s.8-1.76,1.76-1.76h31.7c.96,0,1.76,.79,1.76,1.76s-.8,1.76-1.76,1.76Z"/><path class="cls-1" d="M121.13,98.24h-42.26c-.97,0-1.76-.79-1.76-1.76s.79-1.76,1.76-1.76h42.26c.97,0,1.76,.79,1.76,1.76s-.79,1.76-1.76,1.76Z"/><path class="cls-1" d="M100,2.97C46.41,2.97,2.97,46.41,2.97,100s43.44,97.03,97.03,97.03,97.03-43.44,97.03-97.03S153.59,2.97,100,2.97Zm-31.69,51.25c0-1.93,1.58-3.52,3.52-3.52h56.34c1.94,0,3.52,1.59,3.52,3.52v48.6l-21.13,14.08-6.63-4.43c-1.16-.78-2.52-1.2-3.93-1.2s-2.77,.42-3.91,1.2l-6.65,4.43-21.13-14.08V54.22Zm-10.57,45.78l7.05-4.7v9.39l21.48,14.33-28.53,19.01v-38.03Zm77.47,49.3H64.79c-3.89,0-7.05-3.15-7.05-7.04l40.31-26.87c.59-.4,1.27-.6,1.95-.6s1.36,.2,1.95,.6l40.31,26.87c0,3.89-3.16,7.04-7.05,7.04Zm7.05-11.27l-28.53-19.01,21.48-14.33v-9.39l7.05,4.7v38.03Z"/></svg>