<?xml version="1.0" encoding="UTF-8"?><svg id="Layer_1" xmlns="http://www.w3.org/2000/svg" viewBox="0 0 200 200"><defs><style>.cls-1{fill:#fff;}</style></defs><path class="cls-1" d="M100,2.97C46.41,2.97,2.97,46.41,2.97,100s43.44,97.03,97.03,97.03,97.03-43.44,97.03-97.03S153.59,2.97,100,2.97Zm41.83,75.57c.04,.93,.06,1.86,.06,2.8,0,28.52-21.71,61.41-61.41,61.41-12.19,0-23.53-3.58-33.08-9.7,1.69,.2,3.41,.3,5.15,.3,10.11,0,19.42-3.45,26.8-9.24-9.44-.17-17.41-6.41-20.16-14.99,1.32,.25,2.67,.39,4.06,.39,1.97,0,3.88-.27,5.69-.76-9.88-1.98-17.31-10.7-17.31-21.16v-.27c2.9,1.61,6.23,2.58,9.77,2.7-5.79-3.87-9.6-10.48-9.6-17.97,0-3.96,1.07-7.66,2.92-10.85,10.65,13.06,26.55,21.65,44.49,22.55-.37-1.57-.56-3.22-.56-4.91,0-11.92,9.66-21.59,21.58-21.59,6.21,0,11.82,2.63,15.75,6.82,4.93-.97,9.55-2.77,13.71-5.24-1.61,5.04-5.03,9.27-9.48,11.94,4.36-.52,8.52-1.68,12.39-3.4-2.89,4.33-6.55,8.13-10.77,11.17Z"/></svg>