<?xml version="1.0" encoding="UTF-8"?><svg id="Layer_1" xmlns="http://www.w3.org/2000/svg" viewBox="0 0 200 200"><defs><style>.cls-1{fill:#fff;}</style></defs><path class="cls-1" d="M100,77.41c-12.46,0-22.59,10.13-22.59,22.59s10.13,22.59,22.59,22.59,22.59-10.13,22.59-22.59-10.13-22.59-22.59-22.59Zm0,37.65c-8.32,0-15.06-6.74-15.06-15.06s6.74-15.06,15.06-15.06,15.06,6.74,15.06,15.06-6.74,15.06-15.06,15.06Z"/><path class="cls-1" d="M130.12,73.65c0,2.07-1.69,3.76-3.77,3.76s-3.76-1.69-3.76-3.76,1.69-3.77,3.76-3.77,3.77,1.69,3.77,3.77Z"/><path class="cls-1" d="M100,2.97C46.41,2.97,2.97,46.41,2.97,100s43.44,97.03,97.03,97.03,97.03-43.44,97.03-97.03S153.59,2.97,100,2.97Zm45.18,115.85c0,14.53-11.82,26.36-26.35,26.36h-37.65c-14.53,0-26.36-11.82-26.36-26.35v-37.65c0-14.53,11.82-26.36,26.35-26.36h37.65c14.53,0,26.36,11.82,26.36,26.35v37.65Z"/></svg>