<?xml version="1.0" encoding="utf-8"?>
<!-- Generator: Adobe Illustrator 26.3.1, SVG Export Plug-In . SVG Version: 6.00 Build 0)  -->
<svg version="1.1" id="Layer_1" xmlns="http://www.w3.org/2000/svg" xmlns:xlink="http://www.w3.org/1999/xlink" x="0px" y="0px"
	 viewBox="0 0 160 160" style="enable-background:new 0 0 160 160;" xml:space="preserve">
<style type="text/css">
	.st0{fill:#FF70CD;}
	.st1{fill:#FF00A9;}
	.st2{fill:#FFFFFF;}
	.st3{fill:#C30084;}
</style>
<path class="st0" d="M58,119.3V112c0-7.7-4.7-15-10.1-23.6C41.4,78.1,34,66.4,34,52C34,26.6,54.6,6,80,6s46,20.6,46,46
	c0,14.4-7.4,26.1-13.9,36.4C106.7,97,102,104.3,102,112v7.3H58z"/>
<path class="st1" d="M80,8c24.3,0,44,19.7,44,44c0,13.8-7.2,25.3-13.6,35.3C105,95.8,100,103.8,100,112v5.3H80H60V112
	c0-8.2-5-16.2-10.4-24.7C43.2,77.3,36,65.8,36,52C36,27.7,55.7,8,80,8 M80,4C53.5,4,32,25.5,32,52c0,26.7,24,43.8,24,60v9.3h24h24
	V112c0-16.2,24-33.3,24-60C128,25.5,106.5,4,80,4L80,4z"/>
<path class="st2" d="M90.9,45.3c2,0,3.9,0.8,5.3,2.2c2.9,2.9,2.9,7.7,0,10.6l-7,7L88,66.3V68v48H72V68v-1.7l-1.2-1.2l-7-7
	c-2.9-2.9-2.9-7.7,0-10.6c1.4-1.4,3.3-2.2,5.3-2.2s3.9,0.8,5.3,2.2l2.7,2.7l2.8,2.8l2.8-2.8l2.7-2.7C87,46.1,88.8,45.3,90.9,45.3
	 M90.9,41.3c-2.9,0-5.9,1.1-8.1,3.4L80,47.4l-2.7-2.7c-2.2-2.2-5.2-3.4-8.1-3.4s-5.9,1.1-8.1,3.4c-4.5,4.5-4.5,11.8,0,16.3l7,7v52
	h24V68l7-7c4.5-4.5,4.5-11.8,0-16.3C96.8,42.5,93.8,41.3,90.9,41.3L90.9,41.3z"/>
<path class="st3" d="M80,124c-8.8,0-16,7.2-16,16s7.2,16,16,16s16-7.2,16-16S88.8,124,80,124z"/>
<path class="st1" d="M68,146c-5.5,0-10-4.5-10-10v-22h44v22c0,5.5-4.5,10-10,10H68z"/>
<path class="st3" d="M100,116v20c0,4.4-3.6,8-8,8H68c-4.4,0-8-3.6-8-8v-20H100 M104,112H56v24c0,6.6,5.4,12,12,12h24
	c6.6,0,12-5.4,12-12V112L104,112z"/>
<path class="st3" d="M76,136h26v4H76V136z M58.2,136H68v4h-9.8V136z M76,128h28v4H76V128z M56,128h12v4H56V128z M76,120h28v4H76V120
	z M56,120h12v4H56V120z"/>
</svg>
