<svg width="75" height="75" viewBox="0 0 75 75" fill="none" xmlns="http://www.w3.org/2000/svg">
<path d="M27.1875 55.9219V52.5C27.1875 48.8906 24.9844 45.4688 22.4531 41.4375C19.4063 36.6094 15.9375 31.125 15.9375 24.375C15.9375 12.4688 25.5938 2.8125 37.5 2.8125C49.4062 2.8125 59.0625 12.4688 59.0625 24.375C59.0625 31.125 55.5937 36.6094 52.5469 41.4375C50.0156 45.4688 47.8125 48.8906 47.8125 52.5V55.9219H27.1875Z" fill="#7BB8DD"/>
<path d="M37.5 3.75C48.8906 3.75 58.125 12.9844 58.125 24.375C58.125 30.8438 54.75 36.2344 51.75 40.9219C49.2188 44.9063 46.875 48.6563 46.875 52.5V54.9844H37.5H28.125V52.5C28.125 48.6563 25.7812 44.9063 23.25 40.9219C20.25 36.2344 16.875 30.8438 16.875 24.375C16.875 12.9844 26.1094 3.75 37.5 3.75ZM37.5 1.875C25.0781 1.875 15 11.9531 15 24.375C15 36.8906 26.25 44.9062 26.25 52.5V56.8594H37.5H48.75V52.5C48.75 44.9062 60 36.8906 60 24.375C60 11.9531 49.9219 1.875 37.5 1.875Z" fill="#2F5B79"/>
<path d="M42.6094 21.2344C43.5469 21.2344 44.4375 21.6094 45.0937 22.2656C46.4531 23.625 46.4531 25.875 45.0937 27.2344L41.8125 30.5156L41.25 31.0781V31.875V54.375H33.75V31.875V31.0781L33.1875 30.5156L29.9063 27.2344C28.5469 25.875 28.5469 23.625 29.9063 22.2656C30.5625 21.6094 31.4531 21.2344 32.3906 21.2344C33.3281 21.2344 34.2188 21.6094 34.875 22.2656L36.1406 23.5313L37.4531 24.8438L38.7656 23.5313L40.0313 22.2656C40.7813 21.6094 41.625 21.2344 42.6094 21.2344ZM42.6094 19.3594C41.25 19.3594 39.8438 19.875 38.8125 20.9531L37.5 22.2188L36.2344 20.9531C35.2031 19.9219 33.7969 19.3594 32.4375 19.3594C31.0781 19.3594 29.6719 19.875 28.6406 20.9531C26.5312 23.0625 26.5312 26.4844 28.6406 28.5938L31.9219 31.875V56.25H43.1719V31.875L46.4531 28.5938C48.5625 26.4844 48.5625 23.0625 46.4531 20.9531C45.375 19.9219 43.9688 19.3594 42.6094 19.3594Z" fill="#56A0D3"/>
<path d="M37.5 58.125C33.375 58.125 30 61.5 30 65.625C30 69.75 33.375 73.125 37.5 73.125C41.625 73.125 45 69.75 45 65.625C45 61.5 41.625 58.125 37.5 58.125Z" fill="#2F5B79"/>
<path d="M31.875 68.4375C29.2969 68.4375 27.1875 66.3281 27.1875 63.75V53.4375H47.8125V63.75C47.8125 66.3281 45.7031 68.4375 43.125 68.4375H31.875Z" fill="#2F5B79"/>
<path d="M46.875 54.375V63.75C46.875 65.8125 45.1875 67.5 43.125 67.5H31.875C29.8125 67.5 28.125 65.8125 28.125 63.75V54.375H46.875ZM48.75 52.5H26.25V63.75C26.25 66.8437 28.7813 69.375 31.875 69.375H43.125C46.2187 69.375 48.75 66.8437 48.75 63.75V52.5Z" fill="#2F5B79"/>
<path d="M35.625 63.75H47.8125V65.625H35.625V63.75ZM27.2813 63.75H31.875V65.625H27.2813V63.75ZM35.625 60H48.75V61.875H35.625V60ZM26.25 60H31.875V61.875H26.25V60ZM35.625 56.25H48.75V58.125H35.625V56.25ZM26.25 56.25H31.875V58.125H26.25V56.25Z" fill="#2F5B79"/>
</svg>
