<svg width="1109" height="1203" viewBox="0 0 1109 1203" fill="none" xmlns="http://www.w3.org/2000/svg">
<path d="M567.39 518.08L312.52 992.91C298.82 1018.44 311.91 1050.12 339.63 1058.53L564.4 1126.73C588.65 1134.09 614.57 1122.15 624.75 1098.94L849.59 586.06C859.26 564.01 846.21 538.65 822.65 533.7L623.78 491.85C601.24 487.11 578.28 497.79 567.38 518.08H567.39Z" fill="#0B2A6B"/>
<path d="M333.13 1037.94L554.89 1105.52C577.21 1112.32 601.12 1101.5 610.73 1080.23L838.74 575.54C845.82 559.87 836.66 541.65 819.85 538L627.62 496.19C604.34 491.13 580.53 502.1 569.25 523.08L315.49 995.12C306.54 1011.77 315.06 1032.44 333.14 1037.95L333.13 1037.94Z" fill="#051942"/>
<path d="M647.73 499.62L644.98 504.35C641.1 511.04 644.64 519.97 651.76 521.49L759.88 544.47C769.35 546.48 778.82 541.26 782.96 531.73L785.52 525.84L647.72 499.61L647.73 499.62Z" fill="#0B2A6B"/>
<path d="M685.22 516.51L720.97 523.99" stroke="#051942" stroke-width="4" stroke-miterlimit="10" stroke-linecap="round"/>
<path d="M731.04 530.16C733.034 530.16 734.65 528.544 734.65 526.55C734.65 524.557 733.034 522.94 731.04 522.94C729.046 522.94 727.43 524.557 727.43 526.55C727.43 528.544 729.046 530.16 731.04 530.16Z" fill="#051942"/>
</svg>
