<?xml version="1.0" encoding="UTF-8"?><svg xmlns="http://www.w3.org/2000/svg" viewBox="0 0 1108.84 1202.77"><defs><style>.cls-1{fill:#f09;}.cls-2{fill:#960060;}.cls-3{fill:none;stroke:#960060;stroke-linecap:round;stroke-miterlimit:10;stroke-width:4px;}.cls-4{opacity:0;}</style></defs><g id="Layer_1"><rect class="cls-4" y="160.93" width="1024" height="1024"/></g><g id="Layer_4"><path class="cls-1" d="M567.39,518.08l-254.87,474.83c-13.7,25.53-.61,57.21,27.11,65.62l224.77,68.2c24.25,7.36,50.17-4.58,60.35-27.79l224.84-512.88c9.67-22.05-3.38-47.41-26.94-52.36l-198.87-41.85c-22.54-4.74-45.5,5.94-56.4,26.23Z"/><path class="cls-2" d="M333.13,1037.94l221.76,67.58c22.32,6.8,46.23-4.02,55.84-25.29l228.01-504.69c7.08-15.67-2.08-33.89-18.89-37.54l-192.23-41.81c-23.28-5.06-47.09,5.91-58.37,26.89l-253.76,472.04c-8.95,16.65-.43,37.32,17.65,42.83Z"/><path class="cls-1" d="M647.73,499.62l-2.75,4.73c-3.88,6.69-.34,15.62,6.78,17.14l108.12,22.98c9.47,2.01,18.94-3.21,23.08-12.74l2.56-5.89-137.8-26.23Z"/><line class="cls-3" x1="685.22" y1="516.51" x2="720.97" y2="523.99"/><circle class="cls-2" cx="731.04" cy="526.55" r="3.61"/></g></svg>