<svg width="1109" height="1203" viewBox="0 0 1109 1203" fill="none" xmlns="http://www.w3.org/2000/svg">
<path d="M292.94 564C332.76 564 365.04 531.72 365.04 491.9C365.04 452.08 332.76 419.8 292.94 419.8C253.12 419.8 220.84 452.08 220.84 491.9C220.84 531.72 253.12 564 292.94 564Z" fill="#4B8CB8"/>
<path d="M890.39 425.33C906.014 425.33 918.68 412.664 918.68 397.04C918.68 381.416 906.014 368.75 890.39 368.75C874.766 368.75 862.1 381.416 862.1 397.04C862.1 412.664 874.766 425.33 890.39 425.33Z" fill="#4B8CB8"/>
<path d="M260.49 312.17C274.739 312.17 286.29 300.619 286.29 286.37C286.29 272.121 274.739 260.57 260.49 260.57C246.241 260.57 234.69 272.121 234.69 286.37C234.69 300.619 246.241 312.17 260.49 312.17Z" fill="#4B8CB8"/>
<path d="M55.7999 947.89C69.1266 947.89 79.9299 937.087 79.9299 923.76C79.9299 910.434 69.1266 899.63 55.7999 899.63C42.4733 899.63 31.6699 910.434 31.6699 923.76C31.6699 937.087 42.4733 947.89 55.7999 947.89Z" fill="#4B8CB8"/>
<path d="M921.18 868C932.667 868 941.98 858.688 941.98 847.2C941.98 835.713 932.667 826.4 921.18 826.4C909.692 826.4 900.38 835.713 900.38 847.2C900.38 858.688 909.692 868 921.18 868Z" fill="#4B8CB8"/>
<path d="M837.14 916.27C841.735 916.27 845.46 912.545 845.46 907.95C845.46 903.355 841.735 899.63 837.14 899.63C832.545 899.63 828.82 903.355 828.82 907.95C828.82 912.545 832.545 916.27 837.14 916.27Z" fill="#4B8CB8"/>
</svg>
