<?xml version="1.0" encoding="UTF-8"?><svg xmlns="http://www.w3.org/2000/svg" viewBox="0 0 1108.84 1202.77"><defs><style>.cls-1{opacity:0;}.cls-2{fill:#56DB8B;opacity:.5;}</style></defs><g id="Layer_1"><rect class="cls-1" y="160.93" width="1024" height="1024"/></g><g id="Layer_2"><path class="cls-2" d="M862.74,783.15c-14.81,28.62-42.79,48.19-71.86,62.08-66.97,31.98-142.84,39.18-216.98,42.31-89.35,3.78-179.55,2.29-267.11-15.89-34.31-7.13-71.58-19.41-88.67-49.99-19.91-35.63-3.84-80.71,18.72-114.72,22.57-34.01,52.07-65.28,61.25-105.04,.9-3.89,1.59-7.77,2.08-11.65,1.07-8.33,6.95-15.28,15.05-17.5,36.18-9.95,62.58-43.53,61.55-83.09-1.15-44.32-37.22-80.4-81.53-81.58-7.97-.21-15.69,.69-23.02,2.56-4.96,1.26-9.8-2.35-10.25-7.45-.88-10-.88-20.03,.34-30.11,6.64-54.79,50.48-100.64,102.39-119.38,138.19-49.91,280.36,56.65,362.72,158.23,6.72,8.3,13.23,16.75,19.53,25.36,43.9,59.95,77.74,127.07,105.03,196.28,18.94,48.02,34.49,103.75,10.76,149.59Z"/><path class="cls-2" d="M496.53,1169.44c-31.3-19.44-56.79-46.94-70.33-81.23-19.37-49.05-12.27-105.61,9.2-153.78,59.15-132.68,201.66-227.24,341.74-253.09,99.93-18.44,247.07-9.06,312.35,81.29,59.14,81.85-30.96,182.08-87.28,237.19-56.88,55.66-122.56,107.57-192.72,145.62-64.37,34.91-136.13,61.39-209.22,56.81-36.3-2.28-72.86-13.62-103.75-32.81Z"/></g></svg>