<svg width="1109" height="1203" viewBox="0 0 1109 1203" fill="none" xmlns="http://www.w3.org/2000/svg">
<g clip-path="url(#clip0_54_209)">
<path opacity="0.5" d="M862.74 783.15C847.93 811.77 819.95 831.34 790.88 845.23C723.91 877.21 648.04 884.41 573.9 887.54C484.55 891.32 394.35 889.83 306.79 871.65C272.48 864.52 235.21 852.24 218.12 821.66C198.21 786.03 214.28 740.95 236.84 706.94C259.41 672.93 288.91 641.66 298.09 601.9C298.99 598.01 299.68 594.13 300.17 590.25C301.24 581.92 307.12 574.97 315.22 572.75C351.4 562.8 377.8 529.22 376.77 489.66C375.62 445.34 339.55 409.26 295.24 408.08C287.27 407.87 279.55 408.77 272.22 410.64C267.26 411.9 262.42 408.29 261.97 403.19C261.09 393.19 261.09 383.16 262.31 373.08C268.95 318.29 312.79 272.44 364.7 253.7C502.89 203.79 645.06 310.35 727.42 411.93C734.14 420.23 740.65 428.68 746.95 437.29C790.85 497.24 824.69 564.36 851.98 633.57C870.92 681.59 886.47 737.32 862.74 783.16V783.15Z" fill="#386C8F"/>
<path opacity="0.5" d="M496.53 1169.44C465.23 1150 439.74 1122.5 426.2 1088.21C406.83 1039.16 413.93 982.6 435.4 934.43C494.55 801.75 637.06 707.19 777.14 681.34C877.07 662.9 1024.21 672.28 1089.49 762.63C1148.63 844.48 1058.53 944.71 1002.21 999.82C945.33 1055.48 879.65 1107.39 809.49 1145.44C745.12 1180.35 673.36 1206.83 600.27 1202.25C563.97 1199.97 527.41 1188.63 496.52 1169.44H496.53Z" fill="#2F5B79"/>
</g>
<defs>
<clipPath id="clip0_54_209">
<rect width="1108.84" height="1202.77" fill="white"/>
</clipPath>
</defs>
</svg>
