<svg width="1109" height="1203" viewBox="0 0 1109 1203" fill="none" xmlns="http://www.w3.org/2000/svg">
<path opacity="0.6" d="M444.47 511.29L696.46 566.98C703.85 568.61 707.82 576.68 704.6 583.53L502.77 1012.78C500.31 1018.02 494.41 1020.7 488.84 1019.11L223.29 943.11C216.09 941.05 212.6 932.89 216.09 926.26L431.47 517.32C433.95 512.61 439.27 510.15 444.46 511.29H444.47Z" fill="#A2CDE8"/>
<path d="M368.47 690.97C366.63 694.3 368.4 698.46 372.07 699.45L534.97 743.33C537.46 744 540.08 742.86 541.28 740.58C542.93 737.46 541.27 733.61 537.86 732.67L375.13 688.15C372.52 687.44 369.77 688.6 368.46 690.97H368.47Z" fill="#386C8F"/>
<path d="M405.91 734.74L405.58 735.34C403.85 738.48 405.52 742.41 408.98 743.34L572.29 787.33C574.78 788 577.4 786.86 578.6 784.58C580.25 781.46 578.59 777.61 575.18 776.67L412.2 732.08C409.74 731.41 407.14 732.51 405.91 734.74Z" fill="#386C8F"/>
<path d="M337.59 751.07L337.26 751.67C335.53 754.81 337.2 758.74 340.66 759.67L503.97 803.66C506.46 804.33 509.08 803.19 510.28 800.91C511.93 797.79 510.27 793.94 506.86 793L343.88 748.41C341.42 747.74 338.82 748.84 337.59 751.07Z" fill="#386C8F"/>
<path d="M321.74 847.37L304.66 880.29C302.65 884.16 304.69 888.9 308.89 890.1L464.57 934.55C467.94 935.51 471.49 933.8 472.83 930.56L486.26 898.22C487.83 894.44 485.78 890.12 481.85 888.96L329.82 843.94C326.65 843 323.26 844.44 321.74 847.38V847.37Z" fill="#A2CDE8"/>
<path d="M572.238 649.977C583.934 618.46 569.768 584.134 540.596 573.309C511.424 562.483 478.294 579.257 466.598 610.774C454.902 642.291 469.068 676.617 498.24 687.443C527.412 698.269 560.542 681.495 572.238 649.977Z" fill="#A2CDE8"/>
</svg>
