<?xml version="1.0" encoding="utf-8"?>
<!-- Generator: Adobe Illustrator 26.3.1, SVG Export Plug-In . SVG Version: 6.00 Build 0)  -->
<svg version="1.1" id="Layer_1" xmlns="http://www.w3.org/2000/svg" xmlns:xlink="http://www.w3.org/1999/xlink" x="0px" y="0px"
	 viewBox="0 0 256 256" style="enable-background:new 0 0 256 256;" xml:space="preserve">
<style type="text/css">
	.st0{fill:#FF9FDE;}
	.st1{fill:#C30084;}
	.st2{fill:#FFFFFF;}
	.st3{fill:#FF40C9;}
	.st4{fill:#FFBDEC;}
	.st5{fill:#FF70CD;}
	.st6{fill:#FF00A9;}
	.st7{fill:#FF008C;}
	.st8{fill:#8C0051;}
</style>
<path class="st0" d="M98.9,170.8c0.8,1,1.2,2.3,1.2,3.7v8.1H156v-8.1c0-1.3,0.4-2.6,1.2-3.7c9.1-13.1,19-25.3,29.6-37.1
	c13.2-14.7,20.8-34.4,19.9-55.9C205,36.5,170.7,3.2,129.3,2.6c-44.1-0.6-80,34.8-80,78.7c0,20.2,7.5,38.4,19.9,52.4
	C79.8,145.5,89.9,157.8,98.9,170.8L98.9,170.8z"/>
<path class="st1" d="M156,185.3h-55.9c-1.4,0-2.6-1.2-2.6-2.6v-8.1c0-0.8-0.3-1.6-0.6-2.2l0,0v-0.1c-8-11.5-17.3-23.3-29.5-36.9
	c-13.3-14.9-20.7-34.1-20.7-54c0-22,8.7-42.5,24.3-57.9C86.7,8,107.3-0.4,129.3,0c42.9,0.6,78.1,34.9,79.9,77.8
	c0.9,21.3-6.5,41.8-20.6,57.7c-11.9,13.2-21.5,25.2-29.5,36.9c-0.5,0.6-0.6,1.4-0.6,2.2v8.1C158.5,184.1,157.4,185.3,156,185.3z
	 M102.7,180.1h50.7v-5.6c0-1.8,0.5-3.6,1.6-5.2c8.1-11.8,17.8-23.9,29.9-37.4c13.3-14.9,20.2-34,19.3-54
	c-1.7-40.2-34.5-72.2-74.7-72.8c-20.6-0.3-40,7.4-54.7,21.9C60,41.5,51.9,60.8,51.9,81.3c0,18.7,6.9,36.7,19.3,50.7
	c12.3,13.7,21.7,25.6,29.9,37.4v0.1c1,1.6,1.6,3.4,1.6,5.2L102.7,180.1L102.7,180.1z"/>
<path class="st2" d="M120,197.8c-2.2,0-3.9-1.7-3.9-3.9v-53.5l-14.7-26.1c-1-1.8-0.4-4.3,1.4-5.3s4.3-0.4,5.3,1.4l15.1,27
	c0.4,0.5,0.5,1.3,0.5,1.9V194C123.9,196.2,122.1,197.8,120,197.8z"/>
<path class="st2" d="M136,197.8c-2.2,0-3.9-1.7-3.9-3.9v-54.6c0-0.6,0.1-1.3,0.5-1.9l15.1-27c1-1.8,3.4-2.6,5.3-1.4
	c1.8,1,2.6,3.4,1.4,5.3l-14.7,26.1V194C139.9,196.2,138.2,197.8,136,197.8z"/>
<path class="st3" d="M98.2,207.8v16.9c0,15.3,12.4,27.7,27.7,27.7h4.3c15.3,0,27.7-12.4,27.7-27.7v-16.9H98.2z"/>
<path class="st1" d="M130.2,255H126c-16.7,0-30.3-13.6-30.3-30.3v-16.9c0-1.4,1.2-2.6,2.6-2.6h59.6c1.4,0,2.6,1.2,2.6,2.6v16.9
	C160.5,241.4,146.9,255,130.2,255z M100.7,210.4v14.4c0,13.8,11.2,25.1,25.1,25.1h4.3c13.8,0,25.1-11.2,25.1-25.1v-14.4H100.7z"/>
<path class="st3" d="M99.7,203.8h56.6c2.1,0,3.9,1.7,3.9,3.9V221c0,2.1-1.7,3.9-3.9,3.9H99.7c-2.1,0-3.9-1.7-3.9-3.9v-13.3
	C95.8,205.5,97.6,203.8,99.7,203.8z"/>
<path class="st1" d="M156.3,227.3H99.7c-3.5,0-6.5-2.8-6.5-6.5v-13.3c0-3.5,2.8-6.5,6.5-6.5h56.6c3.5,0,6.5,2.8,6.5,6.5v13.3
	C162.8,224.5,159.8,227.3,156.3,227.3z M99.7,206.4c-0.6,0-1.3,0.5-1.3,1.3V221c0,0.6,0.5,1.3,1.3,1.3h56.6c0.6,0,1.3-0.5,1.3-1.3
	v-13.3c0-0.6-0.5-1.3-1.3-1.3H99.7z"/>
<path class="st3" d="M98.4,182.7h59.2c2.1,0,3.9,1.7,3.9,3.9v13.3c0,2.1-1.7,3.9-3.9,3.9H98.4c-2.1,0-3.9-1.7-3.9-3.9v-13.3
	C94.5,184.4,96.3,182.7,98.4,182.7z"/>
<g>
	<path class="st1" d="M157.6,206.4H98.4c-3.5,0-6.5-2.8-6.5-6.5v-13.3c0-3.5,2.8-6.5,6.5-6.5h59.2c3.5,0,6.5,2.8,6.5,6.5v13.3
		C164.1,203.4,161.1,206.4,157.6,206.4z M98.4,185.3c-0.6,0-1.3,0.5-1.3,1.3v13.3c0,0.6,0.5,1.3,1.3,1.3h59.2c0.6,0,1.3-0.5,1.3-1.3
		v-13.3c0-0.6-0.5-1.3-1.3-1.3H98.4z"/>
</g>
<path class="st4" d="M-230.6-74.8L-230.6-74.8c-23,0-41.7-18.7-41.7-41.7v0c0-23,18.7-41.7,41.7-41.7h0c23,0,41.7,18.7,41.7,41.7v0
	C-188.9-93.5-207.6-74.8-230.6-74.8z"/>
<path class="st0" d="M-139.2-74.8L-139.2-74.8c-23,0-41.7-18.7-41.7-41.7v0c0-23,18.7-41.7,41.7-41.7h0c23,0,41.7,18.7,41.7,41.7v0
	C-97.5-93.5-116.1-74.8-139.2-74.8z"/>
<path class="st5" d="M-47.8-74.8L-47.8-74.8c-23,0-41.7-18.7-41.7-41.7v0c0-23,18.7-41.7,41.7-41.7h0c23,0,41.7,18.7,41.7,41.7v0
	C-6.1-93.5-24.7-74.8-47.8-74.8z"/>
<path class="st3" d="M43.7-74.8L43.7-74.8c-23,0-41.7-18.7-41.7-41.7v0c0-23,18.7-41.7,41.7-41.7h0c23,0,41.7,18.7,41.7,41.7v0
	C85.4-93.5,66.7-74.8,43.7-74.8z"/>
<path class="st6" d="M135.3-74.8L135.3-74.8c-23,0-41.7-18.7-41.7-41.7v0c0-23,18.7-41.7,41.7-41.7h0c23,0,41.7,18.7,41.7,41.7v0
	C177-93.5,158.4-74.8,135.3-74.8z"/>
<path class="st7" d="M226.8-74.8L226.8-74.8c-23,0-41.7-18.7-41.7-41.7v0c0-23,18.7-41.7,41.7-41.7h0c23,0,41.7,18.7,41.7,41.7v0
	C268.5-93.5,249.8-74.8,226.8-74.8z"/>
<path class="st1" d="M318.2-74.8L318.2-74.8c-23,0-41.7-18.7-41.7-41.7v0c0-23,18.7-41.7,41.7-41.7h0c23,0,41.7,18.7,41.7,41.7v0
	C359.9-93.5,341.2-74.8,318.2-74.8z"/>
<path class="st8" d="M409.6-74.8L409.6-74.8c-23,0-41.7-18.7-41.7-41.7v0c0-23,18.7-41.7,41.7-41.7h0c23,0,41.7,18.7,41.7,41.7v0
	C451.3-93.5,432.6-74.8,409.6-74.8z"/>
</svg>
