<svg width="75" height="75" viewBox="0 0 75 75" fill="none" xmlns="http://www.w3.org/2000/svg">
<g clip-path="url(#clip0_6_104)">
<path d="M28.9746 50.0391C29.209 50.332 29.3262 50.7129 29.3262 51.1231V53.4961H45.7031V51.1231C45.7031 50.7422 45.8203 50.3613 46.0547 50.0391C48.7207 46.2012 51.6211 42.627 54.7266 39.1699C58.5937 34.8633 60.8203 29.0918 60.5566 22.793C60.0586 10.6934 50.0098 0.937505 37.8809 0.761723C24.9609 0.585942 14.4434 10.957 14.4434 23.8184C14.4434 29.7363 16.6406 35.0684 20.2734 39.1699C23.3789 42.627 26.3379 46.2305 28.9746 50.0391Z" fill="#56DB8B"/>
<path d="M45.7031 54.2871H29.3262C28.916 54.2871 28.5645 53.9355 28.5645 53.5254V51.1523C28.5645 50.9179 28.4766 50.6836 28.3887 50.5078V50.4785C26.0449 47.1093 23.3203 43.6523 19.7461 39.6679C15.8496 35.3027 13.6816 29.6777 13.6816 23.8476C13.6816 17.4023 16.2305 11.3965 20.8008 6.88474C25.4004 2.34372 31.4355 -0.117215 37.8809 -2.74257e-05C50.4492 0.175754 60.7617 10.2246 61.2891 22.7929C61.5527 29.0332 59.3848 35.039 55.2539 39.6972C51.7676 43.5644 48.9551 47.08 46.6113 50.5078C46.4648 50.6836 46.4355 50.9179 46.4355 51.1523V53.5254C46.4355 53.9355 46.1133 54.2871 45.7031 54.2871ZM30.0879 52.7636H44.9414V51.123C44.9414 50.5957 45.0879 50.0683 45.4102 49.5996C47.7832 46.1426 50.625 42.5976 54.1699 38.6425C58.0664 34.2773 60.0879 28.6816 59.8242 22.8222C59.3262 11.0449 49.7168 1.66989 37.9395 1.49411C31.9043 1.40622 26.2207 3.66208 21.9141 7.91013C17.5781 12.1582 15.2051 17.8125 15.2051 23.8183C15.2051 29.2968 17.2266 34.5703 20.8594 38.6718C24.4629 42.6855 27.2168 46.1718 29.6191 49.6289V49.6582C29.9121 50.1269 30.0879 50.6543 30.0879 51.1816V52.7636Z" fill="#003E19"/>
<path d="M35.1563 57.9492C34.5117 57.9492 34.0137 57.4512 34.0137 56.8067V41.1328L29.7071 33.4863C29.4141 32.959 29.5899 32.2266 30.1172 31.9336C30.6446 31.6406 31.377 31.8164 31.6699 32.3438L36.0938 40.2539C36.211 40.4004 36.2403 40.6348 36.2403 40.8106V56.836C36.2988 57.4805 35.7715 57.9492 35.1563 57.9492Z" fill="white"/>
<path d="M39.8437 57.9492C39.1992 57.9492 38.7012 57.4512 38.7012 56.8066V40.8105C38.7012 40.6348 38.7305 40.4297 38.8477 40.2539L43.2715 32.3437C43.5645 31.8164 44.2676 31.582 44.8242 31.9336C45.3516 32.2266 45.5859 32.9297 45.2344 33.4863L40.9277 41.1328V56.8359C40.9863 57.4805 40.4883 57.9492 39.8437 57.9492Z" fill="white"/>
<path d="M28.7695 60.8789V65.8301C28.7695 70.3125 32.4023 73.9453 36.8848 73.9453H38.1445C42.627 73.9453 46.2598 70.3125 46.2598 65.8301V60.8789H28.7695Z" fill="#097D37"/>
<path d="M38.1445 74.707H36.9141C32.0215 74.707 28.0371 70.7227 28.0371 65.8301V60.8789C28.0371 60.4688 28.3887 60.1172 28.7988 60.1172H46.2598C46.6699 60.1172 47.0215 60.4688 47.0215 60.8789V65.8301C47.0215 70.7227 43.0371 74.707 38.1445 74.707ZM29.502 61.6406V65.8594C29.502 69.9023 32.7832 73.2129 36.8555 73.2129H38.1152C42.1582 73.2129 45.4688 69.9316 45.4688 65.8594V61.6406H29.502Z" fill="#003E19"/>
<path d="M29.209 59.707H45.791C46.4062 59.707 46.9336 60.2051 46.9336 60.8496V64.7461C46.9336 65.3613 46.4355 65.8887 45.791 65.8887H29.209C28.5937 65.8887 28.0664 65.3906 28.0664 64.7461V60.8496C28.0664 60.2051 28.5937 59.707 29.209 59.707Z" fill="#097D37"/>
<path d="M45.791 66.5918H29.209C28.1836 66.5918 27.3047 65.7715 27.3047 64.6875V60.791C27.3047 59.7656 28.125 58.8867 29.209 58.8867H45.791C46.8164 58.8867 47.6953 59.707 47.6953 60.791V64.6875C47.6953 65.7715 46.8164 66.5918 45.791 66.5918ZM29.209 60.4687C29.0332 60.4687 28.8281 60.6152 28.8281 60.8496V64.7461C28.8281 64.9219 28.9746 65.127 29.209 65.127H45.791C45.9668 65.127 46.1719 64.9805 46.1719 64.7461V60.8496C46.1719 60.6738 46.0254 60.4687 45.791 60.4687H29.209V60.4687Z" fill="#003E19"/>
<path d="M28.8281 53.5254H46.1719C46.7871 53.5254 47.3145 54.0234 47.3145 54.668V58.5645C47.3145 59.1797 46.8164 59.707 46.1719 59.707H28.8281C28.2129 59.707 27.6855 59.209 27.6855 58.5645V54.668C27.6855 54.0234 28.2129 53.5254 28.8281 53.5254Z" fill="#097D37"/>
<path d="M46.1719 60.4687H28.8281C27.8027 60.4687 26.9238 59.6484 26.9238 58.5644V54.668C26.9238 53.6426 27.7441 52.7637 28.8281 52.7637H46.1719C47.1973 52.7637 48.0762 53.584 48.0762 54.668V58.5644C48.0762 59.5898 47.1973 60.4687 46.1719 60.4687ZM28.8281 54.2871C28.6523 54.2871 28.4473 54.4336 28.4473 54.668V58.5644C28.4473 58.7402 28.5937 58.9453 28.8281 58.9453H46.1719C46.3477 58.9453 46.5527 58.7988 46.5527 58.5644V54.668C46.5527 54.4922 46.4063 54.2871 46.1719 54.2871H28.8281Z" fill="#003E19"/>
</g>
<defs>
<clipPath id="clip0_6_104">
<rect width="75" height="75" fill="white"/>
</clipPath>
</defs>
</svg>
