<svg width="75" height="75" viewBox="0 0 75 75" fill="none" xmlns="http://www.w3.org/2000/svg">
<path d="M53.3285 3.18652L61.4022 15.5095H45.2549L53.3285 3.18652Z" fill="#993D8A"/>
<path d="M61.4022 15.5098V25.7081V57.5778H45.2549V25.7081V15.5098H61.4022Z" fill="#993D8A"/>
<path d="M61.4022 57.5781V63.1022C61.4022 67.564 57.7903 71.1759 53.3285 71.1759C48.8668 71.1759 45.2549 67.564 45.2549 63.1022V57.5781C45.2549 57.5781 61.4022 57.5781 61.4022 57.5781Z" fill="#993D8A"/>
<path d="M13.8105 56.7277V47.3792V38.0308V28.6823V25.4954V19.3339V4.67383H32.0825V25.4954V70.7503H13.8105V56.7277Z" fill="#993D8A"/>
<path d="M62.8899 14.4472L54.8163 2.12427C54.1789 1.27441 53.1166 1.06195 52.2667 1.48688C52.0542 1.69934 51.8418 1.91181 51.8418 2.12427L43.7681 14.4472C43.5557 14.8721 43.3432 15.0846 43.3432 15.5095V32.2942V63.1016C43.3432 68.6257 47.805 72.875 53.329 72.875C58.8531 72.875 63.1024 68.4132 63.1024 63.1016V27.62V15.5095C63.3149 15.0846 63.1024 14.6597 62.8899 14.4472ZM53.329 6.37356L58.0033 13.3849H48.8673C48.6548 13.3849 53.329 6.37356 53.329 6.37356ZM59.4905 63.1016C59.4905 66.501 56.7285 69.2631 53.329 69.2631C49.9296 69.2631 47.1676 66.501 47.1676 63.1016V59.4897H59.4905V63.1016ZM59.4905 55.6654H47.1676V17.2093H59.4905V55.6654ZM32.0826 2.76167H13.8106C12.7483 2.76167 11.8984 3.61152 11.8984 4.67385V18.909C11.8984 19.1214 11.8984 19.1214 11.8984 19.3339C11.8984 19.5464 11.8984 19.7588 11.8984 19.7588V28.2574C11.8984 28.4699 11.8984 28.4699 11.8984 28.6823C11.8984 28.8948 11.8984 29.1073 11.8984 29.1073V37.6059C11.8984 37.8183 11.8984 37.8183 11.8984 38.0308C11.8984 38.2433 11.8984 38.4557 11.8984 38.4557V46.9543C11.8984 47.1668 11.8984 47.1668 11.8984 47.3792C11.8984 47.5917 11.8984 47.8042 11.8984 47.8042V56.3027C11.8984 56.5152 11.8984 56.5152 11.8984 56.7277C11.8984 56.9401 11.8984 57.1526 11.8984 57.1526V70.7503C11.8984 71.8127 12.7483 72.6625 13.8106 72.6625H32.0826C33.1449 72.6625 33.7823 72.0251 33.7823 70.9628V4.67385C33.9948 3.61152 33.1449 2.76167 32.0826 2.76167ZM30.1704 68.8382H15.7228V58.6399H17.635C18.6973 58.6399 19.5472 57.79 19.5472 56.7277C19.5472 55.6654 18.6973 54.8155 17.635 54.8155H15.7228V49.2914H17.635C18.6973 49.2914 19.5472 48.4416 19.5472 47.3792C19.5472 46.3169 18.6973 45.467 17.635 45.467H15.7228V39.943H17.635C18.6973 39.943 19.5472 39.0931 19.5472 38.0308C19.5472 36.9685 18.6973 36.1186 17.635 36.1186H15.7228V30.5945H17.635C18.6973 30.5945 19.5472 29.7447 19.5472 28.6823C19.5472 27.62 18.6973 26.7702 17.635 26.7702H15.7228V21.0336H17.635C18.6973 21.0336 19.5472 20.1838 19.5472 19.1214C19.5472 18.0591 18.6973 17.2093 17.635 17.2093H15.7228V6.37356H30.1704V68.8382Z" fill="#33142E"/>
</svg>
