<svg width="75" height="75" viewBox="0 0 75 75" fill="none" xmlns="http://www.w3.org/2000/svg">
<path d="M53.3286 3.18701L61.4023 15.51H45.2549L53.3286 3.18701Z" fill="#7BB8DD"/>
<path d="M61.4023 15.5099V25.7082V57.5779H45.2549V25.7082V15.5099H61.4023Z" fill="#7BB8DD"/>
<path d="M61.4023 57.5779V63.102C61.4023 67.5637 57.7904 71.1756 53.3286 71.1756C48.8668 71.1756 45.2549 67.5637 45.2549 63.102V57.5779C45.2549 57.5779 61.4023 57.5779 61.4023 57.5779Z" fill="#7BB8DD"/>
<path d="M13.8102 56.728V47.3796V38.0311V28.6827V25.4957V19.3343V4.67419H32.0821V25.4957V70.7507H13.8102V56.728Z" fill="#7BB8DD"/>
<path d="M62.8895 14.4476L54.8159 2.12464C54.1785 1.27478 53.1161 1.06232 52.2663 1.48724C52.0538 1.69971 51.8414 1.91217 51.8414 2.12464L43.7677 14.4476C43.5552 14.8725 43.3428 15.085 43.3428 15.5099V32.2946V63.102C43.3428 68.6261 47.8045 72.8754 53.3286 72.8754C58.8527 72.8754 63.102 68.4136 63.102 63.102V27.6204V15.5099C63.3144 15.085 63.102 14.6601 62.8895 14.4476ZM53.3286 6.37393L58.0028 13.3853H48.8668C48.6544 13.3853 53.3286 6.37393 53.3286 6.37393ZM59.4901 63.102C59.4901 66.5014 56.728 69.2634 53.3286 69.2634C49.9292 69.2634 47.1671 66.5014 47.1671 63.102V59.4901H59.4901V63.102ZM59.4901 55.6657H47.1671V17.2096H59.4901V55.6657ZM32.0821 2.76203H13.8102C12.7479 2.76203 11.898 3.61189 11.898 4.67421V18.9093C11.898 19.1218 11.898 19.1218 11.898 19.3343C11.898 19.5467 11.898 19.7592 11.898 19.7592V28.2578C11.898 28.4702 11.898 28.4702 11.898 28.6827C11.898 28.8952 11.898 29.1076 11.898 29.1076V37.6062C11.898 37.8187 11.898 37.8187 11.898 38.0312C11.898 38.2436 11.898 38.4561 11.898 38.4561V46.9547C11.898 47.1671 11.898 47.1671 11.898 47.3796C11.898 47.5921 11.898 47.8045 11.898 47.8045V56.3031C11.898 56.5156 11.898 56.5156 11.898 56.728C11.898 56.9405 11.898 57.153 11.898 57.153V70.7507C11.898 71.813 12.7479 72.6629 13.8102 72.6629H32.0821C33.1445 72.6629 33.7819 72.0255 33.7819 70.9632V4.67421C33.9943 3.61189 33.1445 2.76203 32.0821 2.76203ZM30.17 68.8385H15.7224V58.6402H17.6346C18.6969 58.6402 19.5467 57.7904 19.5467 56.728C19.5467 55.6657 18.6969 54.8159 17.6346 54.8159H15.7224V49.2918H17.6346C18.6969 49.2918 19.5467 48.4419 19.5467 47.3796C19.5467 46.3173 18.6969 45.4674 17.6346 45.4674H15.7224V39.9433H17.6346C18.6969 39.9433 19.5467 39.0935 19.5467 38.0312C19.5467 36.9688 18.6969 36.119 17.6346 36.119H15.7224V30.5949H17.6346C18.6969 30.5949 19.5467 29.745 19.5467 28.6827C19.5467 27.6204 18.6969 26.7705 17.6346 26.7705H15.7224V21.034H17.6346C18.6969 21.034 19.5467 20.1841 19.5467 19.1218C19.5467 18.0595 18.6969 17.2096 17.6346 17.2096H15.7224V6.37393H30.17V68.8385Z" fill="#2F5B79"/>
</svg>
