<svg width="75" height="75" viewBox="0 0 75 75" fill="none" xmlns="http://www.w3.org/2000/svg">
<path d="M53.3285 3.18701L61.4022 15.51H45.2549L53.3285 3.18701Z" fill="#4677DE"/>
<path d="M61.4022 15.51V25.7083V57.578H45.2549V25.7083V15.51H61.4022Z" fill="#4677DE"/>
<path d="M61.4022 57.5779V63.102C61.4022 67.5637 57.7903 71.1756 53.3285 71.1756C48.8668 71.1756 45.2549 67.5637 45.2549 63.102V57.5779C45.2549 57.5779 61.4022 57.5779 61.4022 57.5779Z" fill="#4677DE"/>
<path d="M13.8103 56.7281V47.3797V38.0313V28.6828V25.4958V19.3344V4.67432H32.0823V25.4958V70.7508H13.8103V56.7281Z" fill="#4677DE"/>
<path d="M62.8895 14.4477L54.8158 2.12476C54.1784 1.2749 53.1161 1.06244 52.2662 1.48737C52.0538 1.69983 51.8413 1.9123 51.8413 2.12476L43.7676 14.4477C43.5552 14.8726 43.3427 15.0851 43.3427 15.51V32.2947V63.1021C43.3427 68.6262 47.8045 72.8755 53.3285 72.8755C58.8526 72.8755 63.1019 68.4137 63.1019 63.1021V27.6205V15.51C63.3144 15.0851 63.1019 14.6602 62.8895 14.4477ZM53.3285 6.37405L58.0028 13.3854H48.8668C48.6543 13.3854 53.3285 6.37405 53.3285 6.37405ZM59.49 63.1021C59.49 66.5015 56.728 69.2636 53.3285 69.2636C49.9291 69.2636 47.1671 66.5015 47.1671 63.1021V59.4902H59.49V63.1021ZM59.49 55.6658H47.1671V17.2097H59.49V55.6658ZM32.0821 2.76215H13.8101C12.7478 2.76215 11.8979 3.61201 11.8979 4.67434V18.9095C11.8979 19.1219 11.8979 19.1219 11.8979 19.3344C11.8979 19.5469 11.8979 19.7593 11.8979 19.7593V28.2579C11.8979 28.4704 11.8979 28.4704 11.8979 28.6828C11.8979 28.8953 11.8979 29.1078 11.8979 29.1078V37.6063C11.8979 37.8188 11.8979 37.8188 11.8979 38.0313C11.8979 38.2437 11.8979 38.4562 11.8979 38.4562V46.9548C11.8979 47.1673 11.8979 47.1673 11.8979 47.3797C11.8979 47.5922 11.8979 47.8046 11.8979 47.8046V56.3032C11.8979 56.5157 11.8979 56.5157 11.8979 56.7282C11.8979 56.9406 11.8979 57.1531 11.8979 57.1531V70.7508C11.8979 71.8131 12.7478 72.663 13.8101 72.663H32.0821C33.1444 72.663 33.7818 72.0256 33.7818 70.9633V4.67434C33.9943 3.61201 33.1444 2.76215 32.0821 2.76215ZM30.1699 68.8386H15.7223V58.6403H17.6345C18.6968 58.6403 19.5467 57.7905 19.5467 56.7282C19.5467 55.6658 18.6968 54.816 17.6345 54.816H15.7223V49.2919H17.6345C18.6968 49.2919 19.5467 48.442 19.5467 47.3797C19.5467 46.3174 18.6968 45.4675 17.6345 45.4675H15.7223V39.9435H17.6345C18.6968 39.9435 19.5467 39.0936 19.5467 38.0313C19.5467 36.969 18.6968 36.1191 17.6345 36.1191H15.7223V30.595H17.6345C18.6968 30.595 19.5467 29.7452 19.5467 28.6828C19.5467 27.6205 18.6968 26.7707 17.6345 26.7707H15.7223V21.0341H17.6345C18.6968 21.0341 19.5467 20.1843 19.5467 19.1219C19.5467 18.0596 18.6968 17.2097 17.6345 17.2097H15.7223V6.37405H30.1699V68.8386Z" fill="#133989"/>
</svg>
