<?xml version="1.0" encoding="utf-8"?>
<!-- Generator: Adobe Illustrator 26.3.1, SVG Export Plug-In . SVG Version: 6.00 Build 0)  -->
<svg version="1.1" id="Layer_1" xmlns="http://www.w3.org/2000/svg" xmlns:xlink="http://www.w3.org/1999/xlink" x="0px" y="0px"
	 viewBox="0 0 35.3 35" style="enable-background:new 0 0 35.3 35;" xml:space="preserve">
<style type="text/css">
	.st0{fill:#FF70CD;}
	.st1{fill:#FFBDEC;}
	.st2{fill:#C30084;}
	.st3{fill:#083863;}
</style>
<polygon class="st0" points="25.1,1.5 28.9,7.3 21.3,7.3 "/>
<polygon class="st1" points="28.9,7.3 28.9,12.1 28.9,27.1 21.3,27.1 21.3,27.1 21.3,12.1 21.3,7.3 "/>
<path class="st0" d="M28.9,27.1v2.6c0,2.1-1.7,3.8-3.8,3.8s-3.8-1.7-3.8-3.8v-2.6C21.3,27.1,28.9,27.1,28.9,27.1z"/>
<polygon class="st1" points="6.5,26.7 6.5,22.3 6.5,17.9 6.5,13.5 6.5,12 6.5,9.1 6.5,2.2 15.1,2.2 15.1,12 15.1,33.3 6.5,33.3 "/>
<path class="st2" d="M29.6,6.8L25.8,1c-0.3-0.4-0.8-0.5-1.2-0.3c-0.1,0.1-0.2,0.2-0.2,0.3l-3.8,5.8c-0.1,0.2-0.2,0.3-0.2,0.5v7.9
	l0,14.5c0,2.6,2.1,4.6,4.7,4.6s4.6-2.1,4.6-4.6l0-16.7h0V7.3C29.8,7.1,29.7,6.9,29.6,6.8L29.6,6.8z M25.1,3l2.2,3.3h-4.3
	C22.9,6.3,25.1,3,25.1,3z M28,29.7c0,1.6-1.3,2.9-2.9,2.9c-1.6,0-2.9-1.3-2.9-2.9V28H28V29.7z M28,26.2h-5.8l0-18.1H28L28,26.2z
	 M15.1,1.3H6.5C6,1.3,5.6,1.7,5.6,2.2v6.7c0,0.1,0,0.1,0,0.2c0,0.1,0,0.2,0,0.2v4c0,0.1,0,0.1,0,0.2c0,0.1,0,0.2,0,0.2v4
	c0,0.1,0,0.1,0,0.2c0,0.1,0,0.2,0,0.2v4c0,0.1,0,0.1,0,0.2c0,0.1,0,0.2,0,0.2v4c0,0.1,0,0.1,0,0.2c0,0.1,0,0.2,0,0.2v6.4
	c0,0.5,0.4,0.9,0.9,0.9h8.6c0.5,0,0.8-0.3,0.8-0.8c0,0,0,0,0,0V2.2C16,1.7,15.6,1.3,15.1,1.3z M14.2,32.4H7.4v-4.8h0.9
	c0.5,0,0.9-0.4,0.9-0.9s-0.4-0.9-0.9-0.9H7.4v-2.6h0.9c0.5,0,0.9-0.4,0.9-0.9s-0.4-0.9-0.9-0.9H7.4v-2.6h0.9c0.5,0,0.9-0.4,0.9-0.9
	c0-0.5-0.4-0.9-0.9-0.9H7.4v-2.6h0.9c0.5,0,0.9-0.4,0.9-0.9s-0.4-0.9-0.9-0.9H7.4V9.9h0.9c0.5,0,0.9-0.4,0.9-0.9
	c0-0.5-0.4-0.9-0.9-0.9H7.4V3h6.8V32.4z"/>
<path class="st3" d="M5.6,8.9v0.4c0-0.1,0-0.1,0-0.2S5.6,8.9,5.6,8.9z"/>
<path class="st3" d="M5.6,13.5c0-0.1,0-0.2,0-0.2v0.4C5.6,13.6,5.6,13.5,5.6,13.5z"/>
<path class="st3" d="M5.6,17.9c0-0.1,0-0.2,0-0.2v0.4C5.6,18,5.6,17.9,5.6,17.9z"/>
<path class="st3" d="M5.6,22.3c0-0.1,0-0.1,0-0.2v0.4C5.6,22.4,5.6,22.3,5.6,22.3z"/>
<path class="st3" d="M5.6,26.7c0-0.1,0-0.1,0-0.2v0.4C5.6,26.8,5.6,26.7,5.6,26.7z"/>
</svg>
