<?xml version="1.0" encoding="UTF-8"?><svg id="Layer_1" xmlns="http://www.w3.org/2000/svg" viewBox="0 0 62.15 61.05"><defs><style>.cls-1{fill:#ffbdec;}.cls-2{fill:#ff40c9;}.cls-3{fill:#ff70cd;}.cls-4{fill:#c30084;}</style></defs><path class="cls-2" d="M44.16,11.98h-2.48c-.21-.73-.51-1.44-.88-2.12l1.75-1.75c.43-.43,.43-1.12,0-1.55l-2.87-2.86c-.43-.43-1.12-.43-1.55,0l-1.75,1.75c-.68-.37-1.39-.66-2.12-.88V2.09c0-.6-.49-1.09-1.09-1.09h-4.05c-.61,0-1.1,.49-1.1,1.09v2.48c-.73,.21-1.44,.51-2.12,.88l-1.75-1.75c-.43-.43-1.12-.43-1.55,0l-2.86,2.86c-.43,.43-.43,1.12,0,1.55l1.75,1.75c-.4,.74-.71,1.51-.93,2.31h-2.43c-.6,0-1.09,.49-1.09,1.09v4.05c0,.6,.49,1.09,1.09,1.09h2.54c.2,.66,.48,1.31,.82,1.93l-1.75,1.75c-.43,.43-.43,1.12,0,1.55l2.86,2.87c.43,.43,1.12,.43,1.55,0l1.75-1.75c.68,.37,1.39,.66,2.12,.88v2.48c0,.61,.49,1.1,1.1,1.1h4.05c.6,0,1.09-.49,1.09-1.1v-2.48c.73-.22,1.44-.51,2.12-.88l1.75,1.75c.43,.43,1.12,.43,1.55,0l2.87-2.87c.43-.43,.43-1.12,0-1.55l-1.75-1.75c.37-.68,.66-1.39,.88-2.12h2.48c.61,0,1.1-.49,1.1-1.09v-4.05c0-.61-.49-1.1-1.1-1.1Zm-13.01,9.43c-3.48,0-6.31-2.82-6.31-6.31s2.82-6.31,6.31-6.31,6.31,2.82,6.31,6.31-2.82,6.31-6.31,6.31Z"/><path class="cls-2" d="M29.2,42.13h-2.58c-.22-.76-.53-1.5-.91-2.2l1.82-1.82c.44-.44,.44-1.17,0-1.61l-2.98-2.98c-.45-.45-1.17-.45-1.61,0l-1.82,1.82c-.71-.39-1.45-.69-2.2-.91v-2.58c0-.63-.51-1.14-1.14-1.14h-4.21c-.63,0-1.14,.51-1.14,1.14v2.58c-.76,.22-1.5,.53-2.2,.91l-1.82-1.82c-.44-.45-1.17-.45-1.61,0l-2.98,2.98c-.45,.44-.45,1.17,0,1.61l1.82,1.82c-.42,.77-.74,1.57-.97,2.4H2.14c-.63,0-1.14,.51-1.14,1.14v4.22c0,.63,.51,1.14,1.14,1.14h2.64c.21,.69,.5,1.36,.85,2.01l-1.82,1.82c-.45,.45-.45,1.17,0,1.61l2.98,2.98c.44,.44,1.17,.44,1.61,0l1.82-1.82c.71,.38,1.44,.69,2.2,.91v2.58c0,.63,.51,1.14,1.14,1.14h4.21c.63,0,1.14-.51,1.14-1.14v-2.58c.76-.23,1.5-.53,2.2-.91l1.82,1.82c.45,.44,1.17,.44,1.61,0l2.98-2.98c.44-.45,.44-1.17,0-1.61l-1.82-1.82c.39-.71,.69-1.45,.91-2.2h2.58c.63,0,1.14-.51,1.14-1.14v-4.21c0-.63-.51-1.14-1.14-1.14Zm-13.53,9.81c-3.62,0-6.56-2.94-6.56-6.56s2.94-6.56,6.56-6.56,6.56,2.94,6.56,6.56-2.94,6.56-6.56,6.56Z"/><path class="cls-2" d="M60.01,42.13h-2.58c-.22-.76-.53-1.5-.91-2.2l1.82-1.82c.44-.44,.44-1.17,0-1.61l-2.98-2.98c-.45-.45-1.17-.45-1.61,0l-1.82,1.82c-.71-.39-1.45-.69-2.2-.91v-2.58c0-.63-.51-1.14-1.14-1.14h-4.21c-.63,0-1.14,.51-1.14,1.14v2.58c-.76,.22-1.5,.53-2.2,.91l-1.82-1.82c-.44-.45-1.17-.45-1.61,0l-2.98,2.98c-.45,.44-.45,1.17,0,1.61l1.82,1.82c-.42,.77-.74,1.57-.97,2.4h-2.52c-.63,0-1.14,.51-1.14,1.14v4.22c0,.63,.51,1.14,1.14,1.14h2.64c.21,.69,.5,1.36,.85,2.01l-1.82,1.82c-.45,.45-.45,1.17,0,1.61l2.98,2.98c.44,.44,1.17,.44,1.61,0l1.82-1.82c.71,.38,1.44,.69,2.2,.91v2.58c0,.63,.51,1.14,1.14,1.14h4.21c.63,0,1.14-.51,1.14-1.14v-2.58c.76-.23,1.5-.53,2.2-.91l1.82,1.82c.45,.44,1.17,.44,1.61,0l2.98-2.98c.44-.45,.44-1.17,0-1.61l-1.82-1.82c.39-.71,.69-1.45,.91-2.2h2.58c.63,0,1.14-.51,1.14-1.14v-4.21c0-.63-.51-1.14-1.14-1.14Zm-13.53,9.81c-3.62,0-6.56-2.94-6.56-6.56s2.94-6.56,6.56-6.56,6.56,2.94,6.56,6.56-2.94,6.56-6.56,6.56Z"/><path class="cls-1" d="M45.86,30.43c0-8.47-7.16-15.27-15.76-14.68-7.12,.49-12.95,6.17-13.61,13.27-.35,3.75,.71,7.25,2.72,10.02,3.34,4.62,5.3,6.29,5.3,11.99v.65h13.26v-.51c0-5.62,1.68-7.36,5.08-11.83,1.89-2.47,3.01-5.56,3.01-8.91Z"/><path class="cls-3" d="M37.78,51.68v5.48c0,1.29-1.04,2.33-2.33,2.33h-8.6c-1.29,0-2.33-1.04-2.33-2.33v-5.48h13.26Z"/><g><path class="cls-4" d="M60.01,41.13h-1.85c-.12-.34-.26-.68-.42-1.01l1.31-1.31c.4-.4,.63-.94,.63-1.51s-.22-1.11-.62-1.51l-2.98-2.98c-.83-.83-2.19-.83-3.03,0l-1.31,1.31c-.33-.15-.67-.29-1.01-.42v-1.85c0-1.18-.96-2.14-2.14-2.14h-1.74c-.18-3.86-1.79-7.56-4.51-10.31,.02-.06,.04-.11,.06-.17h1.76c1.15,0,2.1-.94,2.1-2.09v-4.05c0-1.15-.94-2.1-2.1-2.1h-1.76c-.12-.31-.24-.62-.38-.92l1.24-1.24c.4-.39,.61-.92,.62-1.48,0-.56-.22-1.09-.62-1.49l-2.87-2.86c-.81-.82-2.15-.82-2.96,0l-1.24,1.24c-.3-.14-.61-.27-.92-.38v-1.76c0-1.15-.94-2.1-2.1-2.1h-4.05c-1.16,0-2.1,.94-2.1,2.1v1.76c-.31,.11-.62,.24-.92,.38l-1.24-1.24c-.4-.39-.92-.62-1.48-.62s-1.09,.22-1.48,.62l-2.86,2.86c-.4,.39-.61,.92-.61,1.48s.22,1.09,.61,1.48l1.24,1.24c-.17,.36-.32,.73-.45,1.11h-1.69c-1.16,0-2.09,.94-2.09,2.1v4.06c0,1.16,.94,2.09,2.09,2.09h1.83c-2.79,2.84-4.37,6.55-4.52,10.3h-1.89c-1.18,0-2.14,.96-2.14,2.14v1.85c-.34,.12-.68,.26-1.01,.42l-1.31-1.31c-.2-.2-.44-.36-.69-.47-.26-.11-.53-.16-.82-.16-.57,0-1.11,.22-1.51,.63l-2.98,2.98c-.4,.4-.63,.94-.63,1.51s.22,1.11,.63,1.51l1.31,1.31c-.18,.39-.34,.79-.49,1.21h-1.78c-1.18,0-2.14,.96-2.14,2.14v4.22c0,1.18,.96,2.14,2.14,2.14h1.92c.11,.28,.22,.54,.34,.81l-1.31,1.31c-.83,.83-.83,2.19,0,3.03l2.98,2.98c.83,.83,2.19,.83,3.02,0l1.31-1.31c.33,.15,.66,.29,1.01,.42v1.85c0,1.18,.96,2.14,2.14,2.14h4.21c1.18,0,2.14-.96,2.14-2.14v-1.85c.34-.12,.68-.26,1.01-.42l1.31,1.31c.44,.44,1.02,.64,1.59,.62,.53,1.14,1.68,1.93,3.02,1.93h8.6c1.33,0,2.49-.79,3.02-1.92,1.05-.02,1.42-.59,2.76-1.93,.33,.15,.66,.29,1.01,.42v1.85c0,1.18,.96,2.14,2.14,2.14h4.21c1.18,0,2.14-.96,2.14-2.14v-1.85c.34-.12,.68-.26,1.01-.42l1.31,1.31c.83,.83,2.19,.83,3.02,0l2.98-2.98c.83-.83,.83-2.19,0-3.03l-1.31-1.31c.15-.33,.29-.67,.42-1.01h1.85c1.18,0,2.14-.96,2.14-2.14v-4.21c0-1.18-.96-2.14-2.14-2.14ZM20.67,17.42h-2.54c-.05,0-.09-.04-.09-.09v-4.06c0-.05,.04-.1,.09-.1h2.42c.45,0,.84-.3,.96-.73,.2-.73,.49-1.44,.84-2.1,.21-.39,.14-.87-.17-1.18l-1.75-1.76s-.03-.04-.03-.06c0-.03,.01-.05,.03-.07l2.87-2.86s.09-.04,.13,0l1.75,1.75c.32,.32,.8,.38,1.18,.17,.61-.34,1.26-.6,1.92-.8,.43-.12,.72-.51,.72-.96V2.09c0-.05,.05-.1,.1-.1h4.05c.05,0,.1,.04,.1,.1v2.48c0,.45,.29,.84,.72,.96,.67,.2,1.32,.47,1.92,.8,.39,.21,.87,.14,1.19-.17l1.75-1.75s.1-.04,.13,0l2.87,2.86s.03,.04,.03,.07c0,.02,0,.05-.03,.06l-1.75,1.76c-.31,.31-.38,.8-.17,1.19,.33,.6,.6,1.24,.8,1.92,.13,.42,.52,.72,.96,.72h2.48c.05,0,.1,.04,.1,.1v4.05c0,.05-.04,.09-.1,.09h-2.48c-.44,0-.83,.29-.96,.72,0,0,0,.01,0,.02-.76-.58-1.55-1.09-2.39-1.52,.85-4.44-2.59-8.64-7.18-8.64s-8.04,4.2-7.18,8.67c-.84,.44-1.64,.95-2.39,1.53-.16-.35-.51-.58-.9-.58Zm10.47-7.62c3.17,0,5.6,2.77,5.28,5.82-3.25-1.16-7.03-1.26-10.56,.02-.31-3.14,2.16-5.84,5.28-5.84Zm-.97,6.95c7.91-.54,14.28,5.52,14.67,12.96,.41,9.83-7.29,10.5-8.01,19.64-.03,.42-.06,.86-.06,1.33h-11.26c-.07-5.77-2.19-7.66-5.49-12.23-6.42-8.86-.29-20.98,10.15-21.71Zm16.31,23.07c3.06,0,5.56,2.49,5.56,5.56s-2.49,5.56-5.56,5.56-5.56-2.49-5.56-5.56,2.49-5.56,5.56-5.56Zm-25.25,5.56c0,3.06-2.5,5.56-5.56,5.56s-5.56-2.49-5.56-5.56,2.49-5.56,5.56-5.56,5.56,2.49,5.56,5.56Zm.6,9.33c-.31-.31-.8-.38-1.18-.17-.63,.34-1.31,.62-2.01,.83-.42,.12-.71,.51-.71,.96v2.58c0,.08-.06,.14-.14,.14h-4.21c-.08,0-.14-.06-.14-.14v-2.58c0-.44-.29-.83-.71-.96-.7-.21-1.38-.49-2.01-.83-.15-.08-.31-.12-.48-.12-.26,0-.52,.1-.71,.29l-1.82,1.83c-.05,.05-.14,.05-.19,0l-2.98-2.98c-.05-.06-.05-.14,0-.2l1.82-1.82c.32-.31,.38-.8,.17-1.19-.32-.58-.58-1.19-.77-1.82-.13-.42-.52-.71-.95-.71H2.14c-.08,0-.14-.06-.14-.14v-4.22c0-.08,.06-.14,.14-.14h2.52c.45,0,.84-.3,.97-.74,.21-.76,.51-1.5,.88-2.19,.21-.39,.14-.87-.17-1.19l-1.82-1.83s-.04-.07-.04-.1c0-.03,0-.06,.04-.1l2.98-2.98s.07-.04,.1-.04c.03,0,.06,0,.1,.04l1.82,1.82c.31,.31,.8,.38,1.18,.17,.64-.35,1.32-.63,2.01-.83,.43-.12,.72-.52,.72-.96v-2.58c0-.08,.06-.14,.14-.14h1.93c.18,2.22,.83,4.37,1.9,6.31-.55-.13-1.12-.2-1.71-.2-4.17,0-7.56,3.39-7.56,7.56s3.39,7.56,7.56,7.56c3.59,0,6.61-2.52,7.37-5.88,.58,1.97,.48,3.32,.48,9.35l-1.69-1.69Zm13.62,3.78h-8.6c-.74,0-1.33-.6-1.33-1.33v-4.48h11.26v4.48c0,.73-.59,1.33-1.33,1.33Zm24.7-11.01c0,.08-.06,.14-.14,.14h-2.58c-.44,0-.83,.29-.96,.72-.21,.71-.49,1.38-.83,2.01-.22,.39-.15,.87,.17,1.19l1.82,1.82c.06,.06,.06,.14,0,.2l-2.98,2.98c-.06,.06-.15,.06-.2,0l-1.82-1.82c-.31-.31-.79-.38-1.19-.17-.63,.34-1.31,.62-2.01,.83-.42,.12-.71,.51-.71,.96v2.58c0,.08-.06,.14-.14,.14h-4.21c-.08,0-.14-.06-.14-.14v-2.58c0-.44-.29-.83-.71-.96-.7-.21-1.38-.49-2.01-.83-.4-.22-.88-.13-1.19,.17l-1.55,1.55c0-5.4-.1-6.93,.4-8.93,.86,3.23,3.81,5.61,7.3,5.61,4.17,0,7.56-3.39,7.56-7.56,0-4.78-4.42-8.39-9.1-7.4,1.06-1.93,1.7-4.05,1.88-6.27h1.77c.08,0,.14,.06,.14,.14v2.58c0,.44,.29,.83,.72,.96,.7,.21,1.38,.49,2.01,.83,.39,.21,.87,.14,1.19-.17l1.82-1.82c.06-.06,.14-.06,.2,0l2.98,2.98s.04,.07,.04,.1c0,.03,0,.06-.04,.1l-1.82,1.82c-.31,.31-.38,.8-.17,1.19,.34,.63,.62,1.3,.83,2.01,.12,.42,.51,.72,.96,.72h2.58c.08,0,.14,.06,.14,.14v4.21Z"/><path class="cls-4" d="M35.12,24.27c2.27,1.46,3.62,4.09,3.32,6.96-.06,.59,.4,1.11,.99,1.11,.51,0,.94-.38,.99-.89,.61-5.49-3.72-10.35-9.28-10.35-.66,0-1.14,.63-.97,1.25,.36,1.41,2.04,.04,4.94,1.92Z"/><path class="cls-4" d="M37.37,34.32c-.12,.19-.24,.37-.38,.55-.51,.66-.03,1.61,.79,1.61,.6,0,.87-.43,1.28-1.09,.71-1.14-1-2.17-1.69-1.06Z"/></g></svg>