<svg width="75" height="74" viewBox="0 0 75 74" fill="none" xmlns="http://www.w3.org/2000/svg">
<g clip-path="url(#clip0_441_35)">
<path d="M53.2904 14.457H50.2977C50.0442 13.5761 49.6822 12.7193 49.2357 11.8987L51.3475 9.78683C51.8664 9.26793 51.8664 8.43527 51.3475 7.91636L47.8841 4.46503C47.3652 3.94613 46.5326 3.94613 46.0137 4.46503L43.9018 6.57686C43.0812 6.13036 42.2244 5.7804 41.3435 5.51491V2.52215C41.3435 1.7981 40.7522 1.20679 40.0281 1.20679H35.1408C34.4047 1.20679 33.8133 1.7981 33.8133 2.52215V5.51491C32.9324 5.76833 32.0756 6.13036 31.255 6.57686L29.1432 4.46503C28.6243 3.94613 27.7916 3.94613 27.2727 4.46503L23.8214 7.91636C23.3025 8.43527 23.3025 9.26793 23.8214 9.78683L25.9332 11.8987C25.4505 12.7917 25.0764 13.7209 24.8109 14.6863H21.8785C21.1545 14.6863 20.5631 15.2776 20.5631 16.0016V20.889C20.5631 21.6131 21.1545 22.2044 21.8785 22.2044H24.9437C25.185 23.0008 25.5229 23.7852 25.9332 24.5334L23.8214 26.6452C23.3025 27.1641 23.3025 27.9968 23.8214 28.5157L27.2727 31.9791C27.7916 32.498 28.6243 32.498 29.1432 31.9791L31.255 29.8673C32.0756 30.3138 32.9324 30.6637 33.8133 30.9292V33.922C33.8133 34.6581 34.4047 35.2494 35.1408 35.2494H40.0281C40.7522 35.2494 41.3435 34.6581 41.3435 33.922V30.9292C42.2244 30.6637 43.0812 30.3138 43.9018 29.8673L46.0137 31.9791C46.5326 32.498 47.3652 32.498 47.8841 31.9791L51.3475 28.5157C51.8664 27.9968 51.8664 27.1641 51.3475 26.6452L49.2357 24.5334C49.6822 23.7128 50.0322 22.856 50.2977 21.9751H53.2904C54.0265 21.9751 54.6178 21.3838 54.6178 20.6597V15.7724C54.6178 15.0362 54.0265 14.4449 53.2904 14.4449V14.457ZM37.5905 25.8367C33.391 25.8367 29.9759 22.4337 29.9759 18.2221C29.9759 14.0105 33.3789 10.6074 37.5905 10.6074C41.8021 10.6074 45.2051 14.0105 45.2051 18.2221C45.2051 22.4337 41.8021 25.8367 37.5905 25.8367V25.8367Z" fill="#4B8CB8"/>
<path d="M34.7273 51.2502H31.7345C31.4811 50.3693 31.1191 49.5125 30.6726 48.6919L32.7844 46.58C33.3033 46.0611 33.3033 45.2285 32.7844 44.7096L29.321 41.2582C28.8021 40.7393 27.9694 40.7393 27.4505 41.2582L25.3387 43.3701C24.5181 42.9236 23.6613 42.5736 22.7804 42.3081V39.3154C22.7804 38.5913 22.1891 38 21.465 38H16.5776C15.8415 38 15.2502 38.5913 15.2502 39.3154V42.3081C14.3693 42.5615 13.5125 42.9236 12.6919 43.3701L10.58 41.2582C10.0611 40.7393 9.22848 40.7393 8.70957 41.2582L5.25824 44.7096C4.73934 45.2285 4.73934 46.0611 5.25824 46.58L7.37007 48.6919C6.88737 49.5849 6.51327 50.5141 6.24779 51.4795H3.31536C2.59131 51.4795 2 52.0708 2 52.7949V57.6822C2 58.4063 2.59131 58.9976 3.31536 58.9976H6.38053C6.62188 59.794 6.95977 60.5784 7.37007 61.3266L5.25824 63.4385C4.73934 63.9574 4.73934 64.79 5.25824 65.3089L8.70957 68.7723C9.22848 69.2912 10.0611 69.2912 10.58 68.7723L12.6919 66.6605C13.5125 67.107 14.3693 67.457 15.2502 67.7224V70.7152C15.2502 71.4513 15.8415 72.0426 16.5776 72.0426H21.465C22.1891 72.0426 22.7804 71.4513 22.7804 70.7152V67.7224C23.6613 67.457 24.5181 67.107 25.3387 66.6605L27.4505 68.7723C27.9694 69.2912 28.8021 69.2912 29.321 68.7723L32.7844 65.3089C33.3033 64.79 33.3033 63.9574 32.7844 63.4385L30.6726 61.3266C31.1191 60.506 31.469 59.6492 31.7345 58.7683H34.7273C35.4634 58.7683 36.0547 58.177 36.0547 57.4529V52.5656C36.0547 51.8294 35.4634 51.2381 34.7273 51.2381V51.2502ZM19.0274 62.6299C14.8278 62.6299 11.4127 59.2269 11.4127 55.0153C11.4127 50.8037 14.8158 47.4006 19.0274 47.4006C23.2389 47.4006 26.642 50.8037 26.642 55.0153C26.642 59.2269 23.2389 62.6299 19.0274 62.6299V62.6299Z" fill="#4B8CB8"/>
<path d="M72.4176 50.8407H69.3041C69.0386 49.9236 68.6645 49.0306 68.206 48.1859L70.4023 45.9896C70.9332 45.4586 70.9332 44.5777 70.4023 44.0467L66.8061 40.4506C66.2631 39.9075 65.3942 39.9075 64.8632 40.4506L62.667 42.6469C61.8102 42.1762 60.9172 41.8142 60.0121 41.5487V38.4353C60.0121 37.675 59.3966 37.0596 58.6364 37.0596H53.5559C52.7957 37.0596 52.1802 37.675 52.1802 38.4353V41.5487C51.2631 41.8142 50.3701 42.1883 49.5254 42.6469L47.3291 40.4506C46.7981 39.9075 45.9172 39.9075 45.3862 40.4506L41.79 44.0467C41.247 44.5777 41.247 45.4586 41.79 45.9896L43.9863 48.1859C43.4795 49.1151 43.0933 50.0805 42.8158 51.0821H39.7748C39.0145 51.0821 38.399 51.6975 38.399 52.4578V57.5503C38.399 58.3106 39.0145 58.926 39.7748 58.926H42.9606C43.214 59.7587 43.564 60.5672 43.9863 61.3516L41.79 63.5479C41.247 64.0909 41.247 64.9598 41.79 65.4908L45.3862 69.0869C45.9172 69.6179 46.7981 69.6179 47.3291 69.0869L49.5254 66.8906C50.3822 67.3492 51.2631 67.7233 52.1802 67.9888V71.1022C52.1802 71.8625 52.7957 72.4779 53.5559 72.4779H58.6364C59.3966 72.4779 60.0121 71.8625 60.0121 71.1022V67.9888C60.9292 67.7112 61.8222 67.3492 62.667 66.8906L64.8632 69.0869C65.4063 69.6179 66.2752 69.6179 66.8061 69.0869L70.4023 65.4908C70.9332 64.9477 70.9332 64.0789 70.4023 63.5479L68.206 61.3516C68.6766 60.4948 69.0386 59.6018 69.3041 58.6967H72.4176C73.1778 58.6967 73.7933 58.0813 73.7933 57.321V52.2406C73.7933 51.4803 73.1778 50.8649 72.4176 50.8649V50.8407ZM56.0901 62.679C51.7217 62.679 48.1738 59.1312 48.1738 54.7627C48.1738 50.3942 51.7217 46.8464 56.0901 46.8464C60.4586 46.8464 64.0065 50.3942 64.0065 54.7627C64.0065 59.1312 60.4586 62.679 56.0901 62.679Z" fill="#4B8CB8"/>
<path d="M55.3419 36.7217C55.3419 26.5004 46.7015 18.2945 36.3234 19.0065C27.7313 19.5978 20.6959 26.4522 19.8994 35.0201C19.4771 39.5455 20.7562 43.7691 23.1818 47.1118C27.2124 52.6871 29.5776 54.7024 29.5776 61.5809V62.3653H45.5792V61.7498C45.5792 54.9678 47.6066 52.8681 51.7096 47.4739C53.9903 44.4932 55.3419 40.7643 55.3419 36.7217V36.7217Z" fill="#7BB8DD"/>
<path d="M45.5913 62.3652V68.9783C45.5913 70.535 44.3363 71.79 42.7796 71.79H32.4014C30.8447 71.79 29.5897 70.535 29.5897 68.9783V62.3652H45.5913V62.3652Z" fill="#7BB8DD"/>
<path d="M72.4175 49.6339H70.185C70.0402 49.2236 69.8713 48.8133 69.6782 48.4151L71.259 46.8343C71.7418 46.3516 72.0193 45.6999 72.0193 45.0121C72.0193 44.3242 71.7538 43.6726 71.2711 43.1899L67.675 39.5937C66.6734 38.5921 65.0322 38.5921 64.0185 39.5937L62.4376 41.1746C62.0394 40.9936 61.6291 40.8246 61.2188 40.6677V38.4352C61.2188 37.0113 60.0603 35.8528 58.6364 35.8528H56.5366C56.3194 31.1947 54.3765 26.7297 51.0941 23.4111C51.1183 23.3387 51.1424 23.2784 51.1665 23.2059H53.2904C54.6782 23.2059 55.8246 22.0716 55.8246 20.6838V15.7965C55.8246 14.4087 54.6903 13.2623 53.2904 13.2623H51.1665C51.0217 12.8882 50.8769 12.5141 50.708 12.152L52.2043 10.6557C52.687 10.185 52.9405 9.54545 52.9525 8.86967C52.9525 8.19388 52.687 7.5543 52.2043 7.0716L48.7409 3.62027C47.7635 2.63073 46.1464 2.63073 45.1689 3.62027L43.6726 5.11665C43.3105 4.94771 42.9364 4.79083 42.5623 4.65808V2.53419C42.5623 1.14642 41.428 0 40.0282 0H35.1408C33.7409 0 32.6066 1.13435 32.6066 2.53419V4.65808C32.2325 4.79083 31.8584 4.94771 31.4964 5.11665L30 3.62027C29.5173 3.14964 28.8898 2.87208 28.214 2.87208C27.5382 2.87208 26.8986 3.13757 26.428 3.62027L22.9767 7.0716C22.494 7.54224 22.2405 8.18182 22.2405 8.8576C22.2405 9.53339 22.506 10.173 22.9767 10.6436L24.473 12.14C24.2679 12.5744 24.0869 13.0209 23.93 13.4795H21.8906C20.4907 13.4795 19.3685 14.6138 19.3685 16.0137V20.9131C19.3685 22.3129 20.5028 23.4352 21.8906 23.4352H24.099C20.7321 26.8624 18.8254 31.3395 18.6444 35.8648H16.3636C14.9397 35.8648 13.7812 37.0233 13.7812 38.4473V40.6798C13.3709 40.8246 12.9606 40.9936 12.5623 41.1866L10.9815 39.6058C10.7401 39.3644 10.4505 39.1714 10.1488 39.0386C9.83508 38.9059 9.50925 38.8455 9.15929 38.8455C8.47144 38.8455 7.81979 39.111 7.33709 39.6058L3.74095 43.2019C3.25825 43.6846 2.98069 44.3363 2.98069 45.0241C2.98069 45.712 3.24618 46.3636 3.74095 46.8463L5.3218 48.4272C5.10459 48.8978 4.9115 49.3805 4.73049 49.8874H2.58246C1.15849 49.8874 0 51.0458 0 52.4698V57.5623C0 58.9863 1.15849 60.1448 2.58246 60.1448H4.89944C5.03218 60.4827 5.16492 60.7965 5.30973 61.1223L3.72888 62.7031C2.72727 63.7047 2.72727 65.3459 3.72888 66.3596L7.32502 69.9557C8.32663 70.9574 9.96782 70.9574 10.9694 69.9557L12.5503 68.3749C12.9485 68.5559 13.3467 68.7249 13.7691 68.8817V71.1142C13.7691 72.5382 14.9276 73.6967 16.3516 73.6967H21.432C22.856 73.6967 24.0145 72.5382 24.0145 71.1142V68.8817C24.4248 68.7369 24.8351 68.568 25.2333 68.3749L26.8142 69.9557C27.3451 70.4867 28.0451 70.7281 28.7329 70.7039C29.3725 72.0796 30.7603 73.033 32.3773 73.033H42.7554C44.3604 73.033 45.7603 72.0796 46.3998 70.716C47.6669 70.6919 48.1134 70.004 49.7305 68.387C50.1287 68.568 50.5269 68.7369 50.9493 68.8938V71.1263C50.9493 72.5503 52.1078 73.7088 53.5318 73.7088H58.6122C60.0362 73.7088 61.1947 72.5503 61.1947 71.1263V68.8938C61.605 68.749 62.0153 68.58 62.4135 68.387L63.9944 69.9678C64.996 70.9694 66.6372 70.9694 67.6388 69.9678L71.2349 66.3717C72.2365 65.3701 72.2365 63.7289 71.2349 62.7152L69.6541 61.1343C69.8351 60.7361 70.004 60.3258 70.1609 59.9155H72.3934C73.8174 59.9155 74.9759 58.757 74.9759 57.3331V52.2526C74.9759 50.8286 73.8174 49.6701 72.3934 49.6701L72.4175 49.6339ZM24.9437 21.0217H21.8785C21.8182 21.0217 21.7699 20.9734 21.7699 20.9131V16.0137C21.7699 15.9533 21.8182 15.893 21.8785 15.893H24.7989C25.3419 15.893 25.8125 15.531 25.9574 15.0121C26.1987 14.1311 26.5487 13.2743 26.971 12.4779C27.2245 12.0072 27.14 11.428 26.7659 11.0539L24.6541 8.93001C24.6541 8.93001 24.6179 8.88174 24.6179 8.8576C24.6179 8.8214 24.6299 8.79726 24.6541 8.77313L28.1175 5.3218C28.1175 5.3218 28.2261 5.27353 28.2743 5.3218L30.3862 7.43363C30.7723 7.81979 31.3516 7.89219 31.8101 7.63878C32.5463 7.22848 33.3306 6.91472 34.1271 6.67337C34.646 6.52856 34.996 6.05792 34.996 5.51488V2.52212C34.996 2.46179 35.0563 2.40145 35.1167 2.40145H40.004C40.0644 2.40145 40.1247 2.44972 40.1247 2.52212V5.51488C40.1247 6.05792 40.4747 6.52856 40.9936 6.67337C41.8021 6.91472 42.5865 7.24055 43.3105 7.63878C43.7812 7.89219 44.3604 7.80772 44.7466 7.43363L46.8584 5.3218C46.8584 5.3218 46.9791 5.27353 47.0153 5.3218L50.4787 8.77313C50.4787 8.77313 50.5149 8.8214 50.5149 8.8576C50.5149 8.88174 50.5149 8.91794 50.4787 8.93001L48.3669 11.0539C47.9928 11.428 47.9083 12.0193 48.1617 12.4899C48.5599 13.214 48.8858 13.9863 49.1271 14.8069C49.284 15.3138 49.7546 15.6758 50.2856 15.6758H53.2784C53.3387 15.6758 53.399 15.7241 53.399 15.7965V20.6838C53.399 20.7442 53.3508 20.7924 53.2784 20.7924H50.2856C49.7546 20.7924 49.284 21.1424 49.1271 21.6613C49.1271 21.6613 49.1271 21.6734 49.1271 21.6854C48.21 20.9855 47.2566 20.3701 46.243 19.8512C47.2687 14.4932 43.1175 9.42478 37.5784 9.42478C32.0394 9.42478 27.8761 14.4932 28.9139 19.8874C27.9002 20.4183 26.9348 21.0338 26.0298 21.7337C25.8367 21.3113 25.4143 21.0338 24.9437 21.0338V21.0217ZM37.5784 11.8262C41.4039 11.8262 44.3363 15.1689 43.9501 18.8496C40.0282 17.4497 35.4666 17.329 31.2068 18.8737C30.8327 15.0845 33.8134 11.8262 37.5784 11.8262ZM36.4079 20.2132C45.9533 19.5615 53.6404 26.8745 54.111 35.8528C54.6058 47.7152 45.3138 48.5237 44.4449 59.5535C44.4087 60.0603 44.3725 60.5913 44.3725 61.1585H30.7844C30.6999 54.1955 28.1416 51.9147 24.1593 46.3998C16.4119 35.708 23.8093 21.0821 36.4079 20.2011V20.2132ZM56.0901 48.0531C59.7828 48.0531 62.7997 51.0579 62.7997 54.7627C62.7997 58.4674 59.7948 61.4722 56.0901 61.4722C52.3854 61.4722 49.3805 58.4674 49.3805 54.7627C49.3805 51.0579 52.3854 48.0531 56.0901 48.0531ZM25.6195 54.7627C25.6195 58.4553 22.6026 61.4722 18.9099 61.4722C15.2172 61.4722 12.2003 58.4674 12.2003 54.7627C12.2003 51.0579 15.2051 48.0531 18.9099 48.0531C22.6146 48.0531 25.6195 51.0579 25.6195 54.7627ZM26.3435 66.0217C25.9694 65.6476 25.3781 65.5631 24.9195 65.8166C24.1593 66.2269 23.3387 66.5647 22.494 66.8182C21.9871 66.963 21.6372 67.4336 21.6372 67.9767V71.0901C21.6372 71.1866 21.5648 71.259 21.4682 71.259H16.3878C16.2912 71.259 16.2188 71.1866 16.2188 71.0901V67.9767C16.2188 67.4457 15.8689 66.975 15.362 66.8182C14.5173 66.5647 13.6967 66.2269 12.9364 65.8166C12.7554 65.72 12.5623 65.6718 12.3572 65.6718C12.0434 65.6718 11.7297 65.7924 11.5004 66.0217L9.3041 68.2301C9.24377 68.2904 9.13516 68.2904 9.07482 68.2301L5.47868 64.6339C5.41834 64.5615 5.41834 64.465 5.47868 64.3926L7.67498 62.1963C8.06114 61.8222 8.13355 61.2309 7.88013 60.7602C7.49397 60.0603 7.18021 59.3242 6.95092 58.5639C6.79405 58.0571 6.32341 57.7071 5.8045 57.7071H2.58246C2.48592 57.7071 2.41352 57.6347 2.41352 57.5382V52.4457C2.41352 52.3491 2.48592 52.2767 2.58246 52.2767H5.62349C6.16653 52.2767 6.63717 51.9147 6.79405 51.3837C7.04747 50.4666 7.40949 49.5736 7.85599 48.7409C8.10941 48.2703 8.02494 47.6911 7.65084 47.3049L5.45455 45.0965C5.45455 45.0965 5.40627 45.0121 5.40627 44.9759C5.40627 44.9397 5.40627 44.9034 5.45455 44.8552L9.05068 41.259C9.05068 41.259 9.13516 41.2108 9.17136 41.2108C9.20756 41.2108 9.24376 41.2108 9.29204 41.259L11.4883 43.4553C11.8624 43.8294 12.4537 43.9139 12.9123 43.6605C13.6846 43.2381 14.5052 42.9002 15.3379 42.6589C15.8568 42.5141 16.2068 42.0314 16.2068 41.5004V38.387C16.2068 38.2904 16.2792 38.218 16.3757 38.218H18.7047C18.922 40.897 19.7064 43.4915 20.9976 45.8327C20.3339 45.6758 19.646 45.5913 18.934 45.5913C13.9018 45.5913 9.81094 49.6822 9.81094 54.7144C9.81094 59.7466 13.9018 63.8375 18.934 63.8375C23.2663 63.8375 26.9107 60.7965 27.8278 56.7417C28.5278 59.1191 28.4071 60.7482 28.4071 68.0249L26.3677 65.9855L26.3435 66.0217ZM42.7796 70.5833H32.4014C31.5084 70.5833 30.7965 69.8592 30.7965 68.9783V63.572H44.3845V68.9783C44.3845 69.8592 43.6726 70.5833 42.7796 70.5833V70.5833ZM72.5865 57.2969C72.5865 57.3934 72.5141 57.4658 72.4175 57.4658H69.3041C68.7731 57.4658 68.3025 57.8158 68.1456 58.3347C67.8922 59.1915 67.5543 60 67.144 60.7602C66.8785 61.2309 66.963 61.8101 67.3492 62.1963L69.5455 64.3926C69.6179 64.465 69.6179 64.5615 69.5455 64.6339L65.9493 68.2301C65.8769 68.3025 65.7683 68.3025 65.708 68.2301L63.5117 66.0338C63.1376 65.6597 62.5583 65.5752 62.0756 65.8286C61.3154 66.2389 60.4948 66.5768 59.65 66.8302C59.1432 66.975 58.7932 67.4457 58.7932 67.9887V71.1022C58.7932 71.1987 58.7208 71.2711 58.6243 71.2711H53.5438C53.4473 71.2711 53.3749 71.1987 53.3749 71.1022V67.9887C53.3749 67.4578 53.0249 66.9871 52.5181 66.8302C51.6734 66.5768 50.8528 66.2389 50.0925 65.8286C49.6098 65.5631 49.0306 65.6718 48.6565 66.0338L46.786 67.9043C46.786 61.3878 46.6653 59.5414 47.2687 57.1279C48.3065 61.0257 51.8665 63.8978 56.078 63.8978C61.1102 63.8978 65.2011 59.8069 65.2011 54.7747C65.2011 49.0064 59.8673 44.65 54.2196 45.8447C55.4988 43.5157 56.2711 40.9574 56.4883 38.2784H58.6243C58.7208 38.2784 58.7932 38.3508 58.7932 38.4473V41.5607C58.7932 42.0917 59.1432 42.5623 59.6621 42.7192C60.5068 42.9726 61.3274 43.3105 62.0877 43.7208C62.5583 43.9742 63.1376 43.8898 63.5237 43.5157L65.72 41.3194C65.7924 41.247 65.889 41.247 65.9614 41.3194L69.5575 44.9155C69.5575 44.9155 69.6058 45 69.6058 45.0362C69.6058 45.0724 69.6058 45.1086 69.5575 45.1569L67.3612 47.3532C66.9871 47.7273 66.9027 48.3186 67.1561 48.7892C67.5664 49.5495 67.9043 50.358 68.1577 51.2148C68.3025 51.7216 68.7731 52.0837 69.3162 52.0837H72.4296C72.5261 52.0837 72.5985 52.1561 72.5985 52.2526V57.3331L72.5865 57.2969Z" fill="#2F5B79"/>
<path d="M42.3813 29.2881C45.1207 31.0499 46.7498 34.2237 46.3878 37.6871C46.3154 38.3991 46.8705 39.0266 47.5825 39.0266C48.1979 39.0266 48.7168 38.568 48.7771 37.9526C49.5133 31.3275 44.288 25.4626 37.5784 25.4626C36.782 25.4626 36.2027 26.2229 36.4079 26.9711C36.8423 28.6726 38.8697 27.0194 42.3693 29.2881H42.3813Z" fill="#2F5B79"/>
<path d="M45.0965 41.4159C44.9517 41.6452 44.8069 41.8624 44.638 42.0796C44.0225 42.8761 44.6018 44.0225 45.5913 44.0225C46.3153 44.0225 46.6412 43.5036 47.1359 42.7072C47.9927 41.3314 45.9292 40.0885 45.0965 41.428V41.4159Z" fill="#2F5B79"/>
</g>
<defs>
<clipPath id="clip0_441_35">
<rect width="75" height="73.6726" fill="white"/>
</clipPath>
</defs>
</svg>
