<?xml version="1.0" encoding="utf-8"?>
<!-- Generator: Adobe Illustrator 26.3.1, SVG Export Plug-In . SVG Version: 6.00 Build 0)  -->
<svg version="1.1" id="Layer_1" xmlns="http://www.w3.org/2000/svg" xmlns:xlink="http://www.w3.org/1999/xlink" x="0px" y="0px"
	 viewBox="0 0 82.8 82.7" style="enable-background:new 0 0 82.8 82.7;" xml:space="preserve">
<style type="text/css">
	.st0{fill:#C30084;}
	.st1{fill:#FF70CD;}
	.st2{fill:#FF00A9;}
	.st3{fill:#FF40C9;}
	.st4{fill:#FF9FDE;}
	.st5{fill:#D32F2F;}
	.st6{fill:#FFBDEC;}
</style>
<path class="st0" d="M82.8,1.7C82.8,0.8,82,0,81,0C57.4,0,41.8,14.3,28,31c-18.2,0.2-24.2,7.2-28,18.4C-0.1,50,0,50.6,0.3,51
	c0.3,0.4,0.8,0.7,1.4,0.7h13.1l1.7,1.7l-5.7,5.7c-0.7,0.7-0.7,1.8,0,2.4l1.1,1.1C5.7,64.5,0,71.2,0,81c0,1,0.8,1.7,1.7,1.7
	c9.9,0,16.5-5.7,18.4-12l1.1,1.1c0.3,0.3,0.8,0.5,1.2,0.5c0.4,0,0.9-0.2,1.2-0.5l5.7-5.7l1.7,1.7V81c0,0.6,0.3,1.1,0.7,1.4
	c0.3,0.2,0.7,0.3,1,0.3c0.2,0,0.4,0,0.5-0.1c11.2-3.7,18.2-9.8,18.4-27.9C68.5,41,82.7,25.4,82.8,1.7L82.8,1.7z"/>
<path class="st1" d="M25.2,34.6c-2.5,3.1-4.9,6.3-7.3,9.4l-3.2,4.2H4.2C7.4,40,12.3,35.3,25.2,34.6L25.2,34.6z"/>
<path class="st2" d="M3.5,79.2C4.2,71,9.6,66,14.9,65.6l2.3,2.3C16.8,73.1,11.7,78.5,3.5,79.2L3.5,79.2z"/>
<path class="st3" d="M7.8,75c0.5-5.4,4-8.7,7.5-9l1.5,1.5C16.5,70.9,13.2,74.5,7.8,75z"/>
<rect x="17.5" y="56.5" transform="matrix(0.7071 -0.7071 0.7071 0.7071 -37.8226 32.8076)" class="st4" width="6.3" height="11.2"/>
<path class="st5" d="M34.5,78.6V68.1l4.3-3.2c3.2-2.4,6.3-4.8,9.4-7.3C47.4,70.4,42.7,75.4,34.5,78.6z"/>
<path class="st1" d="M34.5,78.6V68.1l4.3-3.2c3.2-2.4,6.3-4.8,9.4-7.3C47.4,70.4,42.7,75.4,34.5,78.6z"/>
<path class="st4" d="M36.6,62.1l-3.7,2.9L17.8,49.8l2.9-3.7C36.3,25.6,52.4,4.4,79.3,3.5C78.4,30.3,57.2,46.5,36.6,62.1z"/>
<circle class="st0" cx="56.9" cy="25.9" r="8.6"/>
<circle class="st6" cx="56.9" cy="25.9" r="5.2"/>
</svg>
