<svg width="75" height="75" viewBox="0 0 75 75" fill="none" xmlns="http://www.w3.org/2000/svg">
<g clip-path="url(#clip0_441_55)">
<path d="M75 1.53986C75 0.724638 74.2754 0 73.3696 0C51.9928 0 37.8623 12.9529 25.3623 28.0797C8.87681 28.2609 3.44203 34.6014 1.32681e-06 44.7464C-0.0905784 45.2899 1.32006e-06 45.8333 0.27174 46.1957C0.54348 46.558 0.996378 46.8297 1.53986 46.8297H13.4058L14.9457 48.3696L9.78261 53.5326C9.14855 54.1667 9.14855 55.163 9.78261 55.7065L10.779 56.7029C5.16304 58.4239 1.32681e-06 64.4928 1.32681e-06 73.3696C1.32681e-06 74.2754 0.724639 74.9094 1.53986 74.9094C10.5072 74.9094 16.4855 69.7464 18.2065 64.0398L19.2029 65.0362C19.4746 65.308 19.9275 65.4891 20.2899 65.4891C20.6522 65.4891 21.1051 65.308 21.3768 65.0362L26.5399 59.8732L28.0797 61.413V73.3696C28.0797 73.913 28.3515 74.3659 28.7138 74.6377C28.9855 74.8188 29.3478 74.9094 29.6196 74.9094C29.8007 74.9094 29.9819 74.9094 30.0725 74.8188C40.2174 71.4674 46.558 65.942 46.7391 49.5471C62.0471 37.1377 74.9094 23.0072 75 1.53986Z" fill="#2F5B79"/>
<path d="M22.8261 31.3406C20.5616 34.1485 18.3877 37.0471 16.2138 39.8551L13.3152 43.6594H3.80435C6.7029 36.2319 11.1413 31.9746 22.8261 31.3406Z" fill="#7BB8DD"/>
<path d="M3.17029 71.7391C3.80435 64.3116 8.69565 59.7826 13.4964 59.4203L15.5797 61.5036C15.2174 66.2138 10.5978 71.1051 3.17029 71.7391Z" fill="#2F5B79"/>
<path d="M7.06522 67.9348C7.51811 63.0435 10.6884 60.0543 13.8587 59.7826L15.2174 61.1413C14.9457 64.221 11.9565 67.4819 7.06522 67.9348Z" fill="#4B8CB8"/>
<path d="M17.1717 50.661L13.1366 54.696L20.3101 61.8695L24.3452 57.8344L17.1717 50.661Z" fill="#7BB8DD"/>
<path d="M31.25 71.1957V61.6848L35.1449 58.7863C38.0435 56.6124 40.8515 54.4384 43.6594 52.174C42.9348 63.7682 38.6775 68.2971 31.25 71.1957Z" fill="#D32F2F"/>
<path d="M31.25 71.1957V61.6848L35.1449 58.7863C38.0435 56.6124 40.8515 54.4384 43.6594 52.174C42.9348 63.7682 38.6775 68.2971 31.25 71.1957Z" fill="#7BB8DD"/>
<path d="M33.1522 56.25L29.8007 58.8768L16.1232 45.1087L18.75 41.7572C32.8804 23.1884 47.4638 3.98551 71.8297 3.17029C71.0145 27.4456 51.8116 42.1196 33.1522 56.25Z" fill="#7BB8DD"/>
<path d="M51.5399 31.25C55.8421 31.25 59.3297 27.7624 59.3297 23.4601C59.3297 19.1579 55.8421 15.6703 51.5399 15.6703C47.2376 15.6703 43.75 19.1579 43.75 23.4601C43.75 27.7624 47.2376 31.25 51.5399 31.25Z" fill="#2F5B79"/>
<path d="M51.5399 28.1703C54.1412 28.1703 56.25 26.0615 56.25 23.4601C56.25 20.8588 54.1412 18.75 51.5399 18.75C48.9385 18.75 46.8297 20.8588 46.8297 23.4601C46.8297 26.0615 48.9385 28.1703 51.5399 28.1703Z" fill="#56A0D3"/>
</g>
<defs>
<clipPath id="clip0_441_55">
<rect width="75" height="74.9094" fill="white"/>
</clipPath>
</defs>
</svg>
