<svg width="75" height="75" viewBox="0 0 75 75" fill="none" xmlns="http://www.w3.org/2000/svg">
<g clip-path="url(#clip0_321_572)">
<path d="M74.9998 1.53986C74.9998 0.724638 74.2751 0 73.3693 0C51.9925 0 37.8621 12.9529 25.3621 28.0797C8.8766 28.2609 3.44182 34.6014 -0.000212296 44.7464C-0.090792 45.2899 -0.000212303 45.8333 0.271527 46.1957C0.543266 46.558 0.996165 46.8297 1.53964 46.8297H13.4056L14.9454 48.3696L9.7824 53.5326C9.14834 54.1667 9.14834 55.163 9.7824 55.7065L10.7788 56.7029C5.16283 58.4239 -0.000212296 64.4928 -0.000212296 73.3696C-0.000212296 74.2754 0.724425 74.9094 1.53964 74.9094C10.507 74.9094 16.4853 69.7464 18.2063 64.0398L19.2027 65.0362C19.4744 65.308 19.9273 65.4891 20.2896 65.4891C20.652 65.4891 21.1049 65.308 21.3766 65.0362L26.5396 59.8732L28.0795 61.413V73.3696C28.0795 73.913 28.3512 74.3659 28.7136 74.6377C28.9853 74.8188 29.3476 74.9094 29.6194 74.9094C29.8005 74.9094 29.9817 74.9094 30.0722 74.8188C40.2172 71.4674 46.5578 65.942 46.7389 49.5471C62.0469 37.1377 74.9092 23.0072 74.9998 1.53986Z" fill="#33142E"/>
<path d="M22.8264 31.3408C20.5619 34.1488 18.388 37.0473 16.2141 39.8553L13.3156 43.6597H3.80469C6.70324 36.2321 11.1416 31.9749 22.8264 31.3408Z" fill="#993D8A"/>
<path d="M3.16992 71.7388C3.80398 64.3112 8.69528 59.7822 13.496 59.4199L15.5793 61.5033C15.217 66.2134 10.5975 71.1047 3.16992 71.7388Z" fill="#33142E"/>
<path d="M7.06543 67.9344C7.51833 63.0431 10.6886 60.054 13.8589 59.7822L15.2176 61.1409C14.9459 64.2206 11.9567 67.4815 7.06543 67.9344Z" fill="#67295D"/>
<path d="M17.1718 50.6612L13.1367 54.6963L20.3102 61.8698L24.3453 57.8347L17.1718 50.6612Z" fill="#993D8A"/>
<path d="M31.25 71.1956V61.6847L35.1449 58.7861C38.0435 56.6122 40.8515 54.4383 43.6594 52.1738C42.9348 63.768 38.6775 68.297 31.25 71.1956Z" fill="#D32F2F"/>
<path d="M31.25 71.1956V61.6847L35.1449 58.7861C38.0435 56.6122 40.8515 54.4383 43.6594 52.1738C42.9348 63.768 38.6775 68.297 31.25 71.1956Z" fill="#993D8A"/>
<path d="M33.152 56.2496L29.8006 58.8764L16.123 45.1083L18.7499 41.7569C32.8803 23.188 47.4636 3.98514 71.8296 3.16992C71.0144 27.4453 51.8115 42.1192 33.152 56.2496Z" fill="#993D8A"/>
<path d="M51.5399 31.2496C55.8421 31.2496 59.3297 27.762 59.3297 23.4598C59.3297 19.1576 55.8421 15.6699 51.5399 15.6699C47.2376 15.6699 43.75 19.1576 43.75 23.4598C43.75 27.762 47.2376 31.2496 51.5399 31.2496Z" fill="#33142E"/>
<path d="M51.5402 28.1703C54.1416 28.1703 56.2504 26.0615 56.2504 23.4601C56.2504 20.8588 54.1416 18.75 51.5402 18.75C48.9389 18.75 46.8301 20.8588 46.8301 23.4601C46.8301 26.0615 48.9389 28.1703 51.5402 28.1703Z" fill="#E58AD6"/>
</g>
<defs>
<clipPath id="clip0_321_572">
<rect width="75" height="74.9094" fill="white"/>
</clipPath>
</defs>
</svg>
