<svg width="75" height="75" viewBox="0 0 75 75" fill="none" xmlns="http://www.w3.org/2000/svg">
<g clip-path="url(#clip0_52_173)">
<path d="M75 1.53986C75 0.724638 74.2754 0 73.3696 0C51.9928 0 37.8623 12.9529 25.3623 28.0797C8.87684 28.2609 3.44206 34.6014 3.18444e-05 44.7464C-0.0905479 45.2899 3.18376e-05 45.8333 0.271771 46.1957C0.54351 46.558 0.996409 46.8297 1.53989 46.8297H13.4058L14.9457 48.3696L9.78264 53.5326C9.14858 54.1667 9.14858 55.163 9.78264 55.7065L10.779 56.7029C5.16308 58.4239 3.18444e-05 64.4928 3.18444e-05 73.3696C3.18444e-05 74.2754 0.72467 74.9094 1.53989 74.9094C10.5073 74.9094 16.4855 69.7464 18.2066 64.0398L19.2029 65.0362C19.4747 65.308 19.9276 65.4891 20.2899 65.4891C20.6522 65.4891 21.1051 65.308 21.3768 65.0362L26.5399 59.8732L28.0797 61.413V73.3696C28.0797 73.913 28.3515 74.3659 28.7138 74.6377C28.9855 74.8188 29.3479 74.9094 29.6196 74.9094C29.8008 74.9094 29.9819 74.9094 30.0725 74.8188C40.2174 71.4674 46.558 65.942 46.7392 49.5471C62.0471 37.1377 74.9095 23.0072 75 1.53986Z" fill="#133989"/>
<path d="M22.8262 31.3406C20.5617 34.1485 18.3878 37.0471 16.2139 39.8551L13.3153 43.6594H3.80444C6.70299 36.2319 11.1414 31.9746 22.8262 31.3406Z" fill="#4677DE"/>
<path d="M3.17041 71.7392C3.80447 64.3117 8.69577 59.7827 13.4965 59.4204L15.5798 61.5037C15.2175 66.2139 10.5979 71.1052 3.17041 71.7392Z" fill="#133989"/>
<path d="M7.06519 67.9349C7.51808 63.0436 10.6884 60.0545 13.8587 59.7827L15.2174 61.1414C14.9456 64.2211 11.9565 67.482 7.06519 67.9349Z" fill="#2F5EBF"/>
<path d="M17.1716 50.661L13.1365 54.696L20.31 61.8695L24.345 57.8344L17.1716 50.661Z" fill="#4677DE"/>
<path d="M31.25 71.1956V61.6847L35.1449 58.7861C38.0435 56.6122 40.8515 54.4383 43.6594 52.1738C42.9348 63.768 38.6775 68.297 31.25 71.1956Z" fill="#D32F2F"/>
<path d="M31.25 71.1956V61.6847L35.1449 58.7861C38.0435 56.6122 40.8515 54.4383 43.6594 52.1738C42.9348 63.768 38.6775 68.297 31.25 71.1956Z" fill="#4677DE"/>
<path d="M33.1523 56.2501L29.8008 58.8769L16.1233 45.1088L18.7501 41.7574C32.8805 23.1885 47.4639 3.98563 71.8298 3.17041C71.0146 27.4458 51.8117 42.1197 33.1523 56.2501Z" fill="#4677DE"/>
<path d="M51.5399 31.2501C55.8421 31.2501 59.3297 27.7625 59.3297 23.4603C59.3297 19.158 55.8421 15.6704 51.5399 15.6704C47.2376 15.6704 43.75 19.158 43.75 23.4603C43.75 27.7625 47.2376 31.2501 51.5399 31.2501Z" fill="#133989"/>
<path d="M51.5397 28.1703C54.1411 28.1703 56.2499 26.0615 56.2499 23.4601C56.2499 20.8588 54.1411 18.75 51.5397 18.75C48.9384 18.75 46.8296 20.8588 46.8296 23.4601C46.8296 26.0615 48.9384 28.1703 51.5397 28.1703Z" fill="#8CB1FF"/>
</g>
<defs>
<clipPath id="clip0_52_173">
<rect width="75" height="74.9094" fill="white"/>
</clipPath>
</defs>
</svg>
