<?xml version="1.0" encoding="utf-8"?>
<!-- Generator: Adobe Illustrator 26.3.1, SVG Export Plug-In . SVG Version: 6.00 Build 0)  -->
<svg version="1.1" id="Layer_1" xmlns="http://www.w3.org/2000/svg" xmlns:xlink="http://www.w3.org/1999/xlink" x="0px" y="0px"
	 viewBox="0 0 256 256" style="enable-background:new 0 0 256 256;" xml:space="preserve">
<style type="text/css">
	.st0{fill:#FF00A9;}
	.st1{fill:#FF70CD;}
	.st2{fill:#C30084;}
</style>
<path class="st0" d="M185.6,47.7l28.4-28.4c-15.3-6.4-33.6-3.3-46,9.1c-12.4,12.4-15.4,30.7-9.1,46L74.3,159
	c-15.3-6.4-33.6-3.3-46,9.1c-12.4,12.4-15.4,30.7-9.1,46l28.4-28.4l22.7,22.7l-28.4,28.4c15.3,6.4,33.6,3.3,46-9.1s15.4-30.7,9.1-46
	L181.7,97c15.3,6.4,33.6,3.3,46-9.1s15.4-30.7,9.1-46l-28.4,28.4L185.6,47.7L185.6,47.7z"/>
<path class="st1" d="M227.7,168.3c-12.4-12.4-30.6-15.4-45.8-9.1L96.8,74.1c6.3-15.2,3.3-33.4-9.1-45.8c-16.4-16.4-43-16.4-59.4,0
	s-16.4,43,0,59.4c12.4,12.4,30.6,15.4,45.8,9.1l85.1,85.1c-6.3,15.2-3.3,33.4,9.1,45.8c16.4,16.4,43,16.4,59.4,0
	S244.1,184.7,227.7,168.3L227.7,168.3z M62.8,75.8L45,71l-4.8-17.8l13.1-13.1l17.8,4.8l4.8,17.8C75.9,62.8,62.8,75.8,62.8,75.8z
	 M202.8,215.8L185,211l-4.8-17.8l13.1-13.1l17.8,4.8l4.8,17.8L202.8,215.8z"/>
<g>
	<path class="st2" d="M182.9,154.6L156.4,128l26.3-26.4c16.7,5.8,35.2,1.7,47.8-10.9c13.2-13.2,17.2-33,10-50.4
		c-0.5-1.2-1.6-2.1-2.9-2.4c-1.3-0.3-2.7,0.2-3.6,1.1l-25.6,25.6l-17-17L217,22c1-1,1.4-2.3,1.1-3.6c-0.2-1.3-1.2-2.4-2.4-2.9
		c-17.3-7.2-37.1-3.3-50.4,10c-12.6,12.6-16.8,31.1-10.9,47.8L128,99.7l-26.6-26.6c5.8-16.6,1.6-35-10.9-47.6c-18-18-47.2-18-65.1,0
		c-17.9,17.9-17.9,47.1,0,65c12.6,12.6,31,16.7,47.6,10.9L99.7,128l-26.4,26.3c-16.7-5.8-35.2-1.7-47.8,10.9
		c-13.2,13.2-17.2,33-10,50.4c0.5,1.2,1.6,2.1,2.9,2.4s2.7-0.2,3.6-1.1l25.6-25.6l17,17L39.1,234c-1,1-1.4,2.3-1.1,3.6
		c0.2,1.3,1.2,2.4,2.4,2.9c5.8,2.4,11.8,3.6,17.8,3.6c12,0,23.7-4.7,32.6-13.5c12.6-12.6,16.8-31.1,10.9-47.8l26.4-26.3l26.5,26.5
		c-5.8,16.6-1.6,35,10.9,47.6c9,9,20.8,13.4,32.5,13.4s23.6-4.5,32.5-13.4c17.9-17.9,17.9-47.1,0-65
		C218,152.9,199.5,148.8,182.9,154.6L182.9,154.6z M161.8,77.2c1.2-1.2,1.5-2.9,0.8-4.4c-6-14.3-2.7-30.7,8.2-41.6
		c9.5-9.5,23-13.2,35.7-10.1l-23.8,23.8c-1.6,1.6-1.6,4.1,0,5.6l22.7,22.7c1.6,1.6,4.1,1.6,5.6,0l23.8-23.8
		c3,12.8-0.6,26.2-10.1,35.7c-11,11-27.3,14.2-41.6,8.2c-1.5-0.6-3.2-0.3-4.4,0.9l-28.2,28.2l-17-17L161.8,77.2L161.8,77.2z
		 M94.2,178.8c-1.2,1.2-1.5,2.9-0.9,4.4c6,14.3,2.7,30.7-8.2,41.6c-9.5,9.5-23,13.2-35.7,10.1l23.8-23.8c1.6-1.6,1.6-4.1,0-5.6
		l-22.7-22.7c-1.6-1.6-4.1-1.6-5.6,0L21,206.6c-3-12.8,0.6-26.2,10.1-35.7c11-11,27.3-14.2,41.6-8.2c1.5,0.6,3.2,0.3,4.4-0.8
		l28.2-28.2l17,17L94.2,178.8L94.2,178.8z M224.8,224.9C217.7,232,208.1,236,198,236s-19.7-4-26.9-11.1
		c-10.9-10.9-14.1-27.2-8.2-41.4c0.6-1.5,0.3-3.2-0.9-4.4L76.9,94c-0.8-0.8-1.8-1.2-2.8-1.2c-0.5,0-1,0.1-1.5,0.3
		C58.3,99,42,95.8,31.1,84.9C24,77.7,20,68.2,20,58s4-19.7,11.1-26.9S47.8,20,58,20s19.7,4,26.9,11.1C95.8,42,99,58.3,93.1,72.6
		c-0.6,1.5-0.3,3.2,0.9,4.4l85.1,85.1c1.2,1.2,2.9,1.5,4.4,0.9c14.3-5.9,30.5-2.7,41.4,8.2c7.2,7.2,11.1,16.7,11.1,26.9
		S232.1,217.7,224.8,224.9L224.8,224.9z"/>
	<path class="st2" d="M214.9,183.9c-0.4-1.4-1.4-2.4-2.8-2.8l-17.8-4.8c-1.4-0.4-2.8,0-3.9,1l-13.1,13.1c-1,1-1.4,2.5-1,3.9
		l4.8,17.8c0.4,1.4,1.4,2.4,2.8,2.8l17.8,4.8c0.4,0.1,0.7,0.1,1,0.1c1,0,2.1-0.4,2.8-1.2l13.1-13.1c1-1,1.4-2.5,1-3.9L214.9,183.9
		L214.9,183.9z M201.6,211.4l-13.4-3.6l-3.6-13.4l9.8-9.8l13.4,3.6l3.6,13.4L201.6,211.4z"/>
	<path class="st2" d="M74.9,43.9c-0.4-1.4-1.4-2.4-2.8-2.8l-17.8-4.8c-1.4-0.4-2.8,0-3.9,1L37.3,50.4c-1,1-1.4,2.5-1,3.9L41,72.1
		c0.4,1.4,1.4,2.4,2.8,2.8l17.8,4.8c0.4,0.1,0.7,0.1,1,0.1c1,0,2.1-0.4,2.8-1.2l13.1-13.1c1-1,1.4-2.5,1-3.9L74.9,43.9z M61.6,71.4
		l-13.4-3.6l-3.6-13.4l9.8-9.8l13.4,3.6l3.6,13.4C71.4,61.6,61.6,71.4,61.6,71.4z"/>
</g>
</svg>
