<svg width="75" height="75" viewBox="0 0 75 75" fill="none" xmlns="http://www.w3.org/2000/svg">
<path d="M54.3751 13.9745L62.6954 5.65421C58.213 3.77921 52.8516 4.68741 49.2188 8.32023C45.586 11.953 44.7071 17.3144 46.5528 21.7968L21.7677 46.5819C17.2852 44.7069 11.9239 45.6152 8.29109 49.248C4.65828 52.8808 3.77937 58.2421 5.62508 62.7245L13.9454 54.4042L20.5958 61.0546L12.2755 69.3749C16.7579 71.2499 22.1192 70.3417 25.752 66.7089C29.3848 63.0761 30.2637 57.7148 28.418 53.2323L53.2325 28.4179C57.7149 30.2929 63.0762 29.3847 66.7091 25.7519C70.3419 22.1191 71.2208 16.7577 69.3751 12.2753L61.0548 20.5956L54.3751 13.9745Z" fill="#133989"/>
<path d="M66.709 49.3066C63.0762 45.6738 57.7441 44.7949 53.291 46.6406L28.3594 21.709C30.2051 17.2559 29.3262 11.9238 25.6934 8.29102C20.8887 3.48633 13.0957 3.48633 8.29102 8.29102C3.48633 13.0957 3.48633 20.8887 8.29102 25.6934C11.9238 29.3262 17.2559 30.2051 21.709 28.3594L46.6406 53.291C44.7949 57.7441 45.6738 63.0762 49.3066 66.709C54.1113 71.5137 61.9043 71.5137 66.709 66.709C71.5137 61.9043 71.5137 54.1113 66.709 49.3066ZM18.3984 22.207L13.1836 20.8008L11.7773 15.5859L15.6152 11.748L20.8301 13.1543L22.2363 18.3691C22.2363 18.3984 18.3984 22.207 18.3984 22.207ZM59.4141 63.2227L54.1992 61.8164L52.793 56.6016L56.6309 52.7637L61.8457 54.1699L63.252 59.3848L59.4141 63.2227Z" fill="#4677DE"/>
<path d="M53.584 45.2929L45.8203 37.4999L53.5254 29.7655C58.418 31.4647 63.8379 30.2636 67.5293 26.5722C71.3965 22.705 72.5684 16.9042 70.459 11.8065C70.3125 11.455 69.9903 11.1913 69.6094 11.1034C69.2285 11.0155 68.8184 11.162 68.5547 11.4257L61.0547 18.9257L56.0742 13.9452L63.5742 6.44521C63.8672 6.15224 63.9844 5.77138 63.8965 5.39052C63.8379 5.00966 63.5449 4.68739 63.1934 4.54091C58.125 2.43153 52.3242 3.57411 48.4278 7.4706C44.7363 11.162 43.5059 16.5819 45.2344 21.4745L37.5 29.2089L29.707 21.4159C31.4063 16.5526 30.1758 11.162 26.5137 7.4706C21.2402 2.19716 12.6856 2.19716 7.44142 7.4706C2.19728 12.7147 2.19728 21.2694 7.44142 26.5136C11.1328 30.205 16.5235 31.4061 21.3867 29.7069L29.209 37.4999L21.4746 45.205C16.582 43.5058 11.1621 44.7069 7.47072 48.3983C3.60353 52.2655 2.43165 58.0663 4.54103 63.164C4.68751 63.5155 5.00978 63.7792 5.39064 63.8671C5.7715 63.955 6.18165 63.8085 6.44533 63.5448L13.9453 56.0448L18.9258 61.0253L11.4551 68.5546C11.1621 68.8476 11.0449 69.2284 11.1328 69.6093C11.1914 69.9901 11.4844 70.3124 11.836 70.4589C13.5352 71.162 15.293 71.5136 17.0508 71.5136C20.5664 71.5136 23.9942 70.1366 26.6016 67.5585C30.293 63.8671 31.5235 58.4472 29.7949 53.5546L37.5293 45.8495L45.293 53.6132C43.5938 58.4765 44.8242 63.8671 48.4863 67.5585C51.1231 70.1952 54.5801 71.4843 58.0078 71.4843C61.4356 71.4843 64.9219 70.1659 67.5293 67.5585C72.7735 62.3144 72.7735 53.7597 67.5293 48.5155C63.8672 44.7948 58.4473 43.5937 53.584 45.2929ZM47.4024 22.6171C47.7539 22.2655 47.8418 21.7675 47.6367 21.328C45.8789 17.1386 46.8457 12.3339 50.0391 9.14052C52.8223 6.35732 56.7774 5.27333 60.4981 6.18154L53.5254 13.1542C53.0567 13.6229 53.0567 14.3554 53.5254 14.7948L60.1758 21.4452C60.6446 21.914 61.377 21.914 61.8164 21.4452L68.7891 14.4726C69.668 18.2226 68.6133 22.1483 65.8301 24.9315C62.6074 28.1542 57.8321 29.0917 53.6426 27.3339C53.2031 27.1581 52.7051 27.246 52.3535 27.5976L44.0918 35.8593L39.1113 30.8788L47.4024 22.6171ZM27.5977 52.3827C27.2461 52.7343 27.1582 53.2323 27.334 53.6718C29.0918 57.8612 28.125 62.6659 24.9317 65.8593C22.1485 68.6425 18.1934 69.7265 14.4727 68.8183L21.4453 61.8456C21.9141 61.3769 21.9141 60.6444 21.4453 60.205L14.7949 53.5546C14.3262 53.0858 13.5938 53.0858 13.1543 53.5546L6.15236 60.5272C5.27345 56.7772 6.32814 52.8515 9.11134 50.0683C12.334 46.8456 17.1094 45.9081 21.2988 47.6659C21.7383 47.8417 22.2363 47.7538 22.5879 47.4315L30.8496 39.1698L35.8301 44.1503L27.5977 52.3827ZM65.8594 65.8886C63.7793 67.9687 60.9668 69.1405 58.0078 69.1405C55.0488 69.1405 52.2363 67.9687 50.127 65.8886C46.9336 62.6952 45.9961 57.9198 47.7246 53.7597C47.9004 53.3202 47.8125 52.8222 47.461 52.4706L22.5293 27.539C22.2949 27.3046 22.002 27.1874 21.709 27.1874C21.5625 27.1874 21.416 27.2167 21.2695 27.2753C17.0801 29.0038 12.3047 28.0663 9.11134 24.8729C7.03126 22.7636 5.85939 19.9804 5.85939 16.9921C5.85939 14.0038 7.03126 11.2206 9.11134 9.11122C11.1914 7.00185 14.0039 5.85927 16.9922 5.85927C19.9805 5.85927 22.7637 7.03114 24.8731 9.11122C28.0664 12.3046 29.0039 17.08 27.2754 21.2694C27.0996 21.7089 27.1875 22.2069 27.5391 22.5585L52.4707 47.4901C52.8223 47.8417 53.3203 47.9296 53.7598 47.7538C57.9492 46.0253 62.6953 46.9628 65.8887 50.1561C67.9981 52.2655 69.1406 55.0487 69.1406 58.037C69.1406 61.0253 67.9981 63.7792 65.8594 65.8886Z" fill="#1D49A3"/>
<path d="M62.959 53.8769C62.8418 53.4668 62.5488 53.1738 62.1387 53.0566L56.9238 51.6504C56.5137 51.5332 56.1035 51.6504 55.7812 51.9433L51.9433 55.7812C51.6504 56.0742 51.5332 56.5137 51.6504 56.9238L53.0566 62.1387C53.1738 62.5488 53.4668 62.8418 53.8769 62.959L59.0918 64.3652C59.209 64.3945 59.2969 64.3945 59.3847 64.3945C59.6777 64.3945 60 64.2773 60.2051 64.043L64.043 60.2051C64.3359 59.9121 64.4531 59.4726 64.3359 59.0625L62.959 53.8769ZM59.0625 61.9336L55.1367 60.8789L54.082 56.9531L56.9531 54.082L60.8789 55.1367L61.9336 59.0625L59.0625 61.9336Z" fill="#1D49A3"/>
<path d="M21.9433 12.8613C21.8262 12.4512 21.5332 12.1582 21.123 12.041L15.9082 10.6348C15.498 10.5176 15.0879 10.6348 14.7656 10.9277L10.9277 14.7656C10.6348 15.0586 10.5176 15.498 10.6348 15.9082L12.0117 21.123C12.1289 21.5332 12.4219 21.8262 12.832 21.9433L18.0469 23.3496C18.164 23.3789 18.2519 23.3789 18.3398 23.3789C18.6328 23.3789 18.9551 23.2617 19.1601 23.0273L22.998 19.1894C23.291 18.8965 23.4082 18.457 23.291 18.0469L21.9433 12.8613ZM18.0469 20.918L14.1211 19.8633L13.0664 15.9375L15.9375 13.0664L19.8633 14.1211L20.918 18.0469C20.918 18.0469 18.0469 20.918 18.0469 20.918Z" fill="#1D49A3"/>
</svg>
