<svg width="75" height="75" viewBox="0 0 75 75" fill="none" xmlns="http://www.w3.org/2000/svg">
<path d="M54.3751 13.975L62.6954 5.6547C58.213 3.7797 52.8516 4.6879 49.2188 8.32071C45.586 11.9535 44.7071 17.3149 46.5528 21.7973L21.7677 46.5824C17.2852 44.7074 11.9239 45.6156 8.29109 49.2485C4.65828 52.8813 3.77937 58.2426 5.62508 62.725L13.9454 54.4047L20.5958 61.0551L12.2755 69.3754C16.7579 71.2504 22.1192 70.3422 25.752 66.7094C29.3848 63.0766 30.2637 57.7152 28.418 53.2328L53.2325 28.4184C57.7149 30.2934 63.0762 29.3852 66.7091 25.7524C70.3419 22.1195 71.2208 16.7582 69.3751 12.2758L61.0548 20.5961L54.3751 13.975Z" fill="#33142E"/>
<path d="M66.709 49.3066C63.0762 45.6738 57.7441 44.7949 53.291 46.6406L28.3594 21.709C30.2051 17.2559 29.3262 11.9238 25.6934 8.29102C20.8887 3.48633 13.0957 3.48633 8.29102 8.29102C3.48633 13.0957 3.48633 20.8887 8.29102 25.6934C11.9238 29.3262 17.2559 30.2051 21.709 28.3594L46.6406 53.291C44.7949 57.7441 45.6738 63.0762 49.3066 66.709C54.1113 71.5137 61.9043 71.5137 66.709 66.709C71.5137 61.9043 71.5137 54.1113 66.709 49.3066ZM18.3984 22.207L13.1836 20.8008L11.7773 15.5859L15.6152 11.748L20.8301 13.1543L22.2363 18.3691C22.2363 18.3984 18.3984 22.207 18.3984 22.207ZM59.4141 63.2227L54.1992 61.8164L52.793 56.6016L56.6309 52.7637L61.8457 54.1699L63.252 59.3848L59.4141 63.2227Z" fill="#993D8A"/>
<path d="M53.5842 45.2929L45.8206 37.4999L53.5257 29.7655C58.4182 31.4647 63.8382 30.2636 67.5296 26.5722C71.3968 22.705 72.5686 16.9042 70.4593 11.8065C70.3128 11.455 69.9905 11.1913 69.6096 11.1034C69.2288 11.0155 68.8186 11.162 68.555 11.4257L61.055 18.9257L56.0745 13.9452L63.5745 6.44521C63.8675 6.15224 63.9846 5.77138 63.8968 5.39052C63.8382 5.00966 63.5452 4.68739 63.1936 4.54091C58.1253 2.43153 52.3245 3.57411 48.428 7.4706C44.7366 11.162 43.5061 16.5819 45.2346 21.4745L37.5003 29.2089L29.7073 21.4159C31.4065 16.5526 30.176 11.162 26.5139 7.4706C21.2405 2.19716 12.6858 2.19716 7.44166 7.4706C2.19752 12.7147 2.19752 21.2694 7.44166 26.5136C11.1331 30.205 16.5237 31.4061 21.387 29.7069L29.2092 37.4999L21.4749 45.205C16.5823 43.5058 11.1624 44.7069 7.47096 48.3983C3.60377 52.2655 2.4319 58.0663 4.54127 63.164C4.68776 63.5155 5.01002 63.7792 5.39088 63.8671C5.77174 63.955 6.1819 63.8085 6.44557 63.5448L13.9456 56.0448L18.926 61.0253L11.4553 68.5546C11.1624 68.8476 11.0452 69.2284 11.1331 69.6093C11.1917 69.9901 11.4846 70.3124 11.8362 70.4589C13.5354 71.162 15.2932 71.5136 17.051 71.5136C20.5667 71.5136 23.9944 70.1366 26.6018 67.5585C30.2932 63.8671 31.5237 58.4472 29.7952 53.5546L37.5296 45.8495L45.2932 53.6132C43.594 58.4765 44.8245 63.8671 48.4866 67.5585C51.1233 70.1952 54.5803 71.4843 58.0081 71.4843C61.4358 71.4843 64.9221 70.1659 67.5296 67.5585C72.7737 62.3144 72.7737 53.7597 67.5296 48.5155C63.8675 44.7948 58.4475 43.5937 53.5842 45.2929ZM47.4026 22.6171C47.7542 22.2655 47.8421 21.7675 47.637 21.328C45.8792 17.1386 46.846 12.3339 50.0393 9.14052C52.8225 6.35732 56.7776 5.27333 60.4983 6.18154L53.5257 13.1542C53.0569 13.6229 53.0569 14.3554 53.5257 14.7948L60.176 21.4452C60.6448 21.914 61.3772 21.914 61.8167 21.4452L68.7893 14.4726C69.6682 18.2226 68.6135 22.1483 65.8303 24.9315C62.6077 28.1542 57.8323 29.0917 53.6428 27.3339C53.2034 27.1581 52.7053 27.246 52.3538 27.5976L44.0921 35.8593L39.1116 30.8788L47.4026 22.6171ZM27.5979 52.3827C27.2464 52.7343 27.1585 53.2323 27.3342 53.6718C29.0921 57.8612 28.1253 62.6659 24.9319 65.8593C22.1487 68.6425 18.1936 69.7265 14.4729 68.8183L21.4456 61.8456C21.9143 61.3769 21.9143 60.6444 21.4456 60.205L14.7952 53.5546C14.3264 53.0858 13.594 53.0858 13.1546 53.5546L6.1526 60.5272C5.2737 56.7772 6.32838 52.8515 9.11159 50.0683C12.3342 46.8456 17.1096 45.9081 21.2991 47.6659C21.7385 47.8417 22.2366 47.7538 22.5882 47.4315L30.8499 39.1698L35.8303 44.1503L27.5979 52.3827ZM65.8596 65.8886C63.7796 67.9687 60.9671 69.1405 58.0081 69.1405C55.0491 69.1405 52.2366 67.9687 50.1272 65.8886C46.9339 62.6952 45.9964 57.9198 47.7249 53.7597C47.9007 53.3202 47.8128 52.8222 47.4612 52.4706L22.5296 27.539C22.2952 27.3046 22.0022 27.1874 21.7092 27.1874C21.5628 27.1874 21.4163 27.2167 21.2698 27.2753C17.0803 29.0038 12.3049 28.0663 9.11159 24.8729C7.03151 22.7636 5.85963 19.9804 5.85963 16.9921C5.85963 14.0038 7.03151 11.2206 9.11159 9.11122C11.1917 7.00185 14.0042 5.85927 16.9924 5.85927C19.9807 5.85927 22.7639 7.03114 24.8733 9.11122C28.0667 12.3046 29.0042 17.08 27.2757 21.2694C27.0999 21.7089 27.1878 22.2069 27.5393 22.5585L52.471 47.4901C52.8225 47.8417 53.3206 47.9296 53.76 47.7538C57.9495 46.0253 62.6956 46.9628 65.8889 50.1561C67.9983 52.2655 69.1409 55.0487 69.1409 58.037C69.1409 61.0253 67.9983 63.7792 65.8596 65.8886Z" fill="#4D1F45"/>
<path d="M62.959 53.8769C62.8418 53.4668 62.5488 53.1738 62.1387 53.0566L56.9238 51.6504C56.5137 51.5332 56.1035 51.6504 55.7812 51.9433L51.9433 55.7812C51.6504 56.0742 51.5332 56.5137 51.6504 56.9238L53.0566 62.1387C53.1738 62.5488 53.4668 62.8418 53.8769 62.959L59.0918 64.3652C59.209 64.3945 59.2969 64.3945 59.3847 64.3945C59.6777 64.3945 60 64.2773 60.2051 64.043L64.043 60.2051C64.3359 59.9121 64.4531 59.4726 64.3359 59.0625L62.959 53.8769ZM59.0625 61.9336L55.1367 60.8789L54.082 56.9531L56.9531 54.082L60.8789 55.1367L61.9336 59.0625L59.0625 61.9336Z" fill="#4D1F45"/>
<path d="M21.9433 12.8613C21.8262 12.4512 21.5332 12.1582 21.123 12.041L15.9082 10.6348C15.498 10.5176 15.0879 10.6348 14.7656 10.9277L10.9277 14.7656C10.6348 15.0586 10.5176 15.498 10.6348 15.9082L12.0117 21.123C12.1289 21.5332 12.4219 21.8262 12.832 21.9433L18.0469 23.3496C18.164 23.3789 18.2519 23.3789 18.3398 23.3789C18.6328 23.3789 18.9551 23.2617 19.1601 23.0273L22.998 19.1894C23.291 18.8965 23.4082 18.457 23.291 18.0469L21.9433 12.8613ZM18.0469 20.918L14.1211 19.8633L13.0664 15.9375L15.9375 13.0664L19.8633 14.1211L20.918 18.0469C20.918 18.0469 18.0469 20.918 18.0469 20.918Z" fill="#4D1F45"/>
</svg>
