<svg width="75" height="75" viewBox="0 0 75 75" fill="none" xmlns="http://www.w3.org/2000/svg">
<path d="M54.375 13.9746L62.6953 5.65427C58.2129 3.77927 52.8515 4.68747 49.2187 8.32029C45.5859 11.9531 44.707 17.3144 46.5527 21.7968L21.7676 46.582C17.2851 44.707 11.9238 45.6152 8.291 49.248C4.65819 52.8808 3.77928 58.2422 5.62499 62.7246L13.9453 54.4043L20.5957 61.0547L12.2754 69.375C16.7578 71.25 22.1191 70.3418 25.7519 66.709C29.3847 63.0761 30.2637 57.7148 28.418 53.2324L53.2324 28.4179C57.7148 30.2929 63.0762 29.3847 66.709 25.7519C70.3418 22.1191 71.2207 16.7578 69.375 12.2754L61.0547 20.5957L54.375 13.9746Z" fill="#097D37"/>
<path d="M66.709 49.3066C63.0762 45.6738 57.7441 44.7949 53.291 46.6406L28.3594 21.709C30.2051 17.2559 29.3262 11.9238 25.6934 8.29102C20.8887 3.48633 13.0957 3.48633 8.29102 8.29102C3.48633 13.0957 3.48633 20.8887 8.29102 25.6934C11.9238 29.3262 17.2559 30.2051 21.709 28.3594L46.6406 53.291C44.7949 57.7441 45.6738 63.0762 49.3066 66.709C54.1113 71.5137 61.9043 71.5137 66.709 66.709C71.5137 61.9043 71.5137 54.1113 66.709 49.3066ZM18.3984 22.207L13.1836 20.8008L11.7773 15.5859L15.6152 11.748L20.8301 13.1543L22.2363 18.3691C22.2363 18.3984 18.3984 22.207 18.3984 22.207ZM59.4141 63.2227L54.1992 61.8164L52.793 56.6016L56.6309 52.7637L61.8457 54.1699L63.252 59.3848L59.4141 63.2227Z" fill="#33BB6A"/>
<path d="M53.584 45.293L45.8203 37.5L53.5254 29.7656C58.418 31.4649 63.8379 30.2637 67.5293 26.5723C71.3965 22.7051 72.5684 16.9043 70.459 11.8067C70.3125 11.4551 69.9903 11.1914 69.6094 11.1035C69.2285 11.0156 68.8184 11.1621 68.5547 11.4258L61.0547 18.9258L56.0742 13.9453L63.5742 6.44533C63.8672 6.15236 63.9844 5.7715 63.8965 5.39064C63.8379 5.00978 63.5449 4.68752 63.1934 4.54103C58.125 2.43166 52.3242 3.57423 48.4278 7.47072C44.7363 11.1621 43.5059 16.582 45.2344 21.4746L37.5 29.209L29.707 21.416C31.4063 16.5528 30.1758 11.1621 26.5137 7.47072C21.2402 2.19728 12.6856 2.19728 7.44142 7.47072C2.19728 12.7149 2.19728 21.2695 7.44142 26.5137C11.1328 30.2051 16.5235 31.4063 21.3867 29.7071L29.209 37.5L21.4746 45.2051C16.582 43.5059 11.1621 44.7071 7.47072 48.3985C3.60353 52.2656 2.43165 58.0664 4.54103 63.1641C4.68751 63.5156 5.00978 63.7793 5.39064 63.8672C5.7715 63.9551 6.18165 63.8086 6.44533 63.5449L13.9453 56.0449L18.9258 61.0254L11.4551 68.5547C11.1621 68.8477 11.0449 69.2285 11.1328 69.6094C11.1914 69.9903 11.4844 70.3125 11.836 70.459C13.5352 71.1621 15.293 71.5137 17.0508 71.5137C20.5664 71.5137 23.9942 70.1367 26.6016 67.5586C30.293 63.8672 31.5235 58.4473 29.7949 53.5547L37.5293 45.8496L45.293 53.6133C43.5938 58.4766 44.8242 63.8672 48.4863 67.5586C51.1231 70.1953 54.5801 71.4844 58.0078 71.4844C61.4356 71.4844 64.9219 70.166 67.5293 67.5586C72.7735 62.3145 72.7735 53.7598 67.5293 48.5156C63.8672 44.7949 58.4473 43.5938 53.584 45.293ZM47.4024 22.6172C47.7539 22.2656 47.8418 21.7676 47.6367 21.3281C45.8789 17.1387 46.8457 12.334 50.0391 9.14064C52.8223 6.35744 56.7774 5.27345 60.4981 6.18166L53.5254 13.1543C53.0567 13.6231 53.0567 14.3555 53.5254 14.7949L60.1758 21.4453C60.6445 21.9141 61.377 21.9141 61.8164 21.4453L68.7891 14.4727C69.668 18.2227 68.6133 22.1485 65.8301 24.9317C62.6074 28.1543 57.8321 29.0918 53.6426 27.334C53.2031 27.1582 52.7051 27.2461 52.3535 27.5977L44.0918 35.8594L39.1113 30.8789L47.4024 22.6172ZM27.5977 52.3828C27.2461 52.7344 27.1582 53.2324 27.334 53.6719C29.0918 57.8613 28.125 62.666 24.9317 65.8594C22.1485 68.6426 18.1934 69.7266 14.4727 68.8184L21.4453 61.8457C21.9141 61.377 21.9141 60.6446 21.4453 60.2051L14.7949 53.5547C14.3262 53.086 13.5938 53.086 13.1543 53.5547L6.15236 60.5274C5.27345 56.7774 6.32814 52.8516 9.11134 50.0684C12.334 46.8457 17.1094 45.9082 21.2988 47.666C21.7383 47.8418 22.2363 47.7539 22.5879 47.4317L30.8496 39.1699L35.8301 44.1504L27.5977 52.3828ZM65.8594 65.8887C63.7793 67.9688 60.9668 69.1406 58.0078 69.1406C55.0488 69.1406 52.2363 67.9688 50.127 65.8887C46.9336 62.6953 45.9961 57.9199 47.7246 53.7598C47.9004 53.3203 47.8125 52.8223 47.461 52.4707L22.5293 27.5391C22.2949 27.3047 22.002 27.1875 21.709 27.1875C21.5625 27.1875 21.416 27.2168 21.2695 27.2754C17.0801 29.0039 12.3047 28.0664 9.11134 24.8731C7.03126 22.7637 5.85939 19.9805 5.85939 16.9922C5.85939 14.0039 7.03126 11.2207 9.11134 9.11134C11.1914 7.00197 14.0039 5.85939 16.9922 5.85939C19.9805 5.85939 22.7637 7.03127 24.8731 9.11134C28.0664 12.3047 29.0039 17.0801 27.2754 21.2695C27.0996 21.709 27.1875 22.207 27.5391 22.5586L52.4707 47.4903C52.8223 47.8418 53.3203 47.9297 53.7598 47.7539C57.9492 46.0254 62.6953 46.9629 65.8887 50.1563C67.9981 52.2656 69.1406 55.0489 69.1406 58.0371C69.1406 61.0254 67.9981 63.7793 65.8594 65.8887Z" fill="#005B25"/>
<path d="M62.959 53.877C62.8418 53.4668 62.5488 53.1739 62.1387 53.0567L56.9238 51.6504C56.5137 51.5332 56.1035 51.6504 55.7813 51.9434L51.9434 55.7813C51.6504 56.0743 51.5332 56.5137 51.6504 56.9239L53.0567 62.1387C53.1738 62.5489 53.4668 62.8418 53.877 62.959L59.0918 64.3653C59.209 64.3946 59.2969 64.3946 59.3848 64.3946C59.6777 64.3946 60 64.2774 60.2051 64.043L64.043 60.2051C64.336 59.9122 64.4531 59.4727 64.336 59.0625L62.959 53.877ZM59.0625 61.9336L55.1367 60.879L54.082 56.9532L56.9531 54.0821L60.8789 55.1368L61.9336 59.0625L59.0625 61.9336Z" fill="#005B25"/>
<path d="M21.9434 12.8614C21.8262 12.4512 21.5332 12.1582 21.1231 12.0411L15.9082 10.6348C15.4981 10.5176 15.0879 10.6348 14.7656 10.9278L10.9277 14.7657C10.6348 15.0586 10.5176 15.4981 10.6348 15.9082L12.0117 21.1231C12.1289 21.5332 12.4219 21.8262 12.832 21.9434L18.0469 23.3497C18.1641 23.379 18.252 23.379 18.3399 23.379C18.6328 23.379 18.9551 23.2618 19.1602 23.0274L22.9981 19.1895C23.291 18.8965 23.4082 18.4571 23.291 18.0469L21.9434 12.8614ZM18.0469 20.918L14.1211 19.8633L13.0664 15.9375L15.9375 13.0665L19.8633 14.1211L20.918 18.0469C20.918 18.0469 18.0469 20.918 18.0469 20.918Z" fill="#005B25"/>
</svg>
