<svg id="Layer_1" data-name="Layer 1" xmlns="http://www.w3.org/2000/svg" viewBox="0 0 271.68 271.71"><defs><style>.cls-1{fill:#f4ff8d;}.cls-2{fill:#ff983b;}.cls-3{fill:#0080ea;}.cls-4{fill:#ff087e;}.cls-5{fill:#a373ff;}.cls-6{fill:#fff985;}.cls-7{fill:#39ff89;}.cls-8{fill:#efefef;}</style></defs><path class="cls-1" d="M208.24,207.14a100.73,100.73,0,0,1-105.59,24.08,7,7,0,0,1-4.12-9,6.79,6.79,0,0,1,.39-.87l11.2-21.07a7.06,7.06,0,0,1,8.32-3.37,63.29,63.29,0,0,0,78.77-78.54,7,7,0,0,1,3.32-8.24l21-11.47a7,7,0,0,1,9.5,2.77,7.5,7.5,0,0,1,.42.91A100.81,100.81,0,0,1,208.24,207.14Z" transform="translate(0.02 0.01)"/><path class="cls-2" d="M264.94,178.07a13.3,13.3,0,0,1-16.69,8.67,12.92,12.92,0,0,1-2.39-1l-22.18-12.34a13.2,13.2,0,0,1-6.29-15A84.62,84.62,0,0,0,113.33,54.24a13.18,13.18,0,0,1-15-6.16l-12.63-22A13.3,13.3,0,0,1,90.74,8a13.15,13.15,0,0,1,2.49-1.09,135.86,135.86,0,0,1,171.71,171.2Z" transform="translate(0.02 0.01)"/><path class="cls-3" d="M91.5,91.74A63.19,63.19,0,0,0,76.12,155a7.09,7.09,0,0,1-3.29,8.37L51.88,174.81a7,7,0,0,1-9.51-2.74,6.9,6.9,0,0,1-.41-.87A100.88,100.88,0,0,1,169.3,40.85a7,7,0,0,1,4.24,8.95,7.92,7.92,0,0,1-.42.94L161.88,71.9a7.09,7.09,0,0,1-8.21,3.42A63.2,63.2,0,0,0,91.5,91.74Z" transform="translate(0.02 0.01)"/><path class="cls-4" d="M187,245.27a13.27,13.27,0,0,1-7.42,19.17A135.86,135.86,0,0,1,6.34,94.71,13.29,13.29,0,0,1,23,86a13.78,13.78,0,0,1,2.47,1L47.65,99.37A13.14,13.14,0,0,1,54,114.26,84.63,84.63,0,0,0,159.3,217.11a13.21,13.21,0,0,1,15.12,6.14Z" transform="translate(0.02 0.01)"/><path class="cls-5" d="M264.94,178.07a13.3,13.3,0,0,1-16.69,8.67,12.92,12.92,0,0,1-2.39-1l-22.18-12.34a13.2,13.2,0,0,1-6.29-15A84.62,84.62,0,0,0,113.33,54.24a13.18,13.18,0,0,1-15-6.16l-12.63-22A13.3,13.3,0,0,1,90.74,8a13.15,13.15,0,0,1,2.49-1.09,135.86,135.86,0,0,1,171.71,171.2Z" transform="translate(0.02 0.01)"/><path class="cls-4" d="M187,245.27a13.27,13.27,0,0,1-7.42,19.17A135.86,135.86,0,0,1,6.34,94.71,13.29,13.29,0,0,1,23,86a13.78,13.78,0,0,1,2.47,1L47.65,99.37A13.14,13.14,0,0,1,54,114.26,84.63,84.63,0,0,0,159.3,217.11a13.21,13.21,0,0,1,15.12,6.14Z" transform="translate(0.02 0.01)"/><path class="cls-3" d="M91.5,91.74A63.19,63.19,0,0,0,76.12,155a7.09,7.09,0,0,1-3.29,8.37L51.88,174.81a7,7,0,0,1-9.51-2.74,6.9,6.9,0,0,1-.41-.87A100.88,100.88,0,0,1,169.3,40.85a7,7,0,0,1,4.24,8.95,7.92,7.92,0,0,1-.42.94L161.88,71.9a7.09,7.09,0,0,1-8.21,3.42A63.2,63.2,0,0,0,91.5,91.74Z" transform="translate(0.02 0.01)"/><path class="cls-6" d="M208.24,207.14a100.73,100.73,0,0,1-105.59,24.08,7,7,0,0,1-4.12-9,6.79,6.79,0,0,1,.39-.87l11.2-21.07a7.06,7.06,0,0,1,8.32-3.37,63.29,63.29,0,0,0,78.77-78.54,7,7,0,0,1,3.32-8.24l21-11.47a7,7,0,0,1,9.5,2.77,7.5,7.5,0,0,1,.42.91A100.81,100.81,0,0,1,208.24,207.14Z" transform="translate(0.02 0.01)"/><circle class="cls-7" cx="78.49" cy="194.38" r="15.89"/><circle class="cls-7" cx="193.71" cy="77.82" r="15.89"/><circle class="cls-8" cx="94.38" cy="97.8" r="22.21"/></svg>